G04 ================== begin FILE IDENTIFICATION RECORD ==================*
G04 Layout Name:  D:/Project/Circuit/KVP/03v5/pcb/kvp_03v5.brd*
G04 Film Name:    BOTTOM*
G04 File Format:  Gerber RS274X*
G04 File Origin:  Cadence Allegro 16.6-2015-S073*
G04 Origin Date:  Wed Aug 02 15:36:11 2017*
G04 *
G04 Layer:  ETCH/BOTTOM*
G04 Layer:  PIN/BOTTOM*
G04 Layer:  VIA CLASS/BOTTOM*
G04 *
G04 Offset:    (0.000 0.000)*
G04 Mirror:    No*
G04 Mode:      Positive*
G04 Rotation:  0*
G04 FullContactRelief:  No*
G04 UndefLineWidth:     0.250*
G04 ================== end FILE IDENTIFICATION RECORD ====================*
%FSLAX34Y34*MOMM*%
%IR0*IPPOS*OFA0.00000B0.00000*MIA0B0*SFA1.00000B1.00000*%
%ADD12C,1.*%
%ADD11C,4.*%
%ADD20C,2.5*%
%ADD14C,1.7*%
%ADD19R,2.5X2.5*%
%ADD13R,1.7X1.7*%
%ADD15R,1.2X2.7*%
%ADD17R,1.8X1.4*%
%ADD16R,2.3X1.8*%
%ADD21C,.2*%
%ADD18R,1.7X1.7*%
%ADD10C,.8*%
%ADD22C,.5*%
%ADD23C,.25*%
%ADD24C,.35*%
%ADD25C,.45*%
%ADD26C,2.204*%
%ADD27C,3.404*%
G75*
%LPD*%
G75*
G36*
G01X-69850Y342900D02*
X-58220D01*
G02X-57270Y342240I8J-1002D01*
G01X-56590Y340060D01*
X-56800Y339450D01*
X-57080Y339260D01*
G03X-49320Y319280I6277J-9059D01*
G01X-49300D01*
G02X-48470Y319000I128J-991D01*
G01X-46430Y316960D01*
G02X-46390Y315580I-704J-711D01*
G01X-46600Y315350D01*
X-47160Y315200D01*
X-47440Y315290D01*
G03X-40550Y308850I-3355J-10495D01*
G01X-40660Y309120D01*
X-40570Y309660D01*
X-39250Y311190D01*
G02X-38500Y311540I759J-649D01*
G01X-38250D01*
X-38150Y311520D01*
G03X-37300Y311360I2758J12315D01*
G01X-37270D01*
G02X-36580Y310880I-174J-986D01*
G01X-35670Y309340D01*
X-35630Y308890D01*
X-35710Y308680D01*
G03X-15090I10310J-3880D01*
G01X-15170Y308890D01*
X-15130Y309340D01*
X-14220Y310880D01*
G02X-13530Y311360I864J-506D01*
G01X-13510D01*
G03X-12550Y311540I-1844J12485D01*
G01X-12270Y311610D01*
X-11750Y311430D01*
X-10230Y309660D01*
X-10140Y309120D01*
X-10250Y308850D01*
G03X-3360Y315290I10245J-4055D01*
G01X-3640Y315200D01*
X-4200Y315350D01*
X-4410Y315580D01*
G02X-4370Y316960I744J669D01*
G01X-2330Y319000D01*
G02X-1500Y319280I702J-711D01*
G01X-1490D01*
G03X4370Y320090I1477J10919D01*
G01X4470Y320140D01*
X4610Y320160D01*
G02X4800Y320180I199J-980D01*
G01X107950D01*
G02X123330Y304800I0J-15380D01*
G01Y-264090D01*
G03X128120Y-275650I16372J12D01*
G01X256380Y-403900D01*
G02X256600Y-404220I-699J-716D01*
G01X256680Y-404420D01*
Y-1102210D01*
G03X270160Y-1111610I10017J0D01*
G01X270320Y-1111550D01*
X270790D01*
G02X271350Y-1111720I2J-1000D01*
G01X272610Y-1112590D01*
G02X272750Y-1112700I-543J-835D01*
G02X273050Y-1113420I-701J-715D01*
G01Y-1130300D01*
G02X266700Y-1136650I-6350J0D01*
G01X-69850D01*
G02X-76200Y-1130300I0J6350D01*
G01Y-74300D01*
G02X-75920Y-73610I999J-4D01*
G01X-75780Y-73460D01*
X-75440Y-73310D01*
X-75240Y-73300D01*
G03Y-28300I-960J22500D01*
G02X-76200Y-27300I40J999D01*
G01Y336550D01*
G02X-69850Y342900I6350J0D01*
G37*
G36*
G01X184150Y-209550D02*
G02X177800Y-203200I0J6350D01*
G01Y419100D01*
G03X165100Y431800I-12700J0D01*
G01X11720D01*
X11010Y432440D01*
X10960Y432920D01*
G03X-10960I-10960J-1120D01*
G01X-11010Y432440D01*
X-11720Y431800D01*
X-13680D01*
X-14390Y432440D01*
X-14440Y432920D01*
G03X-36360I-10960J-1120D01*
G01X-36410Y432440D01*
X-37120Y431800D01*
X-39080D01*
X-39790Y432440D01*
X-39840Y432920D01*
G03X-60550Y436930I-10961J-1123D01*
G02X-61740Y436270I-1103J586D01*
G01X-62290Y436300D01*
G02X-63460Y437400I73J1249D01*
G02X-63500Y438150I6312J713D01*
G01Y448330D01*
G02X-62690Y449500I1251J-1D01*
G01X-60120Y450460D01*
X-59370Y450270D01*
X-59110Y449970D01*
G03Y464430I8310J7230D01*
G01X-59370Y464130D01*
X-60120Y463940D01*
X-62690Y464900D01*
G02X-63500Y466070I441J1171D01*
G01Y470330D01*
G02X-62250Y471580I1250J0D01*
G01X-41030D01*
G03X-39780Y472830I0J1250D01*
G01Y492370D01*
G03X-41030Y493620I-1250J0D01*
G01X-62250D01*
G02X-63500Y494870I0J1250D01*
G01Y499130D01*
G02X-62690Y500300I1251J-1D01*
G01X-60120Y501260D01*
X-59370Y501070D01*
X-59110Y500770D01*
G03Y515230I8310J7230D01*
G01X-59370Y514930D01*
X-60120Y514740D01*
X-62690Y515700D01*
G02X-63500Y516870I441J1171D01*
G01Y524530D01*
G02X-62690Y525700I1251J-1D01*
G01X-60120Y526660D01*
X-59370Y526470D01*
X-59110Y526170D01*
G03Y540630I8310J7230D01*
G01X-59370Y540330D01*
X-60120Y540140D01*
X-62690Y541100D01*
G02X-63500Y542270I441J1171D01*
G01Y549930D01*
G02X-62690Y551100I1251J-1D01*
G01X-60120Y552060D01*
X-59370Y551870D01*
X-59110Y551570D01*
G03Y566030I8310J7230D01*
G01X-59370Y565730D01*
X-60120Y565540D01*
X-62690Y566500D01*
G02X-63500Y567670I441J1171D01*
G01Y575330D01*
G02X-62690Y576500I1251J-1D01*
G01X-60120Y577460D01*
X-59370Y577270D01*
X-59110Y576970D01*
G03Y591430I8310J7230D01*
G01X-59370Y591130D01*
X-60120Y590940D01*
X-62690Y591900D01*
G02X-63500Y593070I441J1171D01*
G01Y600730D01*
G02X-62690Y601900I1251J-1D01*
G01X-60120Y602860D01*
X-59370Y602670D01*
X-59110Y602370D01*
G03Y616830I8310J7230D01*
G01X-59370Y616530D01*
X-60120Y616340D01*
X-62690Y617300D01*
G02X-63500Y618470I441J1171D01*
G01Y626130D01*
G02X-62690Y627300I1251J-1D01*
G01X-60120Y628260D01*
X-59370Y628070D01*
X-59110Y627770D01*
G03X-43570Y643310I8310J7230D01*
G01X-43870Y643570D01*
X-44060Y644320D01*
X-43100Y646890D01*
G02X-41930Y647700I1171J-441D01*
G01X-34270D01*
G02X-33100Y646890I-1J-1251D01*
G01X-32140Y644320D01*
X-32330Y643570D01*
X-32630Y643310D01*
G03X-18170I7230J-8310D01*
G01X-18470Y643570D01*
X-18660Y644320D01*
X-17700Y646890D01*
G02X-16530Y647700I1171J-441D01*
G01X-8870D01*
G02X-7700Y646890I-1J-1251D01*
G01X-6740Y644320D01*
X-6930Y643570D01*
X-7230Y643310D01*
G03X7230I7230J-8310D01*
G01X6930Y643570D01*
X6740Y644320D01*
X7700Y646890D01*
G02X8870Y647700I1171J-441D01*
G01X450850D01*
G02X457200Y641350I0J-6350D01*
G01Y304800D01*
G02X450850Y298450I-6350J0D01*
G01X260350D01*
G03X247650Y285750I0J-12700D01*
G01Y-203200D01*
G02X241300Y-209550I-6350J0D01*
G01X184150D01*
G37*
G36*
G01X260350D02*
G02X254020Y-203670I0J6347D01*
G02X254010Y-203560I988J145D01*
G03X254020Y-203200I-12705J533D01*
G01Y285750D01*
G02X260350Y292080I6330J0D01*
G01X450850D01*
G03X463570Y304800I0J12720D01*
G01Y641350D01*
G03X450850Y654070I-12720J0D01*
G01X18590D01*
G02X18500I-45J1000D01*
G02X12700Y660400I554J6330D01*
G01Y666750D01*
G02X19050Y673100I6350J0D01*
G01X558800D01*
G02X565150Y666750I0J-6350D01*
G01Y656200D01*
G02X564720Y655380I-1000J2D01*
G01X563150Y654300D01*
X562670Y654240D01*
X562440Y654330D01*
G03Y633750I-3940J-10290D01*
G01X562670Y633840D01*
X563150Y633780D01*
X564720Y632700D01*
G02X565150Y631880I-570J-822D01*
G01Y605260D01*
G02X564150Y604260I-1000J0D01*
G01X548480D01*
G03X547480Y603260I0J-1000D01*
G01Y583220D01*
G03X548480Y582220I1000J0D01*
G01X564150D01*
G02X565150Y581220I0J-1000D01*
G01Y554600D01*
G02X564720Y553780I-1000J2D01*
G01X563150Y552700D01*
X562670Y552640D01*
X562440Y552730D01*
G03Y532150I-3940J-10290D01*
G01X562670Y532240D01*
X563150Y532180D01*
X564720Y531100D01*
G02X565150Y530280I-570J-822D01*
G01Y503660D01*
G02X564150Y502660I-1000J0D01*
G01X548480D01*
G03X547480Y501660I0J-1000D01*
G01Y481620D01*
G03X548480Y480620I1000J0D01*
G01X564150D01*
G02X565150Y479620I0J-1000D01*
G01Y453000D01*
G02X564720Y452180I-1000J2D01*
G01X563150Y451100D01*
X562670Y451040D01*
X562440Y451130D01*
G03Y430550I-3940J-10290D01*
G01X562670Y430640D01*
X563150Y430580D01*
X564720Y429500D01*
G02X565150Y428680I-570J-822D01*
G01Y402060D01*
G02X564150Y401060I-1000J0D01*
G01X548480D01*
G03X547480Y400060I0J-1000D01*
G01Y380020D01*
G03X548480Y379020I1000J0D01*
G01X564150D01*
G02X565150Y378020I0J-1000D01*
G01Y351400D01*
G02X564720Y350580I-1000J2D01*
G01X563150Y349500D01*
X562670Y349440D01*
X562440Y349530D01*
G03Y328950I-3940J-10290D01*
G01X562670Y329040D01*
X563150Y328980D01*
X564720Y327900D01*
G02X565150Y327080I-570J-822D01*
G01Y300460D01*
G02X564150Y299460I-1000J0D01*
G01X548480D01*
G03X547480Y298460I0J-1000D01*
G01Y278420D01*
G03X548480Y277420I1000J0D01*
G01X560560D01*
G02X561540Y276630I1J-1002D01*
G01X561940Y274710D01*
G02X561360Y273590I-979J-203D01*
G02X558800Y273050I-2560J5798D01*
G01X285750D01*
G03X273050Y260350I0J-12700D01*
G01Y-203200D01*
G02X266700Y-209550I-6350J0D01*
G01X260350D01*
G37*
G36*
G01X362620Y-1079220D02*
Y-960100D01*
G02X363350Y-958340I2499J-5D01*
G01X370480Y-951210D01*
G02X372240Y-950480I1765J-1769D01*
G01X401180D01*
X401820Y-950650D01*
X402110Y-950820D01*
G03Y-936100I4290J7360D01*
G01X401820Y-936270D01*
X401180Y-936440D01*
X370930D01*
G03X361480Y-940360I7J-13368D01*
G01X353510Y-948320D01*
G02X350790Y-948860I-1765J1770D01*
G01X350090Y-948570D01*
X349250Y-947310D01*
Y-934410D01*
G02X359250Y-924410I10000J0D01*
G01X414960D01*
G02X422030Y-927340I-2J-10000D01*
G01X422520Y-927830D01*
G03X429590Y-930760I7072J7070D01*
G01X784470D01*
G02X786290Y-931550I-3J-2499D01*
G01X789140Y-934580D01*
X789490Y-935550D01*
X789460Y-936070D01*
G03X823440Y-936130I16988J-1040D01*
G02X824570Y-933890I2496J146D01*
G01X825620Y-933200D01*
G02X828700Y-933470I1368J-2094D01*
G02X831850Y-940760I-6861J-7290D01*
G01Y-1136660D01*
G02X828700Y-1143950I-10011J0D01*
G02X825620Y-1144220I-1712J1824D01*
G01X824570Y-1143530D01*
G02X823440Y-1141290I1366J2094D01*
G03X789460Y-1141350I-16992J980D01*
G01X789490Y-1141870D01*
X789140Y-1142840D01*
X786290Y-1145870D01*
G02X784470Y-1146660I-1823J1709D01*
G01X454990D01*
G02X447920Y-1143730I2J10000D01*
G01X447430Y-1143240D01*
G03X440360Y-1140310I-7072J-7070D01*
G01X359250D01*
G02X349250Y-1130310I0J10000D01*
G01Y-1092770D01*
G02X350790Y-1090460I2500J2D01*
G01X351490Y-1090170D01*
X352980Y-1090460D01*
X378700Y-1116190D01*
X379030Y-1116760D01*
X379110Y-1117080D01*
G03X389520Y-1106670I8240J2170D01*
G01X389200Y-1106590D01*
X388630Y-1106260D01*
X363350Y-1080980D01*
G02X362620Y-1079220I1769J1765D01*
G37*
G36*
G01X370930Y-682440D02*
G03X361480Y-686360I7J-13368D01*
G01X353510Y-694320D01*
G02X350790Y-694860I-1765J1770D01*
G01X350090Y-694570D01*
X349250Y-693310D01*
Y-680410D01*
G02X359250Y-670410I10000J0D01*
G01X414960D01*
G02X422030Y-673340I-2J-10000D01*
G01X422520Y-673830D01*
G03X429590Y-676760I7072J7070D01*
G01X784470D01*
G02X786290Y-677550I-3J-2499D01*
G01X789140Y-680580D01*
X789490Y-681550D01*
X789460Y-682070D01*
G03X823440Y-682130I16988J-1040D01*
G02X824570Y-679890I2496J146D01*
G01X825620Y-679200D01*
G02X828700Y-679470I1368J-2094D01*
G02X831850Y-686760I-6861J-7290D01*
G01Y-882660D01*
G02X828700Y-889950I-10011J0D01*
G02X825620Y-890220I-1712J1824D01*
G01X824570Y-889530D01*
G02X823440Y-887290I1366J2094D01*
G03X789460Y-887350I-16992J980D01*
G01X789490Y-887870D01*
X789140Y-888840D01*
X786290Y-891870D01*
G02X784470Y-892660I-1823J1709D01*
G01X454990D01*
G02X447920Y-889730I2J10000D01*
G01X447430Y-889240D01*
G03X440360Y-886310I-7072J-7070D01*
G01X359250D01*
G02X349250Y-876310I0J10000D01*
G01Y-838770D01*
G02X350790Y-836460I2500J2D01*
G01X351490Y-836170D01*
X352980Y-836460D01*
X378700Y-862190D01*
X379030Y-862760D01*
X379110Y-863080D01*
G03X389520Y-852670I8240J2170D01*
G01X389200Y-852590D01*
X388630Y-852260D01*
X363350Y-826980D01*
G02X362620Y-825220I1769J1765D01*
G01Y-706100D01*
G02X363350Y-704340I2499J-5D01*
G01X370480Y-697210D01*
G02X372240Y-696480I1765J-1769D01*
G01X401180D01*
X401820Y-696650D01*
X402110Y-696820D01*
G03Y-682100I4290J7360D01*
G01X401820Y-682270D01*
X401180Y-682440D01*
X370930D01*
G37*
G36*
G01X823440Y-633290D02*
G03X789460Y-633350I-16992J980D01*
G01X789490Y-633870D01*
X789140Y-634840D01*
X786290Y-637870D01*
G02X784470Y-638660I-1823J1709D01*
G01X454990D01*
G02X447920Y-635730I2J10000D01*
G01X447430Y-635240D01*
G03X440360Y-632310I-7072J-7070D01*
G01X359250D01*
G02X349250Y-622310I0J10000D01*
G01Y-584770D01*
G02X350790Y-582460I2500J2D01*
G01X351490Y-582170D01*
X352980Y-582460D01*
X378700Y-608190D01*
X379030Y-608760D01*
X379110Y-609080D01*
G03X389520Y-598670I8240J2170D01*
G01X389200Y-598590D01*
X388630Y-598260D01*
X363350Y-572980D01*
G02X362620Y-571220I1769J1765D01*
G01Y-452100D01*
G02X363350Y-450340I2499J-5D01*
G01X370480Y-443210D01*
G02X372240Y-442480I1765J-1769D01*
G01X401180D01*
X401820Y-442650D01*
X402110Y-442820D01*
G03Y-428100I4290J7360D01*
G01X401820Y-428270D01*
X401180Y-428440D01*
X370930D01*
G03X361480Y-432360I7J-13368D01*
G01X353510Y-440320D01*
G02X350790Y-440860I-1765J1770D01*
G01X350090Y-440570D01*
X349250Y-439310D01*
Y-426410D01*
G02X359250Y-416410I10000J0D01*
G01X414960D01*
G02X422030Y-419340I-2J-10000D01*
G01X422520Y-419830D01*
G03X429590Y-422760I7072J7070D01*
G01X784470D01*
G02X786290Y-423550I-3J-2499D01*
G01X789140Y-426580D01*
X789490Y-427550D01*
X789460Y-428070D01*
G03X823440Y-428130I16988J-1040D01*
G02X824570Y-425890I2496J146D01*
G01X825620Y-425200D01*
G02X828700Y-425470I1368J-2094D01*
G02X831850Y-432760I-6861J-7290D01*
G01Y-628660D01*
G02X828700Y-635950I-10011J0D01*
G02X825620Y-636220I-1712J1824D01*
G01X824570Y-635530D01*
G02X823440Y-633290I1366J2094D01*
G37*
G36*
G01X483000Y-117960D02*
G02X489350Y-124310I0J-6350D01*
G01Y-156060D01*
G02X483000Y-162410I-6350J0D01*
G01X451250D01*
G02X444900Y-156060I0J6350D01*
G01Y-124310D01*
G02X451250Y-117960I6350J0D01*
G01X483000D01*
G37*
G36*
G01X508400Y-162410D02*
G02X502050Y-156060I0J6350D01*
G01Y-130660D01*
G02X508400Y-124310I6350J0D01*
G01X521100D01*
G03X533800Y-111610I0J12700D01*
G01Y-92560D01*
G02X540150Y-86210I6350J0D01*
G01X545780D01*
G02X547030Y-87460I0J-1250D01*
G01Y-115680D01*
G03X548280Y-116930I1250J0D01*
G01X564300D01*
G02X565550Y-118180I0J-1250D01*
G01Y-156060D01*
G02X559200Y-162410I-6350J0D01*
G01X508400D01*
G37*
G36*
G01X483000Y34440D02*
G02X489350Y28090I0J-6350D01*
G01Y-3660D01*
G02X483000Y-10010I-6350J0D01*
G01X451250D01*
G02X444900Y-3660I0J6350D01*
G01Y28090D01*
G02X451250Y34440I6350J0D01*
G01X483000D01*
G37*
G36*
G01X508400Y-10010D02*
G02X502050Y-3660I0J6350D01*
G01Y21740D01*
G02X508400Y28090I6350J0D01*
G01X521100D01*
G03X533800Y40790I0J12700D01*
G01Y59840D01*
G02X540150Y66190I6350J0D01*
G01X545780D01*
G02X547030Y64940I0J-1250D01*
G01Y36720D01*
G03X548280Y35470I1250J0D01*
G01X564300D01*
G02X565550Y34220I0J-1250D01*
G01Y-3660D01*
G02X559200Y-10010I-6350J0D01*
G01X508400D01*
G37*
G36*
G01X482600Y186840D02*
G02X488950Y180490I0J-6350D01*
G01Y148740D01*
G02X482600Y142390I-6350J0D01*
G01X450850D01*
G02X444500Y148740I0J6350D01*
G01Y180490D01*
G02X450850Y186840I6350J0D01*
G01X482600D01*
G37*
G36*
G01X508000Y142390D02*
G02X501650Y148740I0J6350D01*
G01Y174140D01*
G02X508000Y180490I6350J0D01*
G01X520700D01*
G03X533400Y193190I0J12700D01*
G01Y212240D01*
G02X539750Y218590I6350J0D01*
G01X545380D01*
G02X546630Y217340I0J-1250D01*
G01Y189120D01*
G03X547880Y187870I1250J0D01*
G01X563900D01*
G02X565150Y186620I0J-1250D01*
G01Y148740D01*
G02X558800Y142390I-6350J0D01*
G01X508000D01*
G37*
G36*
G01X622700Y-92560D02*
G02X629050Y-86210I6350J0D01*
G01X756050D01*
G02X762400Y-92560I0J-6350D01*
G01Y-111610D01*
G02X756050Y-117960I-6350J0D01*
G01X705250D01*
G03X692550Y-130660I0J-12700D01*
G01Y-156060D01*
G02X686200Y-162410I-6350J0D01*
G01X629050D01*
G02X622700Y-156060I0J6350D01*
G01Y-92560D01*
G37*
G36*
G01Y59840D02*
G02X629050Y66190I6350J0D01*
G01X756050D01*
G02X762400Y59840I0J-6350D01*
G01Y40790D01*
G02X756050Y34440I-6350J0D01*
G01X705250D01*
G03X692550Y21740I0J-12700D01*
G01Y-3660D01*
G02X686200Y-10010I-6350J0D01*
G01X629050D01*
G02X622700Y-3660I0J6350D01*
G01Y59840D01*
G37*
G36*
G01X622300Y212240D02*
G02X628650Y218590I6350J0D01*
G01X755650D01*
G02X762000Y212240I0J-6350D01*
G01Y193190D01*
G02X755650Y186840I-6350J0D01*
G01X704850D01*
G03X692150Y174140I0J-12700D01*
G01Y148740D01*
G02X685800Y142390I-6350J0D01*
G01X628650D01*
G02X622300Y148740I0J6350D01*
G01Y212240D01*
G37*
G36*
G01X705250Y-156060D02*
Y-137010D01*
G02X711600Y-130660I6350J0D01*
G01X742950D01*
G02X749300Y-137010I0J-6350D01*
G01Y-156060D01*
G02X742950Y-162410I-6350J0D01*
G01X711600D01*
G02X705250Y-156060I0J6350D01*
G37*
G36*
G01Y-3660D02*
Y15390D01*
G02X711600Y21740I6350J0D01*
G01X730250D01*
G02X742960Y22000I9530J-155086D01*
G02X749300Y15680I-132J-6473D01*
G01Y-3660D01*
G02X742950Y-10010I-6350J0D01*
G01X711600D01*
G02X705250Y-3660I0J6350D01*
G37*
G36*
G01X704850Y148740D02*
Y167790D01*
G02X711200Y174140I6350J0D01*
G01X742950D01*
G02X749300Y167790I0J-6350D01*
G01Y148740D01*
G02X742950Y142390I-6350J0D01*
G01X711200D01*
G02X704850Y148740I0J6350D01*
G37*
%LPC*%
G75*
G36*
G01X-10020Y11020D02*
X10020D01*
G02X11020Y10020I0J-1000D01*
G01Y-10020D01*
G02X10020Y-11020I-1000J0D01*
G01X-10020D01*
G02X-11020Y-10020I0J1000D01*
G01Y10020D01*
G02X-10020Y11020I1000J0D01*
G37*
G36*
G01X-35420D02*
X-15380D01*
G02X-14380Y10020I0J-1000D01*
G01Y-10020D01*
G02X-15380Y-11020I-1000J0D01*
G01X-35420D01*
G02X-36420Y-10020I0J1000D01*
G01Y10020D01*
G02X-35420Y11020I1000J0D01*
G37*
G36*
G01X-60820D02*
X-40780D01*
G02X-39780Y10020I0J-1000D01*
G01Y-10020D01*
G02X-40780Y-11020I-1000J0D01*
G01X-60820D01*
G02X-61820Y-10020I0J1000D01*
G01Y10020D01*
G02X-60820Y11020I1000J0D01*
G37*
G36*
G01X-10020Y239620D02*
X10020D01*
G02X11020Y238620I0J-1000D01*
G01Y218580D01*
G02X10020Y217580I-1000J0D01*
G01X-10020D01*
G02X-11020Y218580I0J1000D01*
G01Y238620D01*
G02X-10020Y239620I1000J0D01*
G37*
G36*
G01X-35420D02*
X-15380D01*
G02X-14380Y238620I0J-1000D01*
G01Y218580D01*
G02X-15380Y217580I-1000J0D01*
G01X-35420D01*
G02X-36420Y218580I0J1000D01*
G01Y238620D01*
G02X-35420Y239620I1000J0D01*
G37*
G36*
G01X-60820D02*
X-40780D01*
G02X-39780Y238620I0J-1000D01*
G01Y218580D01*
G02X-40780Y217580I-1000J0D01*
G01X-60820D01*
G02X-61820Y218580I0J1000D01*
G01Y238620D01*
G02X-60820Y239620I1000J0D01*
G37*
G36*
G01X112430Y-339580D02*
X132470D01*
G02X133470Y-340580I0J-1000D01*
G01Y-360620D01*
G02X132470Y-361620I-1000J0D01*
G01X112430D01*
G02X111430Y-360620I0J1000D01*
G01Y-340580D01*
G02X112430Y-339580I1000J0D01*
G37*
G36*
G01X-9770Y493620D02*
X9770D01*
G02X11020Y492370I0J-1250D01*
G01Y472830D01*
G02X9770Y471580I-1250J0D01*
G01X-9770D01*
G02X-11020Y472830I0J1250D01*
G01Y492370D01*
G02X-9770Y493620I1250J0D01*
G37*
G36*
G01X-35170D02*
X-15630D01*
G02X-14380Y492370I0J-1250D01*
G01Y472830D01*
G02X-15630Y471580I-1250J0D01*
G01X-35170D01*
G02X-36420Y472830I0J1250D01*
G01Y492370D01*
G02X-35170Y493620I1250J0D01*
G37*
G36*
G01X358530Y411070D02*
X378070D01*
G02X379320Y409820I0J-1250D01*
G01Y390280D01*
G02X378070Y389030I-1250J0D01*
G01X358530D01*
G02X357280Y390280I0J1250D01*
G01Y409820D01*
G02X358530Y411070I1250J0D01*
G37*
G54D26*
X0Y279400D03*
Y254000D03*
Y50800D03*
Y25400D03*
X-25400Y50800D03*
Y25400D03*
X-50800Y50800D03*
Y25400D03*
X0Y127000D03*
Y101600D03*
Y76200D03*
X-25400Y127000D03*
Y101600D03*
Y76200D03*
X-50800Y127000D03*
Y101600D03*
Y76200D03*
X0Y203200D03*
Y177800D03*
Y152400D03*
X-25400Y203200D03*
Y177800D03*
Y152400D03*
X-50800Y203200D03*
Y177800D03*
Y152400D03*
X-25400Y254000D03*
X-50800D03*
X-25400Y279400D03*
X-50800D03*
X147850Y-350600D03*
X0Y457200D03*
X-25400D03*
X0Y558800D03*
Y533400D03*
Y508000D03*
X-25400Y558800D03*
Y533400D03*
Y508000D03*
X0Y609600D03*
Y584200D03*
X-25400Y609600D03*
Y584200D03*
X393700Y400050D03*
G54D27*
X806450Y-1089510D03*
Y-1038710D03*
Y-987910D03*
Y-835510D03*
Y-784710D03*
Y-733910D03*
Y-581510D03*
Y-530710D03*
Y-479910D03*
%LPD*%
G75*
G54D10*
X-69850Y-1130300D03*
Y-990600D03*
Y-882650D03*
Y-749300D03*
Y-647700D03*
Y-533400D03*
Y-400050D03*
Y-298450D03*
Y-196850D03*
Y-19050D03*
Y95250D03*
Y177800D03*
Y266700D03*
Y330200D03*
X-19050Y-882650D03*
Y-749300D03*
Y-647700D03*
Y-533400D03*
Y-400050D03*
Y-298450D03*
Y-196850D03*
Y-57150D03*
X44450Y-1130300D03*
X50800Y-952500D03*
X57150Y-901700D03*
X50800Y-857250D03*
X19050D03*
X76200Y-863600D03*
Y-825500D03*
Y-749300D03*
X50800D03*
X76200Y-784710D03*
X50800Y-685800D03*
X19050Y-647700D03*
X50800Y-635000D03*
X76200Y-609600D03*
X19050Y-533400D03*
X50800D03*
X76200Y-571500D03*
Y-530710D03*
X19050Y-400050D03*
X50800D03*
X19050Y-298450D03*
X50800D03*
X19050Y-196850D03*
X50800D03*
Y-88900D03*
X19050Y-76200D03*
X63500Y-25400D03*
X25400Y-6350D03*
X63500Y57150D03*
X38100Y101600D03*
X25400Y69850D03*
X12700Y165100D03*
X63500D03*
Y190500D03*
X68000Y219000D03*
X63500Y266700D03*
Y241300D03*
X57150Y311150D03*
X63500Y469900D03*
X14000Y445000D03*
X63500Y444500D03*
Y495300D03*
Y546100D03*
Y520700D03*
Y596900D03*
Y571500D03*
Y622300D03*
X95250Y-996950D03*
X101600Y-952500D03*
X139700Y-996950D03*
X88900Y-927100D03*
X92300Y-884880D03*
X120650Y-806450D03*
X139700Y-768350D03*
X120650Y-742950D03*
X101600Y-784710D03*
X114300Y-704850D03*
X88900D03*
X120650Y-673100D03*
X82550D03*
X88900Y-730250D03*
X82550Y-654050D03*
X120650D03*
X92300Y-630880D03*
X120650Y-552450D03*
X101600Y-530710D03*
X114300Y-450850D03*
X88900D03*
X114300Y-501650D03*
X88900Y-476250D03*
X139700Y-514350D03*
X82550Y-400050D03*
Y-419100D03*
X120650D03*
X82550Y-298450D03*
X127000Y-285750D03*
X114300Y-196850D03*
X82550D03*
Y-101600D03*
X114300Y-63500D03*
X95250Y-38100D03*
Y50800D03*
X114300Y228600D03*
X88900Y292100D03*
X114300Y311150D03*
X88900Y622300D03*
X101600Y641350D03*
X139700D03*
X215900Y-1111250D03*
X152400Y-1130300D03*
X215900Y-1092200D03*
X184150Y-1098550D03*
X215000Y-1130000D03*
X152400Y-1022350D03*
X190500Y-1028700D03*
X196000Y-1074000D03*
X152400Y-1047750D03*
X171450Y-952500D03*
X203200Y-965200D03*
X188000Y-1000000D03*
X202000Y-982000D03*
X152400Y-971550D03*
X171450Y-927100D03*
X158750Y-889000D03*
X190500Y-882650D03*
X215900Y-914400D03*
Y-869950D03*
Y-850900D03*
X196850Y-819150D03*
X163200Y-828600D03*
X215900Y-742950D03*
X196850Y-755650D03*
X190500Y-793750D03*
X203200Y-711200D03*
X207200Y-688600D03*
X209550Y-660400D03*
X158750D03*
X171450Y-730250D03*
X165100Y-717550D03*
X203200Y-723900D03*
X158750Y-635000D03*
X190500Y-628650D03*
X215900Y-615950D03*
Y-596900D03*
X190500Y-539750D03*
X163200Y-574600D03*
X196850Y-565150D03*
X171450Y-476250D03*
X196850Y-501650D03*
X203200Y-469900D03*
X215900Y-488950D03*
X203200Y-457200D03*
X209550Y-406400D03*
X158750D03*
X207200Y-434600D03*
X177800Y-336550D03*
X184150Y-203200D03*
X203200Y-127000D03*
X184150Y-146050D03*
X203200Y6350D03*
X177800Y438150D03*
X190500Y463550D03*
X203200Y488950D03*
X222250Y520700D03*
Y641350D03*
X266000Y-1130000D03*
X266700Y-1102210D03*
X247650Y-1085850D03*
Y-1073150D03*
Y-996950D03*
Y-968860D03*
X266700Y-956160D03*
X247650Y-908050D03*
Y-844550D03*
Y-825500D03*
Y-869950D03*
X266700Y-857250D03*
X247650Y-742950D03*
X234950Y-793750D03*
X247650Y-666750D03*
Y-714860D03*
X266700Y-679450D03*
X247650Y-615950D03*
Y-590550D03*
X266700Y-603250D03*
X234950Y-539750D03*
X247650Y-571500D03*
Y-488950D03*
Y-460860D03*
Y-406400D03*
X266700Y-425450D03*
X263150Y-197400D03*
X241300Y-203200D03*
Y-165100D03*
Y-127000D03*
X263150Y-45000D03*
X241300Y-50800D03*
Y-12700D03*
Y25400D03*
X262750Y107400D03*
X241300Y101600D03*
Y139700D03*
Y177800D03*
Y304800D03*
Y387350D03*
X279400D03*
X241300Y469900D03*
X279400D03*
X356450Y-1131960D03*
X355600Y-1108560D03*
X356450Y-931960D03*
Y-877960D03*
X355600Y-854560D03*
X356450Y-677960D03*
X355600Y-600560D03*
X356450Y-623960D03*
Y-423960D03*
X366000Y-157210D03*
Y-129510D03*
Y-4810D03*
Y22890D03*
Y147590D03*
Y175290D03*
X311150Y304800D03*
X298450Y520700D03*
X349250Y527050D03*
X304800Y546100D03*
X349250Y488950D03*
Y552450D03*
X323850Y622300D03*
X317500Y596900D03*
X349250Y603250D03*
X311150Y571500D03*
X349250Y577850D03*
Y641350D03*
X388450Y-1097960D03*
X419100Y-1098550D03*
X418780Y-1134390D03*
X387350Y-1114910D03*
X381000Y-1045060D03*
X419100Y-1073150D03*
X381000Y-1019660D03*
X419100Y-956160D03*
X370450Y-957960D03*
X419100Y-975210D03*
X416450Y-931960D03*
X425450Y-879960D03*
X406400Y-943460D03*
X387350Y-860910D03*
X419100Y-835510D03*
X388450Y-844110D03*
X381000Y-791060D03*
X425450Y-740260D03*
X438150Y-791060D03*
X381000Y-765660D03*
X406400Y-689460D03*
X425450Y-708510D03*
X406400Y-702160D03*
X416450Y-676960D03*
X372450Y-703960D03*
X387350Y-606910D03*
X388450Y-590110D03*
X425450Y-625960D03*
X419100Y-581510D03*
X438150Y-537060D03*
X381000D03*
X425450Y-454510D03*
X406400Y-448160D03*
X425450Y-486260D03*
X372450Y-449960D03*
X381000Y-511660D03*
X406400Y-435460D03*
X416450Y-422960D03*
X387350Y304800D03*
X431800D03*
X368300Y476250D03*
X393700Y488950D03*
X431800Y641350D03*
X450850Y-1102210D03*
X488950Y-1140310D03*
X450850Y-1133960D03*
X445000Y-1045000D03*
X488950Y-1051410D03*
X450850Y-1019660D03*
X488950Y-1013310D03*
X450850Y-994260D03*
X488950Y-937110D03*
X476250Y-886310D03*
X450850Y-848210D03*
X469900Y-822810D03*
X508000Y-803760D03*
X488950Y-867260D03*
X476250Y-733910D03*
X508000Y-765660D03*
X476250Y-759310D03*
X450850Y-765660D03*
X476250Y-708510D03*
Y-683110D03*
X488950Y-613260D03*
X450850Y-594210D03*
X476250Y-632310D03*
X508000Y-549760D03*
X469900Y-568810D03*
X508000Y-511660D03*
X476250Y-505310D03*
X450850Y-511660D03*
X476250Y-479910D03*
Y-454510D03*
Y-429110D03*
X478950Y311150D03*
X450850Y336550D03*
Y387350D03*
Y469900D03*
X482600Y488950D03*
X444500Y539750D03*
X450850Y609600D03*
X478950Y635000D03*
X539750Y-1140310D03*
Y-1076810D03*
Y-987910D03*
Y-937110D03*
X533400Y-886310D03*
Y-822810D03*
Y-854560D03*
Y-784710D03*
Y-752960D03*
Y-708510D03*
Y-683110D03*
Y-632310D03*
Y-600560D03*
Y-530710D03*
Y-568810D03*
Y-454510D03*
Y-498960D03*
Y-429110D03*
X609600Y-1140310D03*
Y-1114910D03*
Y-1076810D03*
Y-987910D03*
Y-937110D03*
X647700Y-886310D03*
X609600D03*
X647700Y-822810D03*
X609600D03*
Y-860910D03*
X647700Y-752960D03*
X609600Y-784710D03*
Y-759310D03*
X647700Y-683110D03*
X609600Y-727560D03*
Y-683110D03*
X647700Y-632310D03*
X609600D03*
Y-606910D03*
X647700Y-568810D03*
X609600Y-530710D03*
Y-568810D03*
X647700Y-498960D03*
X609600Y-505310D03*
Y-473560D03*
X647700Y-429110D03*
X609600D03*
X685800Y-1133960D03*
Y-1121260D03*
X723900Y-1095860D03*
X685800Y-1057760D03*
Y-1070460D03*
X723900Y-1038710D03*
X685800Y-1019660D03*
Y-1006960D03*
Y-956160D03*
X723900Y-981560D03*
X685800Y-943460D03*
Y-879960D03*
Y-803760D03*
Y-816460D03*
X723900Y-841860D03*
X685800Y-867260D03*
X723900Y-784710D03*
X685800Y-765660D03*
Y-752960D03*
X723900Y-727560D03*
X685800Y-702160D03*
Y-689460D03*
X723900Y-587860D03*
X685800Y-613260D03*
Y-625960D03*
X723900Y-530710D03*
X685800Y-549760D03*
Y-562460D03*
X723900Y-473560D03*
X685800Y-511660D03*
Y-448160D03*
Y-498960D03*
Y-435460D03*
X781050Y-1114910D03*
Y-1064110D03*
Y-1013310D03*
Y-962510D03*
Y-810110D03*
Y-860910D03*
Y-759310D03*
Y-708510D03*
Y-606910D03*
Y-556110D03*
Y-454510D03*
Y-505310D03*
X825500Y-810110D03*
Y-860910D03*
Y-759310D03*
Y-708510D03*
Y-606910D03*
Y-556110D03*
Y-505310D03*
Y-454510D03*
G54D20*
X806450Y-1089510D03*
Y-1140310D03*
Y-1038710D03*
Y-937110D03*
Y-987910D03*
Y-886310D03*
Y-835510D03*
Y-733910D03*
Y-784710D03*
Y-683110D03*
Y-581510D03*
Y-632310D03*
Y-530710D03*
Y-479910D03*
Y-429110D03*
Y-16360D03*
Y-67160D03*
Y34440D03*
Y136040D03*
Y85240D03*
Y186840D03*
Y237640D03*
Y339240D03*
Y288440D03*
Y390040D03*
Y491640D03*
Y440840D03*
Y542440D03*
Y593240D03*
Y644040D03*
G54D11*
X-76200Y-50800D03*
Y838200D03*
G54D21*
X889200Y-1384300D03*
Y838200D03*
G54D12*
G01X0Y330200D02*
X107950D01*
G02X133350Y304800I0J-25400D01*
G01Y-264070D01*
G03X135210Y-268560I6350J0D01*
G01X264840Y-398190D01*
G02X266700Y-402690I-4514J-4500D01*
G01Y-425450D01*
G01X19050Y660400D02*
X0D01*
G01X-25400D02*
X-50800D01*
G01X0D02*
X-25400D01*
G01X266700Y-1102210D02*
Y-956160D01*
G01D02*
Y-857250D01*
G01Y-679450D02*
Y-857250D01*
G01Y-679450D02*
Y-603250D01*
G01D02*
Y-425450D01*
G01X332250Y-98910D02*
Y-187810D01*
G01X366000Y-157210D02*
X381000D01*
G01Y-129510D02*
X366000D01*
G01X332250Y53490D02*
Y-35410D01*
G01X366000Y-4810D02*
X381000D01*
G01Y22890D02*
X366000D01*
G01X331850Y205890D02*
Y116990D01*
G01X366000Y147590D02*
X379350D01*
G01X366000Y175290D02*
X379350D01*
G01X381000Y-157210D02*
X397360D01*
G02X419500Y-166380I1J-31310D01*
G01X379750Y-187810D02*
Y-158460D01*
X381000Y-157210D01*
G01X510050Y-187810D02*
X432200D01*
G02X419500Y-175110I0J12700D01*
G01Y-166380D01*
G01X381000Y-129510D02*
X397360D01*
G03X419500Y-120340I1J31310D01*
G01X379750Y-98910D02*
Y-128260D01*
X381000Y-129510D01*
G01X510050Y-98910D02*
X432200D01*
G03X419500Y-111610I0J-12700D01*
G01Y-120340D01*
G01X381000Y-4810D02*
X397360D01*
G02X419500Y-13980I1J-31310D01*
G01X379750Y-35410D02*
Y-6060D01*
X381000Y-4810D01*
G01X510050Y-35410D02*
X432200D01*
G02X419500Y-22710I0J12700D01*
G01Y-13980D01*
G01X381000Y22890D02*
X397360D01*
G03X419500Y32060I1J31310D01*
G01X379750Y53490D02*
Y24140D01*
X381000Y22890D01*
G01X510050Y53490D02*
X432200D01*
G03X419500Y40790I0J-12700D01*
G01Y32060D01*
G01X379350Y116990D02*
Y147590D01*
G01X509650Y116990D02*
X431800D01*
G02X419100Y129690I0J12700D01*
G01Y138420D01*
G01X381000Y147590D02*
X396960D01*
G02X419100Y138420I1J-31310D01*
G01X379350Y147590D02*
X381000D01*
G01Y175290D02*
X396960D01*
G03X419100Y184460I1J31310D01*
G01X379350Y205890D02*
Y175290D01*
G01D02*
X381000D01*
G01X509650Y205890D02*
X431800D01*
G03X419100Y193190I0J-12700D01*
G01Y184460D01*
G01X597300Y-187810D02*
X557550D01*
G01Y-98910D02*
X597300D01*
G01Y-35410D02*
X557550D01*
G01Y53490D02*
X597300D01*
G01X596900Y116990D02*
X557150D01*
G01Y205890D02*
X596900D01*
G01X628650Y-156060D02*
G02X613320Y-162410I-15330J15330D01*
G01X597300D01*
G01X637050Y-187810D02*
X597300D01*
G01X637050Y-35410D02*
X597300D01*
G01X628650Y-3660D02*
G02X613320Y-10010I-15330J15330D01*
G01X597300D01*
G01X636650Y116990D02*
X596900D01*
G01X628650Y148740D02*
G02X613320Y142390I-15330J15330D01*
G01X596900D01*
G01X684550Y-187810D02*
X713250D01*
G01X723900Y-143360D02*
X728300Y-147770D01*
G01X684550Y-35410D02*
X713250D01*
G01X723900Y9040D02*
X728300Y4630D01*
G01X684150Y116990D02*
X712850D01*
G01X723500Y161440D02*
X727900Y157030D01*
G01X728300Y-147770D02*
G02X737000Y-168760I-20987J-20997D01*
G01Y-175110D01*
G03X749700Y-187810I12700J0D01*
G01X760750D01*
G01X755650Y-92560D02*
X765720D01*
G03X781050Y-86210I0J21680D01*
G01X795610Y-71650D01*
G02X806450Y-67160I10840J-10840D01*
G01X728300Y4630D02*
G02X737000Y-16360I-20987J-20997D01*
G01Y-22710D01*
G03X749700Y-35410I12700J0D01*
G01X760750D01*
G01X755650Y40790D02*
G03X770980Y34440I15330J15330D01*
G01X806450D01*
G01X727900Y157030D02*
G02X736600Y136040I-20987J-20997D01*
G01Y129690D01*
G03X749300Y116990I12700J0D01*
G01X760350D01*
G01X755650Y193190D02*
X770210Y178630D01*
G02X774700Y167790I-10840J-10840D01*
G03X779190Y156950I15330J0D01*
G01X795610Y140530D01*
G03X806450Y136040I10840J10840D01*
X-10800Y-1393350D03*
Y846650D03*
X809200Y-1393350D03*
Y846650D03*
G54D22*
G01X387350Y-1114910D02*
X357460Y-1085020D01*
G02X355600Y-1080530I4490J4490D01*
G01Y-958790D01*
G02X357460Y-954300I6350J0D01*
G01X366440Y-945320D01*
G02X370930Y-943460I4490J-4490D01*
G01X406400D01*
G01X387350Y-860910D02*
X357460Y-831020D01*
G02X355600Y-826530I4490J4490D01*
G01Y-704790D01*
G02X357460Y-700300I6350J0D01*
G01X366440Y-691320D01*
G02X370930Y-689460I4490J-4490D01*
G01X406400D01*
G01X387350Y-606910D02*
X357460Y-577020D01*
G02X355600Y-572530I4490J4490D01*
G01Y-450790D01*
G02X357460Y-446300I6350J0D01*
G01X366440Y-437320D01*
G02X370930Y-435460I4490J-4490D01*
G01X406400D01*
G01X557550Y-118180D02*
Y-98910D01*
G01X545780D02*
X557550D01*
G01Y34220D02*
Y53490D01*
G01X545780D02*
X557550D01*
G01X557150Y186620D02*
Y205890D01*
G01X545380D02*
X557150D01*
G54D13*
X-50800Y0D03*
X-25400D03*
X0D03*
X-50800Y228600D03*
X-25400D03*
X0D03*
X-50800Y482600D03*
X-25400D03*
X0D03*
X-50800Y736600D03*
X-25400D03*
X0D03*
X122450Y-350600D03*
X368300Y400050D03*
X597300Y-162410D03*
Y-124310D03*
Y-10010D03*
Y28090D03*
X596900Y142390D03*
Y180490D03*
G54D23*
G01X0Y330200D02*
X-10840Y319360D01*
G02X-15330Y317500I-4490J4490D01*
G01X-35470D01*
G02X-39960Y319360I0J6350D01*
G01X-50800Y330200D01*
G01D02*
X-39960Y341040D01*
G02X-35470Y342900I4490J-4490D01*
G01X-15330D01*
G02X-10840Y341040I0J-6350D01*
G01X0Y330200D01*
G54D14*
X-50800Y25400D03*
Y50800D03*
X-25400Y25400D03*
Y50800D03*
X0Y25400D03*
Y50800D03*
X-50800Y76200D03*
Y101600D03*
Y127000D03*
X-25400Y76200D03*
Y101600D03*
Y127000D03*
X0Y76200D03*
Y101600D03*
Y127000D03*
X-50800Y152400D03*
Y177800D03*
Y203200D03*
X-25400Y152400D03*
Y177800D03*
Y203200D03*
X0Y152400D03*
Y177800D03*
Y203200D03*
X-50800Y254000D03*
X-25400D03*
X0D03*
X-50800Y279400D03*
Y304800D03*
Y330200D03*
X-25400Y279400D03*
Y304800D03*
Y330200D03*
X0Y279400D03*
Y304800D03*
Y330200D03*
X-50800Y355600D03*
Y381000D03*
Y406400D03*
X-25400Y355600D03*
Y381000D03*
Y406400D03*
X0Y355600D03*
Y381000D03*
Y406400D03*
X-50800Y431800D03*
Y457200D03*
X-25400Y431800D03*
Y457200D03*
X0Y431800D03*
Y457200D03*
X-50800Y508000D03*
Y533400D03*
Y558800D03*
X-25400Y508000D03*
Y533400D03*
Y558800D03*
X0Y508000D03*
Y533400D03*
Y558800D03*
X-50800Y584200D03*
Y609600D03*
Y635000D03*
X-25400Y584200D03*
Y609600D03*
Y635000D03*
X0Y584200D03*
Y609600D03*
Y635000D03*
X-50800Y660400D03*
Y685800D03*
X-25400Y660400D03*
Y685800D03*
X0Y660400D03*
Y685800D03*
X-50800Y711200D03*
Y762000D03*
X-25400Y711200D03*
Y762000D03*
X0Y711200D03*
Y762000D03*
X-50800Y787400D03*
X-25400D03*
X0D03*
X147850Y-350600D03*
X393700Y400050D03*
X470700Y-143360D03*
Y9040D03*
X470300Y161440D03*
X520700Y-143360D03*
Y9040D03*
X520300Y161440D03*
X558500Y339240D03*
Y440840D03*
Y542440D03*
Y644040D03*
X597300Y-187810D03*
Y-98910D03*
Y-35410D03*
Y53490D03*
X596900Y116990D03*
Y205890D03*
X609300Y339240D03*
X634700D03*
Y288440D03*
X609300D03*
X634700Y390040D03*
X609300D03*
Y440840D03*
X634700D03*
Y491640D03*
X609300D03*
Y542440D03*
X634700D03*
Y593240D03*
X609300D03*
Y644040D03*
X634700D03*
X673900Y-143360D03*
X723900D03*
X673900Y9040D03*
X723900D03*
X673500Y161440D03*
X723500D03*
X660100Y339240D03*
Y288440D03*
Y390040D03*
Y440840D03*
Y491640D03*
Y542440D03*
Y593240D03*
Y644040D03*
G54D24*
G01X786930Y-1038710D02*
X806450D01*
G01Y-1058230D02*
Y-1038710D01*
G01D02*
Y-1019190D01*
G01Y-1038710D02*
X825970D01*
G54D15*
X332250Y-187810D03*
Y-98910D03*
Y-35410D03*
Y53490D03*
X331850Y116990D03*
Y205890D03*
X379750Y-187810D03*
Y-98910D03*
Y-35410D03*
Y53490D03*
X379350Y116990D03*
Y205890D03*
X510050Y-187810D03*
Y-98910D03*
Y-35410D03*
Y53490D03*
X509650Y116990D03*
Y205890D03*
X557550Y-187810D03*
Y-98910D03*
Y-35410D03*
Y53490D03*
X557150Y116990D03*
Y205890D03*
X637050Y-187810D03*
Y-35410D03*
X636650Y116990D03*
X713250Y-187810D03*
X684550D03*
X713250Y-35410D03*
X684550D03*
X684150Y116990D03*
X712850D03*
X760750Y-187810D03*
Y-35410D03*
X760350Y116990D03*
G54D25*
G01X-50800Y292780D02*
Y304800D01*
G01D02*
Y316820D01*
G01X-62820Y304800D02*
X-50800D01*
G01D02*
X-38780D01*
G01X0Y292780D02*
Y304800D01*
G01D02*
Y316820D01*
G01X-12020Y304800D02*
X0D01*
G01D02*
X12020D01*
G01X-35330Y447270D02*
X-25400Y457200D01*
G01D02*
X-15470Y467130D01*
G01X-37670Y470330D02*
X-25400Y482600D01*
G01D02*
X-13130Y494870D01*
G01X-35330Y498070D02*
X-25400Y508000D01*
G01D02*
X-15470Y517930D01*
G01X-35330Y523470D02*
X-25400Y533400D01*
G01D02*
X-15470Y543330D01*
G01X-35330Y548870D02*
X-25400Y558800D01*
G01X-60730Y625070D02*
X-50800Y635000D01*
G01X-35330Y574270D02*
X-25400Y584200D01*
G01D02*
X-15470Y594130D01*
G01X-35330Y599670D02*
X-25400Y609600D01*
G01D02*
X-15470Y619530D01*
G01X-35330Y625070D02*
X-25400Y635000D01*
G01X-9930Y625070D02*
X0Y635000D01*
G01X-25400Y558800D02*
X-15470Y568730D01*
G01X-50800Y635000D02*
X-40870Y644930D01*
G01X-25400Y635000D02*
X-15470Y644930D01*
G01X0Y635000D02*
X12270D01*
G01X122450Y-362620D02*
Y-350600D01*
G01D02*
Y-338580D01*
G01X110430Y-350600D02*
X122450D01*
G01D02*
X134470D01*
G01X147850Y-362620D02*
Y-350600D01*
G01D02*
Y-338580D01*
G01X135830Y-350600D02*
X147850D01*
G01D02*
X159870D01*
G01X356030Y400050D02*
X368300D01*
G01X393700Y387780D02*
Y400050D01*
G01D02*
Y412320D01*
G01Y400050D02*
X405970D01*
G01X368300Y387780D02*
Y400050D01*
G01D02*
Y412320D01*
G01X558500Y276420D02*
Y288440D01*
G01D02*
Y300460D01*
G01X546480Y288440D02*
X558500D01*
G01Y378020D02*
Y390040D01*
G01D02*
Y402060D01*
G01X546480Y390040D02*
X558500D01*
G01Y479620D02*
Y491640D01*
G01D02*
Y503660D01*
G01X546480Y491640D02*
X558500D01*
G01Y581220D02*
Y593240D01*
G01D02*
Y605260D01*
G01X546480Y593240D02*
X558500D01*
G01X786930Y-784710D02*
X806450D01*
G01X786930Y-530710D02*
X806450D01*
G01Y-804230D02*
Y-784710D01*
G01D02*
Y-765190D01*
G01Y-784710D02*
X825970D01*
G01X806450Y-550230D02*
Y-530710D01*
G01D02*
Y-511190D01*
G01Y-530710D02*
X825970D01*
G54D16*
X419500Y-166380D03*
Y-120340D03*
Y-13980D03*
Y32060D03*
X419100Y184460D03*
Y138420D03*
G54D17*
X381000Y-157210D03*
Y-129510D03*
Y22890D03*
Y-4810D03*
Y175290D03*
Y147590D03*
G54D18*
X558500Y288440D03*
Y390040D03*
Y491640D03*
Y593240D03*
G54D19*
X806450Y-1191110D03*
Y-117960D03*
M02*
