G04 ================== begin FILE IDENTIFICATION RECORD ==================*
G04 Layout Name:  D:/Project/Circuit/KVP/03v5/pcb/kvp_03v5.brd*
G04 Film Name:    MASK_BOT*
G04 File Format:  Gerber RS274X*
G04 File Origin:  Cadence Allegro 16.6-2015-S073*
G04 Origin Date:  Wed Aug 02 15:36:11 2017*
G04 *
G04 Layer:  VIA CLASS/SOLDERMASK_BOTTOM*
G04 Layer:  PIN/SOLDERMASK_BOTTOM*
G04 Layer:  PACKAGE GEOMETRY/SOLDERMASK_BOTTOM*
G04 *
G04 Offset:    (0.000 0.000)*
G04 Mirror:    No*
G04 Mode:      Positive*
G04 Rotation:  0*
G04 FullContactRelief:  No*
G04 UndefLineWidth:     0.000*
G04 ================== end FILE IDENTIFICATION RECORD ====================*
%FSLAX34Y34*MOMM*%
%IR0*IPPOS*OFA0.00000B0.00000*MIA0B0*SFA1.00000B1.00000*%
%ADD11C,3.*%
%ADD10C,4.2*%
%ADD19C,2.7*%
%ADD20C,2.8*%
%ADD13C,1.9*%
%ADD18R,2.7X2.7*%
%ADD12R,1.9X1.9*%
%ADD16R,2.X1.6*%
%ADD15R,2.5X2.*%
%ADD14R,1.4X2.9*%
%ADD17R,1.9X1.9*%
%LPD*%
G75*
G54D10*
X-76200Y-50800D03*
Y838200D03*
G54D20*
X889200Y-1384300D03*
Y838200D03*
G54D11*
X-10800Y-1393350D03*
Y846650D03*
X809200Y-1393350D03*
Y846650D03*
G54D12*
X-50800Y0D03*
X-25400D03*
X0D03*
X-50800Y228600D03*
X-25400D03*
X0D03*
X-50800Y482600D03*
X-25400D03*
X0D03*
X-50800Y736600D03*
X-25400D03*
X0D03*
X122450Y-350600D03*
X368300Y400050D03*
X597300Y-162410D03*
Y-124310D03*
Y-10010D03*
Y28090D03*
X596900Y142390D03*
Y180490D03*
G54D13*
X-50800Y25400D03*
Y50800D03*
X-25400Y25400D03*
Y50800D03*
X0Y25400D03*
Y50800D03*
X-50800Y76200D03*
Y101600D03*
Y127000D03*
X-25400Y76200D03*
Y101600D03*
Y127000D03*
X0Y76200D03*
Y101600D03*
Y127000D03*
X-50800Y152400D03*
Y177800D03*
Y203200D03*
X-25400Y152400D03*
Y177800D03*
Y203200D03*
X0Y152400D03*
Y177800D03*
Y203200D03*
X-50800Y254000D03*
X-25400D03*
X0D03*
X-50800Y279400D03*
Y304800D03*
Y330200D03*
X-25400Y279400D03*
Y304800D03*
Y330200D03*
X0Y279400D03*
Y304800D03*
Y330200D03*
X-50800Y355600D03*
Y381000D03*
Y406400D03*
X-25400Y355600D03*
Y381000D03*
Y406400D03*
X0Y355600D03*
Y381000D03*
Y406400D03*
X-50800Y431800D03*
Y457200D03*
X-25400Y431800D03*
Y457200D03*
X0Y431800D03*
Y457200D03*
X-50800Y508000D03*
Y533400D03*
Y558800D03*
X-25400Y508000D03*
Y533400D03*
Y558800D03*
X0Y508000D03*
Y533400D03*
Y558800D03*
X-50800Y584200D03*
Y609600D03*
Y635000D03*
X-25400Y584200D03*
Y609600D03*
Y635000D03*
X0Y584200D03*
Y609600D03*
Y635000D03*
X-50800Y660400D03*
Y685800D03*
X-25400Y660400D03*
Y685800D03*
X0Y660400D03*
Y685800D03*
X-50800Y711200D03*
Y762000D03*
X-25400Y711200D03*
Y762000D03*
X0Y711200D03*
Y762000D03*
X-50800Y787400D03*
X-25400D03*
X0D03*
X147850Y-350600D03*
X393700Y400050D03*
X470700Y-143360D03*
Y9040D03*
X470300Y161440D03*
X520700Y-143360D03*
Y9040D03*
X520300Y161440D03*
X558500Y339240D03*
Y440840D03*
Y542440D03*
Y644040D03*
X597300Y-187810D03*
Y-98910D03*
Y-35410D03*
Y53490D03*
X596900Y116990D03*
Y205890D03*
X609300Y339240D03*
X634700D03*
Y288440D03*
X609300D03*
X634700Y390040D03*
X609300D03*
Y440840D03*
X634700D03*
Y491640D03*
X609300D03*
Y542440D03*
X634700D03*
Y593240D03*
X609300D03*
Y644040D03*
X634700D03*
X673900Y-143360D03*
X723900D03*
X673900Y9040D03*
X723900D03*
X673500Y161440D03*
X723500D03*
X660100Y339240D03*
Y288440D03*
Y390040D03*
Y440840D03*
Y491640D03*
Y542440D03*
Y593240D03*
Y644040D03*
G54D14*
X332250Y-187810D03*
Y-98910D03*
Y-35410D03*
Y53490D03*
X331850Y116990D03*
Y205890D03*
X379750Y-187810D03*
Y-98910D03*
Y-35410D03*
Y53490D03*
X379350Y116990D03*
Y205890D03*
X510050Y-187810D03*
Y-98910D03*
Y-35410D03*
Y53490D03*
X509650Y116990D03*
Y205890D03*
X557550Y-187810D03*
Y-98910D03*
Y-35410D03*
Y53490D03*
X557150Y116990D03*
Y205890D03*
X637050Y-187810D03*
Y-35410D03*
X636650Y116990D03*
X713250Y-187810D03*
X684550D03*
X713250Y-35410D03*
X684550D03*
X684150Y116990D03*
X712850D03*
X760750Y-187810D03*
Y-35410D03*
X760350Y116990D03*
G54D15*
X419500Y-166380D03*
Y-120340D03*
Y-13980D03*
Y32060D03*
X419100Y184460D03*
Y138420D03*
G54D16*
X381000Y-157210D03*
Y-129510D03*
Y22890D03*
Y-4810D03*
Y175290D03*
Y147590D03*
G54D17*
X558500Y288440D03*
Y390040D03*
Y491640D03*
Y593240D03*
G54D18*
X806450Y-1191110D03*
Y-117960D03*
G54D19*
Y-1089510D03*
Y-1140310D03*
Y-1038710D03*
Y-937110D03*
Y-987910D03*
Y-886310D03*
Y-835510D03*
Y-733910D03*
Y-784710D03*
Y-683110D03*
Y-581510D03*
Y-632310D03*
Y-530710D03*
Y-479910D03*
Y-429110D03*
Y-16360D03*
Y-67160D03*
Y34440D03*
Y136040D03*
Y85240D03*
Y186840D03*
Y237640D03*
Y339240D03*
Y288440D03*
Y390040D03*
Y491640D03*
Y440840D03*
Y542440D03*
Y593240D03*
Y644040D03*
M02*
