G04 ================== begin FILE IDENTIFICATION RECORD ==================*
G04 Layout Name:  D:/Project/Circuit/KVP/03v5/pcb/kvp_03v5.brd*
G04 Film Name:    SILK_BOT*
G04 File Format:  Gerber RS274X*
G04 File Origin:  Cadence Allegro 16.6-2015-S073*
G04 Origin Date:  Wed Aug 02 15:36:11 2017*
G04 *
G04 Layer:  MANUFACTURING/AUTOSILK_BOTTOM*
G04 *
G04 Offset:    (0.000 0.000)*
G04 Mirror:    No*
G04 Mode:      Positive*
G04 Rotation:  0*
G04 FullContactRelief:  No*
G04 UndefLineWidth:     0.200*
G04 ================== end FILE IDENTIFICATION RECORD ====================*
%FSLAX34Y34*MOMM*%
%IR0*IPPOS*OFA0.00000B0.00000*MIA0B0*SFA1.00000B1.00000*%
%ADD10C,.2*%
%ADD11C,.15*%
G75*
%LPD*%
G75*
G54D10*
G01X225850Y816400D02*
Y758400D01*
X167850D01*
Y816400D01*
X225850D01*
G01X167850Y770400D02*
X225850D01*
G01X167850Y768400D02*
X225850D01*
G01X167850Y766400D02*
X225850D01*
G01X167850Y764400D02*
X225850D01*
G01X167850Y762400D02*
X225850D01*
G01X167850Y760400D02*
X225850D01*
G01X167850Y814400D02*
X225850D01*
G01X167850Y812400D02*
X225850D01*
G01X167850Y810400D02*
X225850D01*
G01X167850Y808400D02*
X225850D01*
G01X167850Y806400D02*
X225850D01*
G01X167850Y804400D02*
X225850D01*
G01X167850Y802400D02*
X225850D01*
G01X167850Y800400D02*
X225850D01*
G01X167850Y798400D02*
X225850D01*
G01X167850Y796400D02*
X225850D01*
G01X167850Y794400D02*
X225850D01*
G01X167850Y792400D02*
X225850D01*
G01X167850Y790400D02*
X225850D01*
G01X167850Y788400D02*
X225850D01*
G01X167850Y786400D02*
X225850D01*
G01X167850Y784400D02*
X225850D01*
G01X167850Y782400D02*
X225850D01*
G01X167850Y780400D02*
X225850D01*
G01X167850Y778400D02*
X225850D01*
G01X167850Y776400D02*
X225850D01*
G01X167850Y774400D02*
X225850D01*
G01X167850Y772400D02*
X225850D01*
G01X389000Y-204810D02*
X323000D01*
Y-170810D01*
X389000D01*
Y-204810D01*
G01X323000Y-81910D02*
X389000D01*
Y-115910D01*
X323000D01*
Y-81910D01*
G01X389000Y-52410D02*
X323000D01*
Y-18410D01*
X389000D01*
Y-52410D01*
G01X323000Y70490D02*
X389000D01*
Y36490D01*
X323000D01*
Y70490D01*
G01X388600Y99990D02*
X322600D01*
Y133990D01*
X388600D01*
Y99990D01*
G01X322600Y222890D02*
X388600D01*
Y188890D01*
X322600D01*
Y222890D01*
G01X436500Y-178860D02*
Y-107860D01*
X401500D01*
Y-178860D01*
X436500D01*
G01X369000Y-119360D02*
X393000D01*
Y-167360D01*
X369000D01*
Y-119360D01*
G01X424500Y-99360D02*
X414500D01*
G01X419500Y-104360D02*
Y-94360D01*
G01X436500Y-26460D02*
Y44540D01*
X401500D01*
Y-26460D01*
X436500D01*
G01X424500Y53040D02*
X414500D01*
G01X419500Y48040D02*
Y58040D01*
G01X369000Y33040D02*
X393000D01*
Y-14960D01*
X369000D01*
Y33040D01*
G01X436100Y125940D02*
Y196940D01*
X401100D01*
Y125940D01*
X436100D01*
G01X369000Y185440D02*
X393000D01*
Y137440D01*
X369000D01*
Y185440D01*
G01X424100Y205440D02*
X414100D01*
G01X419100Y200440D02*
Y210440D01*
G01X566800Y-204810D02*
X500800D01*
Y-170810D01*
X566800D01*
Y-204810D01*
G01Y-115910D02*
X500800D01*
Y-81910D01*
X566800D01*
Y-115910D01*
G01Y-52410D02*
X500800D01*
Y-18410D01*
X566800D01*
Y-52410D01*
G01Y36490D02*
X500800D01*
Y70490D01*
X566800D01*
Y36490D01*
G01X566400Y99990D02*
X500400D01*
Y133990D01*
X566400D01*
Y99990D01*
G01Y188890D02*
X500400D01*
Y222890D01*
X566400D01*
Y188890D01*
G01X693800Y-204810D02*
X627800D01*
Y-170810D01*
X693800D01*
Y-204810D01*
G01Y-52410D02*
X627800D01*
Y-18410D01*
X693800D01*
Y-52410D01*
G01X693400Y99990D02*
X627400D01*
Y133990D01*
X693400D01*
Y99990D01*
G01X770000Y-204810D02*
X704000D01*
Y-170810D01*
X770000D01*
Y-204810D01*
G01Y-52410D02*
X704000D01*
Y-18410D01*
X770000D01*
Y-52410D01*
G01X769600Y99990D02*
X703600D01*
Y133990D01*
X769600D01*
Y99990D01*
G54D11*
G01X317610Y-211810D02*
Y-199110D01*
X313590D01*
X312300Y-199750D01*
X311500Y-200590D01*
X311180Y-202290D01*
X311500Y-203980D01*
X312460Y-205040D01*
X313590Y-205670D01*
X317610D01*
G01X313590D02*
X311180Y-211810D01*
G01X304500Y-206520D02*
X303380Y-205040D01*
X302410Y-204190D01*
X301120Y-203770D01*
X300000Y-204190D01*
X299190Y-205040D01*
X298550Y-206310D01*
X298390Y-207790D01*
X298550Y-209060D01*
X299190Y-210330D01*
X300160Y-211390D01*
X301280Y-211810D01*
X302570Y-211390D01*
X303700Y-210120D01*
X304340Y-208210D01*
X304500Y-206100D01*
X304180Y-203340D01*
X303700Y-201860D01*
X302890Y-200380D01*
X301770Y-199320D01*
X300640Y-199110D01*
X299510Y-199530D01*
X298710Y-200590D01*
G01X288500Y-211810D02*
Y-199110D01*
X290430Y-201650D01*
G01Y-211810D02*
X286570D01*
G01X317610Y-56810D02*
Y-44110D01*
X313590D01*
X312300Y-44750D01*
X311500Y-45590D01*
X311180Y-47290D01*
X311500Y-48980D01*
X312460Y-50040D01*
X313590Y-50670D01*
X317610D01*
G01X313590D02*
X311180Y-56810D01*
G01X304980Y-54910D02*
X304020Y-55960D01*
X302890Y-56600D01*
X301450Y-56810D01*
X300000Y-56390D01*
X298870Y-55540D01*
X298070Y-54060D01*
X297910Y-52370D01*
X298230Y-50670D01*
X299030Y-49610D01*
X300160Y-48770D01*
X301280Y-48560D01*
X302410Y-48770D01*
X303860Y-49610D01*
X303380Y-44110D01*
X299030D01*
G01X292030Y-54270D02*
X291070Y-55750D01*
X289780Y-56600D01*
X288330Y-56810D01*
X287050Y-56600D01*
X285760Y-55540D01*
X284960Y-54270D01*
X284800Y-53000D01*
X285120Y-51520D01*
X286240Y-50460D01*
X287370Y-50040D01*
X288820D01*
G01X287370D02*
X286400Y-49400D01*
X285600Y-48340D01*
X285280Y-47070D01*
X285600Y-45800D01*
X286400Y-44750D01*
X287850Y-44110D01*
X289300Y-44320D01*
X290750Y-45170D01*
G01X317610Y98190D02*
Y110890D01*
X313590D01*
X312300Y110250D01*
X311500Y109410D01*
X311180Y107710D01*
X311500Y106020D01*
X312460Y104960D01*
X313590Y104330D01*
X317610D01*
G01X313590D02*
X311180Y98190D01*
G01X299510D02*
Y110890D01*
X305470Y101790D01*
X297420D01*
G01X292030Y100090D02*
X291070Y99040D01*
X289940Y98400D01*
X288500Y98190D01*
X287050Y98610D01*
X285920Y99460D01*
X285120Y100940D01*
X284960Y102630D01*
X285280Y104330D01*
X286080Y105390D01*
X287210Y106230D01*
X288330Y106440D01*
X289460Y106230D01*
X290910Y105390D01*
X290430Y110890D01*
X286080D01*
G01X355860Y-137670D02*
X356820Y-137030D01*
X357950Y-136610D01*
X359230D01*
X360680Y-137250D01*
X361810Y-138300D01*
X362610Y-139570D01*
X363260Y-141690D01*
X363420Y-143600D01*
X363090Y-145500D01*
X362610Y-146770D01*
X361650Y-148040D01*
X360520Y-148890D01*
X359400Y-149310D01*
X358270D01*
X357140Y-148890D01*
X356180Y-148250D01*
X355370Y-147410D01*
G01X349980Y-146770D02*
X349020Y-148250D01*
X347730Y-149100D01*
X346280Y-149310D01*
X345000Y-149100D01*
X343710Y-148040D01*
X342910Y-146770D01*
X342750Y-145500D01*
X343070Y-144020D01*
X344190Y-142960D01*
X345320Y-142540D01*
X346770D01*
G01X345320D02*
X344350Y-141900D01*
X343550Y-140840D01*
X343230Y-139570D01*
X343550Y-138300D01*
X344350Y-137250D01*
X345800Y-136610D01*
X347250Y-136820D01*
X348700Y-137670D01*
G01X337030Y-147410D02*
X336070Y-148460D01*
X334940Y-149100D01*
X333500Y-149310D01*
X332050Y-148890D01*
X330920Y-148040D01*
X330120Y-146560D01*
X329960Y-144870D01*
X330280Y-143170D01*
X331080Y-142110D01*
X332210Y-141270D01*
X333330Y-141060D01*
X334460Y-141270D01*
X335910Y-142110D01*
X335430Y-136610D01*
X331080D01*
G01X372620Y-79310D02*
Y-66610D01*
X368600D01*
X367310Y-67250D01*
X366510Y-68090D01*
X366190Y-69790D01*
X366510Y-71480D01*
X367470Y-72540D01*
X368600Y-73170D01*
X372620D01*
G01X368600D02*
X366190Y-79310D01*
G01X359510Y-74020D02*
X358390Y-72540D01*
X357420Y-71690D01*
X356130Y-71270D01*
X355010Y-71690D01*
X354200Y-72540D01*
X353560Y-73810D01*
X353400Y-75290D01*
X353560Y-76560D01*
X354200Y-77830D01*
X355170Y-78890D01*
X356290Y-79310D01*
X357580Y-78890D01*
X358710Y-77620D01*
X359350Y-75710D01*
X359510Y-73600D01*
X359190Y-70840D01*
X358710Y-69360D01*
X357900Y-67880D01*
X356780Y-66820D01*
X355650Y-66610D01*
X354520Y-67030D01*
X353720Y-68090D01*
G01X347040Y-76770D02*
X346080Y-78250D01*
X344790Y-79100D01*
X343340Y-79310D01*
X342060Y-79100D01*
X340770Y-78040D01*
X339970Y-76770D01*
X339810Y-75500D01*
X340130Y-74020D01*
X341250Y-72960D01*
X342380Y-72540D01*
X343830D01*
G01X342380D02*
X341410Y-71900D01*
X340610Y-70840D01*
X340290Y-69570D01*
X340610Y-68300D01*
X341410Y-67250D01*
X342860Y-66610D01*
X344310Y-66820D01*
X345760Y-67670D01*
G01X355860Y14830D02*
X356820Y15470D01*
X357950Y15890D01*
X359230D01*
X360680Y15250D01*
X361810Y14200D01*
X362610Y12930D01*
X363260Y10810D01*
X363420Y8900D01*
X363090Y7000D01*
X362610Y5730D01*
X361650Y4460D01*
X360520Y3610D01*
X359400Y3190D01*
X358270D01*
X357140Y3610D01*
X356180Y4250D01*
X355370Y5090D01*
G01X349980Y5730D02*
X349020Y4250D01*
X347730Y3400D01*
X346280Y3190D01*
X345000Y3400D01*
X343710Y4460D01*
X342910Y5730D01*
X342750Y7000D01*
X343070Y8480D01*
X344190Y9540D01*
X345320Y9960D01*
X346770D01*
G01X345320D02*
X344350Y10600D01*
X343550Y11660D01*
X343230Y12930D01*
X343550Y14200D01*
X344350Y15250D01*
X345800Y15890D01*
X347250Y15680D01*
X348700Y14830D01*
G01X337030Y5730D02*
X336070Y4250D01*
X334780Y3400D01*
X333330Y3190D01*
X332050Y3400D01*
X330760Y4460D01*
X329960Y5730D01*
X329800Y7000D01*
X330120Y8480D01*
X331240Y9540D01*
X332370Y9960D01*
X333820D01*
G01X332370D02*
X331400Y10600D01*
X330600Y11660D01*
X330280Y12930D01*
X330600Y14200D01*
X331400Y15250D01*
X332850Y15890D01*
X334300Y15680D01*
X335750Y14830D01*
G01X372620Y73190D02*
Y85890D01*
X368600D01*
X367310Y85250D01*
X366510Y84410D01*
X366190Y82710D01*
X366510Y81020D01*
X367470Y79960D01*
X368600Y79330D01*
X372620D01*
G01X368600D02*
X366190Y73190D01*
G01X359990Y75090D02*
X359030Y74040D01*
X357900Y73400D01*
X356460Y73190D01*
X355010Y73610D01*
X353880Y74460D01*
X353080Y75940D01*
X352920Y77630D01*
X353240Y79330D01*
X354040Y80390D01*
X355170Y81230D01*
X356290Y81440D01*
X357420Y81230D01*
X358870Y80390D01*
X358390Y85890D01*
X354040D01*
G01X347040Y75090D02*
X346080Y74040D01*
X344950Y73400D01*
X343510Y73190D01*
X342060Y73610D01*
X340930Y74460D01*
X340130Y75940D01*
X339970Y77630D01*
X340290Y79330D01*
X341090Y80390D01*
X342220Y81230D01*
X343340Y81440D01*
X344470Y81230D01*
X345920Y80390D01*
X345440Y85890D01*
X341090D01*
G01X355860Y167330D02*
X356820Y167970D01*
X357950Y168390D01*
X359230D01*
X360680Y167750D01*
X361810Y166700D01*
X362610Y165430D01*
X363260Y163310D01*
X363420Y161400D01*
X363090Y159500D01*
X362610Y158230D01*
X361650Y156960D01*
X360520Y156110D01*
X359400Y155690D01*
X358270D01*
X357140Y156110D01*
X356180Y156750D01*
X355370Y157590D01*
G01X349980Y158230D02*
X349020Y156750D01*
X347730Y155900D01*
X346280Y155690D01*
X345000Y155900D01*
X343710Y156960D01*
X342910Y158230D01*
X342750Y159500D01*
X343070Y160980D01*
X344190Y162040D01*
X345320Y162460D01*
X346770D01*
G01X345320D02*
X344350Y163100D01*
X343550Y164160D01*
X343230Y165430D01*
X343550Y166700D01*
X344350Y167750D01*
X345800Y168390D01*
X347250Y168180D01*
X348700Y167330D01*
G01X333500Y155690D02*
Y168390D01*
X335430Y165850D01*
G01Y155690D02*
X331570D01*
G01X370120Y225690D02*
Y238390D01*
X366100D01*
X364810Y237750D01*
X364010Y236910D01*
X363690Y235210D01*
X364010Y233520D01*
X364970Y232460D01*
X366100Y231830D01*
X370120D01*
G01X366100D02*
X363690Y225690D01*
G01X352020D02*
Y238390D01*
X357980Y229290D01*
X349930D01*
G01X344540Y228230D02*
X343580Y226750D01*
X342290Y225900D01*
X340840Y225690D01*
X339560Y225900D01*
X338270Y226960D01*
X337470Y228230D01*
X337310Y229500D01*
X337630Y230980D01*
X338750Y232040D01*
X339880Y232460D01*
X341330D01*
G01X339880D02*
X338910Y233100D01*
X338110Y234160D01*
X337790Y235430D01*
X338110Y236700D01*
X338910Y237750D01*
X340360Y238390D01*
X341810Y238180D01*
X343260Y237330D01*
G01X447400Y-186610D02*
X443380Y-199310D01*
X439350Y-186610D01*
G01X433960Y-199310D02*
Y-186610D01*
X430750D01*
X429460Y-187250D01*
X428490Y-188090D01*
X427690Y-189360D01*
X427050Y-190840D01*
X426890Y-192960D01*
X427050Y-195080D01*
X427690Y-196560D01*
X428490Y-197830D01*
X429460Y-198680D01*
X430750Y-199310D01*
X433960D01*
G01X420530Y-188730D02*
X419570Y-187460D01*
X418440Y-186820D01*
X417150Y-186610D01*
X415540Y-187030D01*
X414420Y-188090D01*
X414100Y-189360D01*
X414260Y-190630D01*
X414900Y-191690D01*
X418120Y-193810D01*
X419570Y-195290D01*
X420530Y-197410D01*
X420850Y-199310D01*
X414100D01*
G01X402590D02*
Y-186610D01*
X408550Y-195710D01*
X400500D01*
G01X447400Y-34110D02*
X443380Y-46810D01*
X439350Y-34110D01*
G01X433960Y-46810D02*
Y-34110D01*
X430750D01*
X429460Y-34750D01*
X428490Y-35590D01*
X427690Y-36860D01*
X427050Y-38340D01*
X426890Y-40460D01*
X427050Y-42580D01*
X427690Y-44060D01*
X428490Y-45330D01*
X429460Y-46180D01*
X430750Y-46810D01*
X433960D01*
G01X420530Y-36230D02*
X419570Y-34960D01*
X418440Y-34320D01*
X417150Y-34110D01*
X415540Y-34530D01*
X414420Y-35590D01*
X414100Y-36860D01*
X414260Y-38130D01*
X414900Y-39190D01*
X418120Y-41310D01*
X419570Y-42790D01*
X420530Y-44910D01*
X420850Y-46810D01*
X414100D01*
G01X404530D02*
Y-34110D01*
X406460Y-36650D01*
G01Y-46810D02*
X402600D01*
G01X449900Y118390D02*
X445880Y105690D01*
X441850Y118390D01*
G01X436460Y105690D02*
Y118390D01*
X433250D01*
X431960Y117750D01*
X430990Y116910D01*
X430190Y115640D01*
X429550Y114160D01*
X429390Y112040D01*
X429550Y109920D01*
X430190Y108440D01*
X430990Y107170D01*
X431960Y106320D01*
X433250Y105690D01*
X436460D01*
G01X419980D02*
Y118390D01*
X421910Y115850D01*
G01Y105690D02*
X418050D01*
G01X407030D02*
X405900Y105900D01*
X404610Y106540D01*
X403810Y107590D01*
X403490Y109080D01*
X403810Y110560D01*
X404770Y111830D01*
X406220Y112460D01*
X407830D01*
X408790Y112890D01*
X409600Y113940D01*
X409920Y115430D01*
X409440Y116910D01*
X408310Y117970D01*
X407030Y118390D01*
X405740Y117970D01*
X404610Y116910D01*
X404130Y115430D01*
X404450Y113940D01*
X405260Y112890D01*
X406220Y112460D01*
X407830D01*
X409280Y111830D01*
X410240Y110560D01*
X410560Y109080D01*
X410240Y107590D01*
X409440Y106540D01*
X408150Y105900D01*
X407030Y105690D01*
G01X565120Y-166810D02*
Y-154110D01*
X561100D01*
X559810Y-154750D01*
X559010Y-155590D01*
X558690Y-157290D01*
X559010Y-158980D01*
X559970Y-160040D01*
X561100Y-160670D01*
X565120D01*
G01X561100D02*
X558690Y-166810D01*
G01X552490Y-164910D02*
X551530Y-165960D01*
X550400Y-166600D01*
X548960Y-166810D01*
X547510Y-166390D01*
X546380Y-165540D01*
X545580Y-164060D01*
X545420Y-162370D01*
X545740Y-160670D01*
X546540Y-159610D01*
X547670Y-158770D01*
X548790Y-158560D01*
X549920Y-158770D01*
X551370Y-159610D01*
X550890Y-154110D01*
X546540D01*
G01X536330Y-166810D02*
X536010Y-164060D01*
X535520Y-161730D01*
X534880Y-159610D01*
X534070Y-157290D01*
X532790Y-154110D01*
X539220D01*
G01X565120Y-14310D02*
Y-1610D01*
X561100D01*
X559810Y-2250D01*
X559010Y-3090D01*
X558690Y-4790D01*
X559010Y-6480D01*
X559970Y-7540D01*
X561100Y-8170D01*
X565120D01*
G01X561100D02*
X558690Y-14310D01*
G01X547020D02*
Y-1610D01*
X552980Y-10710D01*
X544930D01*
G01X538740Y-12830D02*
X537610Y-13890D01*
X536330Y-14310D01*
X535040Y-13890D01*
X533910Y-12620D01*
X533110Y-10710D01*
X532790Y-8810D01*
Y-6480D01*
X533110Y-4570D01*
X533910Y-2880D01*
X534880Y-2030D01*
X536010Y-1610D01*
X537290Y-2030D01*
X538260Y-2880D01*
X538900Y-4150D01*
X539220Y-5840D01*
X538900Y-7320D01*
X538100Y-8810D01*
X537130Y-9650D01*
X536010Y-9870D01*
X534720Y-9440D01*
X533750Y-8380D01*
X532790Y-6480D01*
G01X565120Y-76810D02*
Y-64110D01*
X561100D01*
X559810Y-64750D01*
X559010Y-65590D01*
X558690Y-67290D01*
X559010Y-68980D01*
X559970Y-70040D01*
X561100Y-70670D01*
X565120D01*
G01X561100D02*
X558690Y-76810D01*
G01X549280D02*
X548960Y-74060D01*
X548470Y-71730D01*
X547830Y-69610D01*
X547020Y-67290D01*
X545740Y-64110D01*
X552170D01*
G01X539540Y-74910D02*
X538580Y-75960D01*
X537450Y-76600D01*
X536010Y-76810D01*
X534560Y-76390D01*
X533430Y-75540D01*
X532630Y-74060D01*
X532470Y-72370D01*
X532790Y-70670D01*
X533590Y-69610D01*
X534720Y-68770D01*
X535840Y-68560D01*
X536970Y-68770D01*
X538420Y-69610D01*
X537940Y-64110D01*
X533590D01*
G01X565120Y73190D02*
Y85890D01*
X561100D01*
X559810Y85250D01*
X559010Y84410D01*
X558690Y82710D01*
X559010Y81020D01*
X559970Y79960D01*
X561100Y79330D01*
X565120D01*
G01X561100D02*
X558690Y73190D01*
G01X549280D02*
X548960Y75940D01*
X548470Y78270D01*
X547830Y80390D01*
X547020Y82710D01*
X545740Y85890D01*
X552170D01*
G01X539060Y83770D02*
X538100Y85040D01*
X536970Y85680D01*
X535680Y85890D01*
X534070Y85470D01*
X532950Y84410D01*
X532630Y83140D01*
X532790Y81870D01*
X533430Y80810D01*
X536650Y78690D01*
X538100Y77210D01*
X539060Y75090D01*
X539380Y73190D01*
X532630D01*
G01X557620Y138190D02*
Y150890D01*
X553600D01*
X552310Y150250D01*
X551510Y149410D01*
X551190Y147710D01*
X551510Y146020D01*
X552470Y144960D01*
X553600Y144330D01*
X557620D01*
G01X553600D02*
X551190Y138190D01*
G01X539520D02*
Y150890D01*
X545480Y141790D01*
X537430D01*
G01X528510Y138190D02*
Y150890D01*
X530440Y148350D01*
G01Y138190D02*
X526580D01*
G01X557610Y225690D02*
Y238390D01*
X553590D01*
X552300Y237750D01*
X551500Y236910D01*
X551180Y235210D01*
X551500Y233520D01*
X552460Y232460D01*
X553590Y231830D01*
X557610D01*
G01X553590D02*
X551180Y225690D01*
G01X539510D02*
Y238390D01*
X545470Y229290D01*
X537420D01*
G01X528500Y225690D02*
X527370Y225900D01*
X526080Y226540D01*
X525280Y227590D01*
X524960Y229080D01*
X525280Y230560D01*
X526240Y231830D01*
X527690Y232460D01*
X529300D01*
X530260Y232890D01*
X531070Y233940D01*
X531390Y235430D01*
X530910Y236910D01*
X529780Y237970D01*
X528500Y238390D01*
X527210Y237970D01*
X526080Y236910D01*
X525600Y235430D01*
X525920Y233940D01*
X526730Y232890D01*
X527690Y232460D01*
X529300D01*
X530750Y231830D01*
X531710Y230560D01*
X532030Y229080D01*
X531710Y227590D01*
X530910Y226540D01*
X529620Y225900D01*
X528500Y225690D01*
G01X681170Y-223850D02*
Y-211150D01*
X677150D01*
X675860Y-211790D01*
X675060Y-212630D01*
X674740Y-214330D01*
X675060Y-216020D01*
X676020Y-217080D01*
X677150Y-217710D01*
X681170D01*
G01X677150D02*
X674740Y-223850D01*
G01X668540Y-221950D02*
X667580Y-223000D01*
X666450Y-223640D01*
X665010Y-223850D01*
X663560Y-223430D01*
X662430Y-222580D01*
X661630Y-221100D01*
X661470Y-219410D01*
X661790Y-217710D01*
X662590Y-216650D01*
X663720Y-215810D01*
X664840Y-215600D01*
X665970Y-215810D01*
X667420Y-216650D01*
X666940Y-211150D01*
X662590D01*
G01X652060Y-223850D02*
X650930Y-223640D01*
X649640Y-223000D01*
X648840Y-221950D01*
X648520Y-220460D01*
X648840Y-218980D01*
X649800Y-217710D01*
X651250Y-217080D01*
X652860D01*
X653820Y-216650D01*
X654630Y-215600D01*
X654950Y-214110D01*
X654470Y-212630D01*
X653340Y-211570D01*
X652060Y-211150D01*
X650770Y-211570D01*
X649640Y-212630D01*
X649160Y-214110D01*
X649480Y-215600D01*
X650290Y-216650D01*
X651250Y-217080D01*
X652860D01*
X654310Y-217710D01*
X655270Y-218980D01*
X655590Y-220460D01*
X655270Y-221950D01*
X654470Y-223000D01*
X653180Y-223640D01*
X652060Y-223850D01*
G01X682620Y-69310D02*
Y-56610D01*
X678600D01*
X677310Y-57250D01*
X676510Y-58090D01*
X676190Y-59790D01*
X676510Y-61480D01*
X677470Y-62540D01*
X678600Y-63170D01*
X682620D01*
G01X678600D02*
X676190Y-69310D01*
G01X669990Y-67410D02*
X669030Y-68460D01*
X667900Y-69100D01*
X666460Y-69310D01*
X665010Y-68890D01*
X663880Y-68040D01*
X663080Y-66560D01*
X662920Y-64870D01*
X663240Y-63170D01*
X664040Y-62110D01*
X665170Y-61270D01*
X666290Y-61060D01*
X667420Y-61270D01*
X668870Y-62110D01*
X668390Y-56610D01*
X664040D01*
G01X653510D02*
X654790Y-57030D01*
X655760Y-58090D01*
X656400Y-59360D01*
X656880Y-61060D01*
X657040Y-62960D01*
X656880Y-64870D01*
X656400Y-66560D01*
X655760Y-67830D01*
X654790Y-68890D01*
X653510Y-69310D01*
X652220Y-68890D01*
X651250Y-67830D01*
X650610Y-66560D01*
X650130Y-64870D01*
X649970Y-62960D01*
X650130Y-61060D01*
X650610Y-59360D01*
X651250Y-58090D01*
X652220Y-57030D01*
X653510Y-56610D01*
G01X680120Y83190D02*
Y95890D01*
X676100D01*
X674810Y95250D01*
X674010Y94410D01*
X673690Y92710D01*
X674010Y91020D01*
X674970Y89960D01*
X676100Y89330D01*
X680120D01*
G01X676100D02*
X673690Y83190D01*
G01X662020D02*
Y95890D01*
X667980Y86790D01*
X659930D01*
G01X651330Y83190D02*
X651010Y85940D01*
X650520Y88270D01*
X649880Y90390D01*
X649070Y92710D01*
X647790Y95890D01*
X654220D01*
G01X755120Y-69310D02*
Y-56610D01*
X751100D01*
X749810Y-57250D01*
X749010Y-58090D01*
X748690Y-59790D01*
X749010Y-61480D01*
X749970Y-62540D01*
X751100Y-63170D01*
X755120D01*
G01X751100D02*
X748690Y-69310D01*
G01X742490Y-67410D02*
X741530Y-68460D01*
X740400Y-69100D01*
X738960Y-69310D01*
X737510Y-68890D01*
X736380Y-68040D01*
X735580Y-66560D01*
X735420Y-64870D01*
X735740Y-63170D01*
X736540Y-62110D01*
X737670Y-61270D01*
X738790Y-61060D01*
X739920Y-61270D01*
X741370Y-62110D01*
X740890Y-56610D01*
X736540D01*
G01X726010Y-69310D02*
Y-56610D01*
X727940Y-59150D01*
G01Y-69310D02*
X724080D01*
G01X750120Y83190D02*
Y95890D01*
X746100D01*
X744810Y95250D01*
X744010Y94410D01*
X743690Y92710D01*
X744010Y91020D01*
X744970Y89960D01*
X746100Y89330D01*
X750120D01*
G01X746100D02*
X743690Y83190D01*
G01X734280D02*
X733960Y85940D01*
X733470Y88270D01*
X732830Y90390D01*
X732020Y92710D01*
X730740Y95890D01*
X737170D01*
G01X721010Y83190D02*
Y95890D01*
X722940Y93350D01*
G01Y83190D02*
X719080D01*
G01X756170Y-223850D02*
Y-211150D01*
X752150D01*
X750860Y-211790D01*
X750060Y-212630D01*
X749740Y-214330D01*
X750060Y-216020D01*
X751020Y-217080D01*
X752150Y-217710D01*
X756170D01*
G01X752150D02*
X749740Y-223850D01*
G01X743540Y-221950D02*
X742580Y-223000D01*
X741450Y-223640D01*
X740010Y-223850D01*
X738560Y-223430D01*
X737430Y-222580D01*
X736630Y-221100D01*
X736470Y-219410D01*
X736790Y-217710D01*
X737590Y-216650D01*
X738720Y-215810D01*
X739840Y-215600D01*
X740970Y-215810D01*
X742420Y-216650D01*
X741940Y-211150D01*
X737590D01*
G01X729790Y-222370D02*
X728660Y-223430D01*
X727380Y-223850D01*
X726090Y-223430D01*
X724960Y-222160D01*
X724160Y-220250D01*
X723840Y-218350D01*
Y-216020D01*
X724160Y-214110D01*
X724960Y-212420D01*
X725930Y-211570D01*
X727060Y-211150D01*
X728340Y-211570D01*
X729310Y-212420D01*
X729950Y-213690D01*
X730270Y-215380D01*
X729950Y-216860D01*
X729150Y-218350D01*
X728180Y-219190D01*
X727060Y-219410D01*
X725770Y-218980D01*
X724800Y-217920D01*
X723840Y-216020D01*
M02*
