G04 ================== begin FILE IDENTIFICATION RECORD ==================*
G04 Layout Name:  D:/Project/Circuit/KVP/03v4/pcb/kvp_03v4.brd*
G04 Film Name:    BOTTOM*
G04 File Format:  Gerber RS274X*
G04 File Origin:  Cadence Allegro 16.6-2015-S053*
G04 Origin Date:  Thu Dec 17 16:09:01 2015*
G04 *
G04 Layer:  ETCH/BOTTOM*
G04 Layer:  PIN/BOTTOM*
G04 Layer:  VIA CLASS/BOTTOM*
G04 *
G04 Offset:    (0.000 0.000)*
G04 Mirror:    No*
G04 Mode:      Positive*
G04 Rotation:  0*
G04 FullContactRelief:  No*
G04 UndefLineWidth:     0.250*
G04 ================== end FILE IDENTIFICATION RECORD ====================*
%FSLAX34Y34*MOMM*%
%IR0*IPPOS*OFA0.00000B0.00000*MIA0B0*SFA1.00000B1.00000*%
%ADD12C,1.*%
%ADD11C,4.*%
%ADD22C,2.5*%
%ADD14C,1.7*%
%ADD21R,2.5X2.5*%
%ADD17C,1.95*%
%ADD13R,1.7X1.7*%
%ADD15R,1.95X1.95*%
%ADD19R,2.7X1.2*%
%ADD16R,1.2X2.7*%
%ADD18R,1.8X1.4*%
%ADD23C,.2*%
%ADD20R,1.7X1.7*%
%ADD10C,.8*%
%ADD24C,.5*%
%ADD25C,.25*%
%ADD26C,.35*%
%ADD27C,.45*%
%ADD28C,2.204*%
%ADD29C,3.404*%
G75*
%LPD*%
G75*
G36*
G01X-69850Y-1136650D02*
G02X-76200Y-1130300I0J6350D01*
G01Y-74300D01*
G02X-75240Y-73300I1000J1D01*
G03Y-28300I-960J22500D01*
G02X-76200Y-27300I40J999D01*
G01Y337900D01*
G02X-71200Y342900I5000J0D01*
G01X-58220D01*
G02X-57260Y342200I5J-1001D01*
G01X-56590Y340060D01*
X-56800Y339450D01*
X-57080Y339260D01*
G03X-49310Y319280I6276J-9060D01*
G01X-49070Y319310D01*
X-48630Y319160D01*
X-46420Y316950D01*
G02Y315540I-707J-705D01*
G01X-46620Y315330D01*
X-47150Y315200D01*
X-47430Y315290D01*
G03X-40550Y308850I-3367J-10493D01*
G01X-40660Y309120D01*
X-40570Y309660D01*
X-39050Y311430D01*
X-38530Y311600D01*
X-38250Y311540D01*
G03X-37300Y311360I2823J12302D01*
G01X-37070Y311330D01*
X-36700Y311080D01*
X-35670Y309340D01*
X-35630Y308890D01*
X-35710Y308680D01*
G03X-15090I10310J-3880D01*
G01X-15170Y308890D01*
X-15130Y309340D01*
X-14100Y311080D01*
X-13730Y311330D01*
X-13500Y311360D01*
G03X-12550Y311540I-1873J12481D01*
G01X-12270Y311600D01*
X-11750Y311430D01*
X-10230Y309660D01*
X-10140Y309120D01*
X-10250Y308850D01*
G03X-3370Y315290I10247J-4053D01*
G01X-3650Y315200D01*
X-4180Y315330D01*
X-4380Y315540D01*
G02Y316950I707J705D01*
G01X-2170Y319160D01*
X-1730Y319310D01*
X-1490Y319280D01*
G03X4400Y320100I1482J10919D01*
G02X4800Y320180I392J-922D01*
G01X52590D01*
G02X53290Y319890I-4J-1000D01*
G01X123040Y250140D01*
G02X123330Y249440I-710J-704D01*
G01Y-264070D01*
G03X128120Y-275650I16372J-8D01*
G01X256390Y-403910D01*
G02X256680Y-404610I-710J-704D01*
G01Y-1102210D01*
G03X270330Y-1111550I10020J0D01*
G01X270570Y-1111460D01*
X271040Y-1111510D01*
X272610Y-1112590D01*
G02X273050Y-1113410I-559J-828D01*
G01Y-1131650D01*
G02X268050Y-1136650I-5000J0D01*
G01X-69850D01*
G37*
G36*
G01X270840Y-228600D02*
G02X263770Y-225670I2J10000D01*
G01X218830Y-180730D01*
G02X215900Y-173660I7070J7072D01*
G01Y421310D01*
G03X212970Y428380I-10000J-2D01*
G01X206130Y435220D01*
G03X199060Y438150I-7072J-7070D01*
G01X9630D01*
G02X8650Y438630I4J1250D01*
G03X-8650I-8650J-6830D01*
G02X-9630Y438150I-984J770D01*
G01X-15770D01*
G02X-16750Y438630I4J1250D01*
G03X-34050I-8650J-6830D01*
G02X-35030Y438150I-984J770D01*
G01X-41170D01*
G02X-42150Y438630I4J1250D01*
G03X-57940Y440200I-8652J-6828D01*
G02X-59500Y440150I-811J949D01*
G02X-63500Y448150I6000J8000D01*
G01Y448330D01*
G02X-62690Y449500I1251J-1D01*
G01X-60120Y450460D01*
X-59370Y450270D01*
X-59110Y449970D01*
G03Y464430I8310J7230D01*
G01X-59370Y464130D01*
X-60120Y463940D01*
X-62690Y464900D01*
G02X-63500Y466070I441J1171D01*
G01Y470330D01*
G02X-62250Y471580I1250J0D01*
G01X-41030D01*
G03X-39780Y472830I0J1250D01*
G01Y492370D01*
G03X-41030Y493620I-1250J0D01*
G01X-62250D01*
G02X-63500Y494870I0J1250D01*
G01Y499130D01*
G02X-62690Y500300I1251J-1D01*
G01X-60120Y501260D01*
X-59370Y501070D01*
X-59110Y500770D01*
G03Y515230I8310J7230D01*
G01X-59370Y514930D01*
X-60120Y514740D01*
X-62690Y515700D01*
G02X-63500Y516870I441J1171D01*
G01Y524530D01*
G02X-62690Y525700I1251J-1D01*
G01X-60120Y526660D01*
X-59370Y526470D01*
X-59110Y526170D01*
G03Y540630I8310J7230D01*
G01X-59370Y540330D01*
X-60120Y540140D01*
X-62690Y541100D01*
G02X-63500Y542270I441J1171D01*
G01Y549930D01*
G02X-62690Y551100I1251J-1D01*
G01X-60120Y552060D01*
X-59370Y551870D01*
X-59110Y551570D01*
G03Y566030I8310J7230D01*
G01X-59370Y565730D01*
X-60120Y565540D01*
X-62690Y566500D01*
G02X-63500Y567670I441J1171D01*
G01Y575330D01*
G02X-62690Y576500I1251J-1D01*
G01X-60120Y577460D01*
X-59370Y577270D01*
X-59110Y576970D01*
G03Y591430I8310J7230D01*
G01X-59370Y591130D01*
X-60120Y590940D01*
X-62690Y591900D01*
G02X-63500Y593070I441J1171D01*
G01Y600730D01*
G02X-62690Y601900I1251J-1D01*
G01X-60120Y602860D01*
X-59370Y602670D01*
X-59110Y602370D01*
G03Y616830I8310J7230D01*
G01X-59370Y616530D01*
X-60120Y616340D01*
X-62690Y617300D01*
G02X-63500Y618470I441J1171D01*
G01Y626130D01*
G02X-62690Y627300I1251J-1D01*
G01X-60120Y628260D01*
X-59370Y628070D01*
X-59110Y627770D01*
G03X-43570Y643310I8310J7230D01*
G01X-43870Y643570D01*
X-44060Y644320D01*
X-43100Y646890D01*
G02X-41930Y647700I1171J-441D01*
G01X-34270D01*
G02X-33100Y646890I-1J-1251D01*
G01X-32140Y644320D01*
X-32330Y643570D01*
X-32630Y643310D01*
G03X-18170I7230J-8310D01*
G01X-18470Y643570D01*
X-18660Y644320D01*
X-17700Y646890D01*
G02X-16530Y647700I1171J-441D01*
G01X-8870D01*
G02X-7700Y646890I-1J-1251D01*
G01X-6740Y644320D01*
X-6930Y643570D01*
X-7230Y643310D01*
G03X7230I7230J-8310D01*
G01X6930Y643570D01*
X6740Y644320D01*
X7700Y646890D01*
G02X8870Y647700I1171J-441D01*
G01X447200D01*
G02X457200Y637700I0J-10000D01*
G01Y308450D01*
G02X447200Y298450I-10000J0D01*
G01X302100D01*
G03X292100Y288450I0J-10000D01*
G01Y-218600D01*
G02X282100Y-228600I-10000J0D01*
G01X270840D01*
G37*
G36*
G01X302050D02*
G02X300760Y-228510I50J10000D01*
G02X300020Y-228020I126J994D01*
G01X299120Y-226440D01*
X299090Y-225970D01*
X299180Y-225760D01*
G03X300620Y-218600I-17081J7160D01*
G01Y288450D01*
G02X302100Y289930I1480J0D01*
G01X447200D01*
G03X465720Y308450I0J18520D01*
G01Y637700D01*
G03X447200Y656220I-18520J0D01*
G01X12840D01*
G02X12070Y656570I-9J1001D01*
G01X10940Y657910D01*
X10830Y658330D01*
X10860Y658550D01*
G03X6280Y669460I-10863J1856D01*
G01X6000Y669650D01*
X5790Y670260D01*
X6460Y672400D01*
G02X7420Y673100I955J-301D01*
G01X555150D01*
G02X565150Y663100I0J-10000D01*
G01Y656200D01*
G02X564720Y655380I-1000J2D01*
G01X563150Y654300D01*
X562670Y654240D01*
X562440Y654330D01*
G03Y633750I-3940J-10290D01*
G01X562670Y633840D01*
X563150Y633780D01*
X564720Y632700D01*
G02X565150Y631880I-570J-822D01*
G01Y605260D01*
G02X564150Y604260I-1000J0D01*
G01X548480D01*
G03X547480Y603260I0J-1000D01*
G01Y583220D01*
G03X548480Y582220I1000J0D01*
G01X564150D01*
G02X565150Y581220I0J-1000D01*
G01Y554600D01*
G02X564720Y553780I-1000J2D01*
G01X563150Y552700D01*
X562670Y552640D01*
X562440Y552730D01*
G03Y532150I-3940J-10290D01*
G01X562670Y532240D01*
X563150Y532180D01*
X564720Y531100D01*
G02X565150Y530280I-570J-822D01*
G01Y503660D01*
G02X564150Y502660I-1000J0D01*
G01X548480D01*
G03X547480Y501660I0J-1000D01*
G01Y481620D01*
G03X548480Y480620I1000J0D01*
G01X564150D01*
G02X565150Y479620I0J-1000D01*
G01Y453000D01*
G02X564720Y452180I-1000J2D01*
G01X563150Y451100D01*
X562670Y451040D01*
X562440Y451130D01*
G03Y430550I-3940J-10290D01*
G01X562670Y430640D01*
X563150Y430580D01*
X564720Y429500D01*
G02X565150Y428680I-570J-822D01*
G01Y402060D01*
G02X564150Y401060I-1000J0D01*
G01X548480D01*
G03X547480Y400060I0J-1000D01*
G01Y380020D01*
G03X548480Y379020I1000J0D01*
G01X564150D01*
G02X565150Y378020I0J-1000D01*
G01Y351400D01*
G02X564720Y350580I-1000J2D01*
G01X563150Y349500D01*
X562670Y349440D01*
X562440Y349530D01*
G03Y328950I-3940J-10290D01*
G01X562670Y329040D01*
X563150Y328980D01*
X564720Y327900D01*
G02X565150Y327080I-570J-822D01*
G01Y300460D01*
G02X564150Y299460I-1000J0D01*
G01X548480D01*
G03X547480Y298460I0J-1000D01*
G01Y280400D01*
G02X546480Y279400I-1000J0D01*
G01X321150D01*
G03X311150Y269400I0J-10000D01*
G01Y-219500D01*
G02Y-219600I-1000J-50D01*
G02X302150Y-228600I-9959J959D01*
G02X302050I-50J1000D01*
G37*
G36*
G01X-14810Y657220D02*
Y657350D01*
X-14770Y657480D01*
G03X-19120Y669460I-10629J2920D01*
G01X-19400Y669650D01*
X-19610Y670260D01*
X-18940Y672400D01*
G02X-17980Y673100I955J-301D01*
G01X-7420D01*
G02X-6460Y672400I5J-1001D01*
G01X-5790Y670260D01*
X-6000Y669650D01*
X-6280Y669460D01*
G03X-10860Y658550I6283J-9054D01*
G01X-10830Y658330D01*
X-10940Y657910D01*
X-12070Y656570D01*
G02X-12840Y656220I-761J651D01*
G01X-13810D01*
G02X-14810Y657220I0J1000D01*
G37*
G36*
G01X-40210D02*
Y657350D01*
X-40170Y657480D01*
G03X-44520Y669460I-10629J2920D01*
G01X-44800Y669650D01*
X-45010Y670260D01*
X-44340Y672400D01*
G02X-43380Y673100I955J-301D01*
G01X-32820D01*
G02X-31860Y672400I5J-1001D01*
G01X-31190Y670260D01*
X-31400Y669650D01*
X-31680Y669460D01*
G03X-36260Y658550I6283J-9054D01*
G01X-36230Y658330D01*
X-36340Y657910D01*
X-37470Y656570D01*
G02X-38240Y656220I-761J651D01*
G01X-39210D01*
G02X-40210Y657220I0J1000D01*
G37*
G36*
G01X362620Y-1079220D02*
Y-960100D01*
G02X363350Y-958340I2499J-5D01*
G01X370480Y-951210D01*
G02X372240Y-950480I1765J-1769D01*
G01X401180D01*
X401820Y-950650D01*
X402110Y-950820D01*
G03Y-936100I4290J7360D01*
G01X401820Y-936270D01*
X401180Y-936440D01*
X370930D01*
G03X361480Y-940360I7J-13368D01*
G01X353510Y-948320D01*
G02X350790Y-948860I-1765J1770D01*
G01X350090Y-948570D01*
X349250Y-947310D01*
Y-934410D01*
G02X359250Y-924410I10000J0D01*
G01X414960D01*
G02X422030Y-927340I-2J-10000D01*
G01X422520Y-927830D01*
G03X429590Y-930760I7072J7070D01*
G01X784470D01*
G02X786290Y-931550I-3J-2499D01*
G01X789140Y-934580D01*
X789490Y-935550D01*
X789460Y-936070D01*
G03X823440Y-936130I16988J-1040D01*
G02X824570Y-933890I2496J146D01*
G01X825620Y-933200D01*
G02X828700Y-933470I1368J-2094D01*
G02X831850Y-940760I-6861J-7290D01*
G01Y-1136660D01*
G02X828700Y-1143950I-10011J0D01*
G02X825620Y-1144220I-1712J1824D01*
G01X824570Y-1143530D01*
G02X823440Y-1141290I1366J2094D01*
G03X789460Y-1141350I-16992J980D01*
G01X789490Y-1141870D01*
X789140Y-1142840D01*
X786290Y-1145870D01*
G02X784470Y-1146660I-1823J1709D01*
G01X454990D01*
G02X447920Y-1143730I2J10000D01*
G01X447430Y-1143240D01*
G03X440360Y-1140310I-7072J-7070D01*
G01X359250D01*
G02X349250Y-1130310I0J10000D01*
G01Y-1092770D01*
G02X350790Y-1090460I2500J2D01*
G01X351490Y-1090170D01*
X352980Y-1090460D01*
X378700Y-1116190D01*
X379030Y-1116760D01*
X379110Y-1117080D01*
G03X389520Y-1106670I8240J2170D01*
G01X389200Y-1106590D01*
X388630Y-1106260D01*
X363350Y-1080980D01*
G02X362620Y-1079220I1769J1765D01*
G37*
G36*
G01X370930Y-682440D02*
G03X361480Y-686360I7J-13368D01*
G01X353510Y-694320D01*
G02X350790Y-694860I-1765J1770D01*
G01X350090Y-694570D01*
X349250Y-693310D01*
Y-680410D01*
G02X359250Y-670410I10000J0D01*
G01X414960D01*
G02X422030Y-673340I-2J-10000D01*
G01X422520Y-673830D01*
G03X429590Y-676760I7072J7070D01*
G01X784470D01*
G02X786290Y-677550I-3J-2499D01*
G01X789140Y-680580D01*
X789490Y-681550D01*
X789460Y-682070D01*
G03X823440Y-682130I16988J-1040D01*
G02X824570Y-679890I2496J146D01*
G01X825620Y-679200D01*
G02X828700Y-679470I1368J-2094D01*
G02X831850Y-686760I-6861J-7290D01*
G01Y-882660D01*
G02X828700Y-889950I-10011J0D01*
G02X825620Y-890220I-1712J1824D01*
G01X824570Y-889530D01*
G02X823440Y-887290I1366J2094D01*
G03X789460Y-887350I-16992J980D01*
G01X789490Y-887870D01*
X789140Y-888840D01*
X786290Y-891870D01*
G02X784470Y-892660I-1823J1709D01*
G01X454990D01*
G02X447920Y-889730I2J10000D01*
G01X447430Y-889240D01*
G03X440360Y-886310I-7072J-7070D01*
G01X359250D01*
G02X349250Y-876310I0J10000D01*
G01Y-838770D01*
G02X350790Y-836460I2500J2D01*
G01X351490Y-836170D01*
X352980Y-836460D01*
X378700Y-862190D01*
X379030Y-862760D01*
X379110Y-863080D01*
G03X389520Y-852670I8240J2170D01*
G01X389200Y-852590D01*
X388630Y-852260D01*
X363350Y-826980D01*
G02X362620Y-825220I1769J1765D01*
G01Y-706100D01*
G02X363350Y-704340I2499J-5D01*
G01X370480Y-697210D01*
G02X372240Y-696480I1765J-1769D01*
G01X401180D01*
X401820Y-696650D01*
X402110Y-696820D01*
G03Y-682100I4290J7360D01*
G01X401820Y-682270D01*
X401180Y-682440D01*
X370930D01*
G37*
G36*
G01X823440Y-633290D02*
G03X789460Y-633350I-16992J980D01*
G01X789490Y-633870D01*
X789140Y-634840D01*
X786290Y-637870D01*
G02X784470Y-638660I-1823J1709D01*
G01X454990D01*
G02X447920Y-635730I2J10000D01*
G01X447430Y-635240D01*
G03X440360Y-632310I-7072J-7070D01*
G01X359250D01*
G02X349250Y-622310I0J10000D01*
G01Y-584770D01*
G02X350790Y-582460I2500J2D01*
G01X351490Y-582170D01*
X352980Y-582460D01*
X378700Y-608190D01*
X379030Y-608760D01*
X379110Y-609080D01*
G03X389520Y-598670I8240J2170D01*
G01X389200Y-598590D01*
X388630Y-598260D01*
X363350Y-572980D01*
G02X362620Y-571220I1769J1765D01*
G01Y-452100D01*
G02X363350Y-450340I2499J-5D01*
G01X370480Y-443210D01*
G02X372240Y-442480I1765J-1769D01*
G01X401180D01*
X401820Y-442650D01*
X402110Y-442820D01*
G03Y-428100I4290J7360D01*
G01X401820Y-428270D01*
X401180Y-428440D01*
X370930D01*
G03X361480Y-432360I7J-13368D01*
G01X353510Y-440320D01*
G02X350790Y-440860I-1765J1770D01*
G01X350090Y-440570D01*
X349250Y-439310D01*
Y-426410D01*
G02X359250Y-416410I10000J0D01*
G01X414960D01*
G02X422030Y-419340I-2J-10000D01*
G01X422520Y-419830D01*
G03X429590Y-422760I7072J7070D01*
G01X784470D01*
G02X786290Y-423550I-3J-2499D01*
G01X789140Y-426580D01*
X789490Y-427550D01*
X789460Y-428070D01*
G03X823440Y-428130I16988J-1040D01*
G02X824570Y-425890I2496J146D01*
G01X825620Y-425200D01*
G02X828700Y-425470I1368J-2094D01*
G02X831850Y-432760I-6861J-7290D01*
G01Y-628660D01*
G02X828700Y-635950I-10011J0D01*
G02X825620Y-636220I-1712J1824D01*
G01X824570Y-635530D01*
G02X823440Y-633290I1366J2094D01*
G37*
G36*
G01X381000Y-269110D02*
Y-201760D01*
G02X382250Y-200510I1250J0D01*
G01X450000D01*
G03X451250Y-199260I0J1250D01*
G01Y-150960D01*
G02X452500Y-149710I1250J0D01*
G01X488100D01*
G02X489350Y-150960I0J-1250D01*
G01Y-199260D01*
G03X490600Y-200510I1250J0D01*
G01X508330D01*
G02X509580Y-201760I0J-1250D01*
G01Y-203580D01*
G03X510830Y-204830I1250J0D01*
G01X531370D01*
G03X532620Y-203580I0J1250D01*
G01Y-201760D01*
G02X533870Y-200510I1250J0D01*
G01X602400D01*
G02X603650Y-201760I0J-1250D01*
G01Y-201790D01*
G02X602400Y-203040I-1250J0D01*
G01X576180D01*
G03X574930Y-204290I0J-1250D01*
G01Y-218830D01*
G03X576180Y-220080I1250J0D01*
G01X602400D01*
G02X603650Y-221330I0J-1250D01*
G01Y-224660D01*
G02X602400Y-225910I-1250J0D01*
G01X439800D01*
G03X438550Y-227160I0J-1250D01*
G01Y-269110D01*
G02X437300Y-270360I-1250J0D01*
G01X382250D01*
G02X381000Y-269110I0J1250D01*
G37*
G36*
G01Y-84960D02*
Y-17610D01*
G02X382250Y-16360I1250J0D01*
G01X450000D01*
G03X451250Y-15110I0J1250D01*
G01Y33190D01*
G02X452500Y34440I1250J0D01*
G01X488100D01*
G02X489350Y33190I0J-1250D01*
G01Y-15110D01*
G03X490600Y-16360I1250J0D01*
G01X508330D01*
G02X509580Y-17610I0J-1250D01*
G01Y-19430D01*
G03X510830Y-20680I1250J0D01*
G01X531370D01*
G03X532620Y-19430I0J1250D01*
G01Y-17610D01*
G02X533870Y-16360I1250J0D01*
G01X602400D01*
G02X603650Y-17610I0J-1250D01*
G01Y-17640D01*
G02X602400Y-18890I-1250J0D01*
G01X576180D01*
G03X574930Y-20140I0J-1250D01*
G01Y-34680D01*
G03X576180Y-35930I1250J0D01*
G01X602400D01*
G02X603650Y-37180I0J-1250D01*
G01Y-40510D01*
G02X602400Y-41760I-1250J0D01*
G01X439800D01*
G03X438550Y-43010I0J-1250D01*
G01Y-84960D01*
G02X437300Y-86210I-1250J0D01*
G01X382250D01*
G02X381000Y-84960I0J1250D01*
G37*
G36*
G01Y86490D02*
Y153840D01*
G02X382250Y155090I1250J0D01*
G01X449600D01*
G03X450850Y156340I0J1250D01*
G01Y204640D01*
G02X452100Y205890I1250J0D01*
G01X487700D01*
G02X488950Y204640I0J-1250D01*
G01Y156340D01*
G03X490200Y155090I1250J0D01*
G01X507930D01*
G02X509180Y153840I0J-1250D01*
G01Y152020D01*
G03X510430Y150770I1250J0D01*
G01X530970D01*
G03X532220Y152020I0J1250D01*
G01Y153840D01*
G02X533470Y155090I1250J0D01*
G01X602000D01*
G02X603250Y153840I0J-1250D01*
G01Y153810D01*
G02X602000Y152560I-1250J0D01*
G01X575780D01*
G03X574530Y151310I0J-1250D01*
G01Y136770D01*
G03X575780Y135520I1250J0D01*
G01X602000D01*
G02X603250Y134270I0J-1250D01*
G01Y130940D01*
G02X602000Y129690I-1250J0D01*
G01X439400D01*
G03X438150Y128440I0J-1250D01*
G01Y86490D01*
G02X436900Y85240I-1250J0D01*
G01X382250D01*
G02X381000Y86490I0J1250D01*
G37*
G36*
G01X463950Y-269110D02*
Y-252560D01*
G02X465200Y-251310I1250J0D01*
G01X640500D01*
G02X641750Y-252560I0J-1250D01*
G01Y-269110D01*
G02X640500Y-270360I-1250J0D01*
G01X465200D01*
G02X463950Y-269110I0J1250D01*
G37*
G36*
G01X622700Y-211960D02*
Y-182710D01*
G03X621450Y-181460I-1250J0D01*
G01X509650D01*
G02X508400Y-180210I0J1250D01*
G01Y-178380D01*
G02X509650Y-177130I1250J0D01*
G01X531370D01*
G03X532620Y-175880I0J1250D01*
G01Y-159340D01*
G03X531370Y-158090I-1250J0D01*
G01X509650D01*
G02X508400Y-156840I0J1250D01*
G01Y-150960D01*
G02X509650Y-149710I1250J0D01*
G01X653200D01*
G02X654450Y-150960I0J-1250D01*
G01Y-211960D01*
G02X653200Y-213210I-1250J0D01*
G01X623950D01*
G02X622700Y-211960I0J1250D01*
G37*
G36*
G01X463950Y-84960D02*
Y-68410D01*
G02X465200Y-67160I1250J0D01*
G01X640500D01*
G02X641750Y-68410I0J-1250D01*
G01Y-84960D01*
G02X640500Y-86210I-1250J0D01*
G01X465200D01*
G02X463950Y-84960I0J1250D01*
G37*
G36*
G01X622700Y-27810D02*
Y1440D01*
G03X621450Y2690I-1250J0D01*
G01X509650D01*
G02X508400Y3940I0J1250D01*
G01Y5770D01*
G02X509650Y7020I1250J0D01*
G01X531370D01*
G03X532620Y8270I0J1250D01*
G01Y24810D01*
G03X531370Y26060I-1250J0D01*
G01X509650D01*
G02X508400Y27310I0J1250D01*
G01Y33190D01*
G02X509650Y34440I1250J0D01*
G01X653200D01*
G02X654450Y33190I0J-1250D01*
G01Y-27810D01*
G02X653200Y-29060I-1250J0D01*
G01X623950D01*
G02X622700Y-27810I0J1250D01*
G37*
G36*
G01X463550Y86490D02*
Y103040D01*
G02X464800Y104290I1250J0D01*
G01X640100D01*
G02X641350Y103040I0J-1250D01*
G01Y86490D01*
G02X640100Y85240I-1250J0D01*
G01X464800D01*
G02X463550Y86490I0J1250D01*
G37*
G36*
G01X622300Y143640D02*
Y172890D01*
G03X621050Y174140I-1250J0D01*
G01X509250D01*
G02X508000Y175390I0J1250D01*
G01Y177220D01*
G02X509250Y178470I1250J0D01*
G01X530970D01*
G03X532220Y179720I0J1250D01*
G01Y196260D01*
G03X530970Y197510I-1250J0D01*
G01X509250D01*
G02X508000Y198760I0J1250D01*
G01Y204640D01*
G02X509250Y205890I1250J0D01*
G01X652800D01*
G02X654050Y204640I0J-1250D01*
G01Y143640D01*
G02X652800Y142390I-1250J0D01*
G01X623550D01*
G02X622300Y143640I0J1250D01*
G37*
G36*
G01X681100Y-149710D02*
X735750D01*
G02X737000Y-150960I0J-1250D01*
G01Y-243710D01*
G02X735750Y-244960I-1250J0D01*
G01X681100D01*
G02X679850Y-243710I0J1250D01*
G01Y-150960D01*
G02X681100Y-149710I1250J0D01*
G37*
G36*
G01X681090Y34440D02*
X735740D01*
G02X736990Y33180I2J-1248D01*
G01X736610Y-59570D01*
G02X735360Y-60810I-1252J12D01*
G01X680710D01*
G02X679460Y-59550I-2J1248D01*
G01X679840Y33200D01*
G02X681090Y34440I1252J-12D01*
G37*
G36*
G01X680700Y205890D02*
X735350D01*
G02X736600Y204640I0J-1250D01*
G01Y111890D01*
G02X735350Y110640I-1250J0D01*
G01X680700D01*
G02X679450Y111890I0J1250D01*
G01Y204640D01*
G02X680700Y205890I1250J0D01*
G37*
%LPC*%
G75*
G36*
G01X-60820Y11020D02*
X-40780D01*
G02X-39780Y10020I0J-1000D01*
G01Y-10020D01*
G02X-40780Y-11020I-1000J0D01*
G01X-60820D01*
G02X-61820Y-10020I0J1000D01*
G01Y10020D01*
G02X-60820Y11020I1000J0D01*
G37*
G36*
G01X-35420D02*
X-15380D01*
G02X-14380Y10020I0J-1000D01*
G01Y-10020D01*
G02X-15380Y-11020I-1000J0D01*
G01X-35420D01*
G02X-36420Y-10020I0J1000D01*
G01Y10020D01*
G02X-35420Y11020I1000J0D01*
G37*
G36*
G01X-10020D02*
X10020D01*
G02X11020Y10020I0J-1000D01*
G01Y-10020D01*
G02X10020Y-11020I-1000J0D01*
G01X-10020D01*
G02X-11020Y-10020I0J1000D01*
G01Y10020D01*
G02X-10020Y11020I1000J0D01*
G37*
G36*
G01X-60820Y239620D02*
X-40780D01*
G02X-39780Y238620I0J-1000D01*
G01Y218580D01*
G02X-40780Y217580I-1000J0D01*
G01X-60820D01*
G02X-61820Y218580I0J1000D01*
G01Y238620D01*
G02X-60820Y239620I1000J0D01*
G37*
G36*
G01X-35420D02*
X-15380D01*
G02X-14380Y238620I0J-1000D01*
G01Y218580D01*
G02X-15380Y217580I-1000J0D01*
G01X-35420D01*
G02X-36420Y218580I0J1000D01*
G01Y238620D01*
G02X-35420Y239620I1000J0D01*
G37*
G36*
G01X-10020D02*
X10020D01*
G02X11020Y238620I0J-1000D01*
G01Y218580D01*
G02X10020Y217580I-1000J0D01*
G01X-10020D01*
G02X-11020Y218580I0J1000D01*
G01Y238620D01*
G02X-10020Y239620I1000J0D01*
G37*
G36*
G01X112430Y-339580D02*
X132470D01*
G02X133470Y-340580I0J-1000D01*
G01Y-360620D01*
G02X132470Y-361620I-1000J0D01*
G01X112430D01*
G02X111430Y-360620I0J1000D01*
G01Y-340580D01*
G02X112430Y-339580I1000J0D01*
G37*
G36*
G01X-35170Y493620D02*
X-15630D01*
G02X-14380Y492370I0J-1250D01*
G01Y472830D01*
G02X-15630Y471580I-1250J0D01*
G01X-35170D01*
G02X-36420Y472830I0J1250D01*
G01Y492370D01*
G02X-35170Y493620I1250J0D01*
G37*
G36*
G01X-9770D02*
X9770D01*
G02X11020Y492370I0J-1250D01*
G01Y472830D01*
G02X9770Y471580I-1250J0D01*
G01X-9770D01*
G02X-11020Y472830I0J1250D01*
G01Y492370D01*
G02X-9770Y493620I1250J0D01*
G37*
G36*
G01X358530Y411070D02*
X378070D01*
G02X379320Y409820I0J-1250D01*
G01Y390280D01*
G02X378070Y389030I-1250J0D01*
G01X358530D01*
G02X357280Y390280I0J1250D01*
G01Y409820D01*
G02X358530Y411070I1250J0D01*
G37*
G36*
G01X467730Y-152740D02*
X482270D01*
G02X483520Y-153990I0J-1250D01*
G01Y-183530D01*
G02X482270Y-184780I-1250J0D01*
G01X467730D01*
G02X466480Y-183530I0J1250D01*
G01Y-153990D01*
G02X467730Y-152740I1250J0D01*
G37*
G36*
G01X538080Y-203040D02*
X567620D01*
G02X568870Y-204290I0J-1250D01*
G01Y-218830D01*
G02X567620Y-220080I-1250J0D01*
G01X538080D01*
G02X536830Y-218830I0J1250D01*
G01Y-204290D01*
G02X538080Y-203040I1250J0D01*
G37*
G36*
G01X467730Y31410D02*
X482270D01*
G02X483520Y30160I0J-1250D01*
G01Y620D01*
G02X482270Y-630I-1250J0D01*
G01X467730D01*
G02X466480Y620I0J1250D01*
G01Y30160D01*
G02X467730Y31410I1250J0D01*
G37*
G36*
G01X538080Y-18890D02*
X567620D01*
G02X568870Y-20140I0J-1250D01*
G01Y-34680D01*
G02X567620Y-35930I-1250J0D01*
G01X538080D01*
G02X536830Y-34680I0J1250D01*
G01Y-20140D01*
G02X538080Y-18890I1250J0D01*
G37*
G36*
G01X467330Y202860D02*
X481870D01*
G02X483120Y201610I0J-1250D01*
G01Y172070D01*
G02X481870Y170820I-1250J0D01*
G01X467330D01*
G02X466080Y172070I0J1250D01*
G01Y201610D01*
G02X467330Y202860I1250J0D01*
G37*
G36*
G01X537680Y152560D02*
X567220D01*
G02X568470Y151310I0J-1250D01*
G01Y136770D01*
G02X567220Y135520I-1250J0D01*
G01X537680D01*
G02X536430Y136770I0J1250D01*
G01Y151310D01*
G02X537680Y152560I1250J0D01*
G37*
G36*
G01X576180Y-155540D02*
X605720D01*
G02X606970Y-156790I0J-1250D01*
G01Y-171330D01*
G02X605720Y-172580I-1250J0D01*
G01X576180D01*
G02X574930Y-171330I0J1250D01*
G01Y-156790D01*
G02X576180Y-155540I1250J0D01*
G37*
G36*
G01X538080D02*
X567620D01*
G02X568870Y-156790I0J-1250D01*
G01Y-171330D01*
G02X567620Y-172580I-1250J0D01*
G01X538080D01*
G02X536830Y-171330I0J1250D01*
G01Y-156790D01*
G02X538080Y-155540I1250J0D01*
G37*
G36*
G01X576180Y28610D02*
X605720D01*
G02X606970Y27360I0J-1250D01*
G01Y12820D01*
G02X605720Y11570I-1250J0D01*
G01X576180D01*
G02X574930Y12820I0J1250D01*
G01Y27360D01*
G02X576180Y28610I1250J0D01*
G37*
G36*
G01X538080D02*
X567620D01*
G02X568870Y27360I0J-1250D01*
G01Y12820D01*
G02X567620Y11570I-1250J0D01*
G01X538080D01*
G02X536830Y12820I0J1250D01*
G01Y27360D01*
G02X538080Y28610I1250J0D01*
G37*
G36*
G01X575780Y200060D02*
X605320D01*
G02X606570Y198810I0J-1250D01*
G01Y184270D01*
G02X605320Y183020I-1250J0D01*
G01X575780D01*
G02X574530Y184270I0J1250D01*
G01Y198810D01*
G02X575780Y200060I1250J0D01*
G37*
G36*
G01X537680D02*
X567220D01*
G02X568470Y198810I0J-1250D01*
G01Y184270D01*
G02X567220Y183020I-1250J0D01*
G01X537680D01*
G02X536430Y184270I0J1250D01*
G01Y198810D01*
G02X537680Y200060I1250J0D01*
G37*
G54D28*
X-50800Y25400D03*
Y50800D03*
Y76200D03*
X-25400Y25400D03*
Y50800D03*
Y76200D03*
X0Y25400D03*
Y50800D03*
Y76200D03*
X-50800Y101600D03*
Y127000D03*
Y152400D03*
X-25400Y101600D03*
Y127000D03*
Y152400D03*
X0Y101600D03*
Y127000D03*
Y152400D03*
X-50800Y177800D03*
Y203200D03*
X-25400Y177800D03*
Y203200D03*
X0Y177800D03*
Y203200D03*
X-50800Y254000D03*
Y279400D03*
X-25400Y254000D03*
Y279400D03*
X0Y254000D03*
Y279400D03*
X147850Y-350600D03*
X-25400Y457200D03*
X0D03*
X-25400Y508000D03*
Y533400D03*
X0Y508000D03*
Y533400D03*
X-25400Y558800D03*
Y584200D03*
Y609600D03*
X0Y558800D03*
Y584200D03*
Y609600D03*
X393700Y400050D03*
G54D29*
X806450Y-1089510D03*
Y-987910D03*
Y-1038710D03*
Y-835510D03*
Y-784710D03*
Y-733910D03*
Y-530710D03*
Y-581510D03*
Y-479910D03*
%LPD*%
G75*
G54D10*
X-69850Y-1130300D03*
Y-990600D03*
Y-882650D03*
Y-749300D03*
Y-647700D03*
Y-533400D03*
Y-400050D03*
Y-298450D03*
Y-196850D03*
Y-19050D03*
Y95250D03*
Y177800D03*
Y266700D03*
Y330200D03*
X-19050Y-882650D03*
Y-749300D03*
Y-647700D03*
Y-533400D03*
Y-400050D03*
Y-298450D03*
Y-196850D03*
Y-57150D03*
X12700Y165100D03*
X44450Y-1130300D03*
X50800Y-952500D03*
X57150Y-901700D03*
X50800Y-857250D03*
X19050D03*
X76200Y-863600D03*
Y-825500D03*
Y-749300D03*
X50800D03*
X76200Y-787400D03*
X50800Y-685800D03*
X82550Y-673100D03*
X19050Y-647700D03*
X50800Y-635000D03*
X82550Y-654050D03*
X76200Y-609600D03*
X19050Y-533400D03*
X50800D03*
X76200Y-571500D03*
Y-533400D03*
X82550Y-400050D03*
X19050D03*
X50800D03*
X82550Y-419100D03*
Y-298450D03*
X19050D03*
X50800D03*
X82550Y-196850D03*
X19050D03*
X50800D03*
X82550Y-101600D03*
X50800Y-88900D03*
X19050Y-76200D03*
X63500Y-25400D03*
X25400Y-6350D03*
X63500Y57150D03*
X38100Y101600D03*
X25400Y69850D03*
X63500Y165100D03*
Y190500D03*
X68000Y219000D03*
X63500Y266700D03*
Y241300D03*
X76200Y285750D03*
X63500Y469900D03*
X14000Y445000D03*
X63500Y444500D03*
Y495300D03*
Y546100D03*
Y520700D03*
Y596900D03*
Y571500D03*
Y622300D03*
X152400Y-1130300D03*
Y-1022350D03*
Y-1047750D03*
X95250Y-996950D03*
X101600Y-952500D03*
X139700Y-996950D03*
X152400Y-971550D03*
X88900Y-927100D03*
X92300Y-884880D03*
X120650Y-806450D03*
X139700Y-768350D03*
X120650Y-742950D03*
X101600Y-787400D03*
X114300Y-704850D03*
X88900D03*
X120650Y-673100D03*
X88900Y-730250D03*
X120650Y-654050D03*
X92300Y-630880D03*
X120650Y-552450D03*
X101600Y-533400D03*
X114300Y-450850D03*
X88900D03*
X114300Y-501650D03*
X88900Y-476250D03*
X139700Y-514350D03*
X120650Y-419100D03*
X127000Y-285750D03*
X114300Y-196850D03*
Y-63500D03*
X95250Y-38100D03*
Y50800D03*
X114300Y228600D03*
X88900Y622300D03*
X139700Y641350D03*
X215900Y-1111250D03*
Y-1092200D03*
X184150Y-1098550D03*
X215000Y-1130000D03*
X190500Y-1028700D03*
X196000Y-1074000D03*
X171450Y-952500D03*
X203200Y-965200D03*
X188000Y-1000000D03*
X202000Y-982000D03*
X171450Y-927100D03*
X158750Y-889000D03*
X190500Y-882650D03*
X215900Y-914400D03*
Y-869950D03*
Y-850900D03*
X196850Y-819150D03*
X163200Y-828600D03*
X215900Y-742950D03*
X196850Y-755650D03*
X190500Y-793750D03*
X203200Y-711200D03*
X207200Y-688600D03*
X209550Y-660400D03*
X158750D03*
X171450Y-730250D03*
X165100Y-717550D03*
X203200Y-723900D03*
X158750Y-635000D03*
X190500Y-628650D03*
X215900Y-615950D03*
Y-596900D03*
X190500Y-539750D03*
X163200Y-574600D03*
X196850Y-565150D03*
X171450Y-476250D03*
X196850Y-501650D03*
X203200Y-469900D03*
X215900Y-488950D03*
X203200Y-457200D03*
X209550Y-406400D03*
X158750D03*
X207200Y-434600D03*
X177800Y-336550D03*
X222250Y-171450D03*
Y-133350D03*
X209550Y469900D03*
X203200Y444500D03*
X215900Y495300D03*
X222250Y520700D03*
Y641350D03*
X266000Y-1130000D03*
X266700Y-1102210D03*
X247650Y-1085850D03*
Y-1073150D03*
Y-996950D03*
X248700Y-968860D03*
X266700Y-956160D03*
X247650Y-908050D03*
Y-844550D03*
Y-825500D03*
Y-869950D03*
X266700Y-857250D03*
X247650Y-742950D03*
X234950Y-793750D03*
X247650Y-666750D03*
X248510Y-714860D03*
X266700Y-679450D03*
X247650Y-615950D03*
Y-590550D03*
X266700Y-603250D03*
X234950Y-539750D03*
X247650Y-571500D03*
Y-488950D03*
X248700Y-460860D03*
X247650Y-406400D03*
X266700Y-425450D03*
X279400Y-222250D03*
Y-184150D03*
X241300Y-107950D03*
X285750Y-101600D03*
Y-156060D03*
X263960Y52240D03*
X241300Y31750D03*
X285750Y28090D03*
X279400Y0D03*
X285750Y88900D03*
X260350Y184150D03*
X279400Y171450D03*
X285750Y199540D03*
Y279400D03*
X279400Y387350D03*
Y469900D03*
X298450Y520700D03*
X356450Y-1131960D03*
X355600Y-1108560D03*
X370450Y-957960D03*
X356450Y-931960D03*
Y-877960D03*
X355600Y-854560D03*
X356450Y-677960D03*
X355600Y-600560D03*
X356450Y-623960D03*
Y-423960D03*
X304800Y-215900D03*
Y-31750D03*
Y139700D03*
X311150Y304800D03*
X368300Y476250D03*
X349250Y527050D03*
X304800Y546100D03*
X349250Y488950D03*
Y552450D03*
X323850Y622300D03*
X317500Y596900D03*
X349250Y603250D03*
X311150Y571500D03*
X349250Y577850D03*
Y641350D03*
X388450Y-1097960D03*
X419100Y-1098550D03*
X418780Y-1134390D03*
X387350Y-1114910D03*
X381000Y-1045060D03*
X419100Y-1073150D03*
X381000Y-1019660D03*
X419100Y-956160D03*
Y-975210D03*
X416450Y-931960D03*
X425450Y-879960D03*
X406400Y-943460D03*
X387350Y-860910D03*
X419100Y-835510D03*
X388450Y-844110D03*
X381000Y-791060D03*
X425450Y-740260D03*
X438150Y-791060D03*
X381000Y-765660D03*
X406400Y-689460D03*
X425450Y-708510D03*
X406400Y-702160D03*
X416450Y-676960D03*
X372450Y-703960D03*
X387350Y-606910D03*
X388450Y-590110D03*
X425450Y-625960D03*
X419100Y-581510D03*
X438150Y-537060D03*
X381000D03*
X425450Y-454510D03*
X406400Y-448160D03*
X425450Y-486260D03*
X372450Y-449960D03*
X381000Y-511660D03*
X406400Y-435460D03*
X416450Y-422960D03*
X406800Y-156060D03*
Y28090D03*
X406400Y199540D03*
X387350Y304800D03*
X431800D03*
X393700Y488950D03*
X431800Y641350D03*
X450850Y-1102210D03*
X488950Y-1140310D03*
X450850Y-1133960D03*
X445000Y-1045000D03*
X488950Y-1051410D03*
X450850Y-1019660D03*
X488950Y-1013310D03*
X450850Y-994260D03*
X488950Y-937110D03*
X476250Y-886310D03*
X450850Y-848210D03*
X469900Y-822810D03*
X508000Y-803760D03*
X488950Y-867260D03*
X476250Y-733910D03*
X508000Y-765660D03*
X476250Y-759310D03*
X450850Y-765660D03*
X476250Y-708510D03*
Y-683110D03*
X488950Y-613260D03*
X450850Y-594210D03*
X476250Y-632310D03*
X508000Y-549760D03*
X469900Y-568810D03*
X508000Y-511660D03*
X476250Y-505310D03*
X450850Y-511660D03*
X476250Y-479910D03*
Y-454510D03*
Y-429110D03*
X478950Y311150D03*
X450850Y336550D03*
Y387350D03*
Y469900D03*
X482600Y488950D03*
X444500Y539750D03*
X450850Y609600D03*
X478950Y635000D03*
X539750Y-1140310D03*
Y-1076810D03*
Y-987910D03*
Y-937110D03*
X533400Y-886310D03*
Y-822810D03*
Y-854560D03*
Y-784710D03*
Y-752960D03*
Y-708510D03*
Y-683110D03*
Y-632310D03*
Y-600560D03*
Y-530710D03*
Y-568810D03*
Y-454510D03*
Y-498960D03*
Y-429110D03*
X527450Y-213210D03*
Y-29060D03*
X527050Y142390D03*
X609600Y-1140310D03*
Y-1114910D03*
Y-1076810D03*
Y-987910D03*
Y-937110D03*
X647700Y-886310D03*
X609600D03*
X647700Y-822810D03*
X609600D03*
Y-860910D03*
X647700Y-752960D03*
X609600Y-784710D03*
Y-759310D03*
X647700Y-683110D03*
X609600Y-727560D03*
Y-683110D03*
X647700Y-632310D03*
X609600D03*
Y-606910D03*
X647700Y-568810D03*
X609600Y-530710D03*
Y-568810D03*
X647700Y-498960D03*
X609600Y-505310D03*
Y-473560D03*
X647700Y-429110D03*
X609600D03*
X685800Y-1133960D03*
Y-1121260D03*
X723900Y-1095860D03*
X685800Y-1057760D03*
Y-1070460D03*
X723900Y-1038710D03*
X685800Y-1019660D03*
Y-1006960D03*
Y-956160D03*
X723900Y-981560D03*
X685800Y-943460D03*
Y-879960D03*
Y-803760D03*
Y-816460D03*
X723900Y-841860D03*
X685800Y-867260D03*
X723900Y-784710D03*
X685800Y-765660D03*
Y-752960D03*
X723900Y-727560D03*
X685800Y-702160D03*
Y-689460D03*
X723900Y-587860D03*
X685800Y-613260D03*
Y-625960D03*
X723900Y-530710D03*
X685800Y-549760D03*
Y-562460D03*
X723900Y-473560D03*
X685800Y-511660D03*
Y-448160D03*
Y-498960D03*
Y-435460D03*
X781050Y-1114910D03*
Y-1064110D03*
Y-1013310D03*
Y-962510D03*
Y-810110D03*
Y-860910D03*
Y-759310D03*
Y-708510D03*
Y-606910D03*
Y-556110D03*
Y-454510D03*
Y-505310D03*
X825500Y-810110D03*
Y-860910D03*
Y-759310D03*
Y-708510D03*
Y-606910D03*
Y-556110D03*
Y-505310D03*
Y-454510D03*
G54D20*
X558500Y288440D03*
Y390040D03*
Y491640D03*
Y593240D03*
G54D11*
X-76200Y-50800D03*
Y838200D03*
G54D21*
X806450Y-1191110D03*
Y-117960D03*
G54D12*
G01X0Y330200D02*
X54520D01*
G02X59010Y328340I0J-6350D01*
G01X131490Y255860D01*
G02X133350Y251370I-4490J-4490D01*
G01Y-264070D01*
G03X135210Y-268560I6350J0D01*
G01X264840Y-398190D01*
G02X266700Y-402690I-4514J-4500D01*
G01Y-425450D01*
G01Y-1102210D02*
Y-956160D01*
G01D02*
Y-857250D01*
G01Y-679450D02*
Y-857250D01*
G01Y-679450D02*
Y-603250D01*
G01D02*
Y-425450D01*
G01X730250Y-158750D02*
Y-129630D01*
G02X732110Y-125140I6350J0D01*
G01X788230Y-69020D01*
G02X792720Y-67160I4490J-4490D01*
G01X806450D01*
G01X730250Y19050D02*
X743780Y32580D01*
G02X748270Y34440I4490J-4490D01*
G01X806450D01*
G01X730250Y139700D02*
X733910Y136040D01*
G01D02*
X806450D01*
X-10800Y-1393350D03*
Y846650D03*
X809200Y-1393350D03*
Y846650D03*
G54D13*
X-50800Y0D03*
X-25400D03*
X0D03*
X-50800Y228600D03*
X-25400D03*
X0D03*
X-50800Y482600D03*
X-25400D03*
X0D03*
X-50800Y736600D03*
X-25400D03*
X0D03*
X122450Y-350600D03*
X368300Y400050D03*
G54D22*
X806450Y-1089510D03*
Y-1140310D03*
Y-1038710D03*
Y-937110D03*
Y-987910D03*
Y-886310D03*
Y-835510D03*
Y-733910D03*
Y-784710D03*
Y-683110D03*
Y-581510D03*
Y-632310D03*
Y-530710D03*
Y-479910D03*
Y-429110D03*
Y-16360D03*
Y-67160D03*
Y34440D03*
Y136040D03*
Y85240D03*
Y186840D03*
Y237640D03*
Y339240D03*
Y288440D03*
Y390040D03*
Y491640D03*
Y440840D03*
Y542440D03*
Y593240D03*
Y644040D03*
G54D23*
X889200Y-1384300D03*
Y838200D03*
G54D14*
X-50800Y25400D03*
Y50800D03*
X-25400Y25400D03*
Y50800D03*
X0Y25400D03*
Y50800D03*
X-50800Y76200D03*
Y101600D03*
Y127000D03*
X-25400Y76200D03*
Y101600D03*
Y127000D03*
X0Y76200D03*
Y101600D03*
Y127000D03*
X-50800Y152400D03*
Y177800D03*
Y203200D03*
X-25400Y152400D03*
Y177800D03*
Y203200D03*
X0Y152400D03*
Y177800D03*
Y203200D03*
X-50800Y254000D03*
X-25400D03*
X0D03*
X-50800Y279400D03*
Y304800D03*
Y330200D03*
X-25400Y279400D03*
Y304800D03*
Y330200D03*
X0Y279400D03*
Y304800D03*
Y330200D03*
X-50800Y355600D03*
Y381000D03*
Y406400D03*
X-25400Y355600D03*
Y381000D03*
Y406400D03*
X0Y355600D03*
Y381000D03*
Y406400D03*
X-50800Y431800D03*
Y457200D03*
X-25400Y431800D03*
Y457200D03*
X0Y431800D03*
Y457200D03*
X-50800Y508000D03*
Y533400D03*
Y558800D03*
X-25400Y508000D03*
Y533400D03*
Y558800D03*
X0Y508000D03*
Y533400D03*
Y558800D03*
X-50800Y584200D03*
Y609600D03*
Y635000D03*
X-25400Y584200D03*
Y609600D03*
Y635000D03*
X0Y584200D03*
Y609600D03*
Y635000D03*
X-50800Y660400D03*
Y685800D03*
X-25400Y660400D03*
Y685800D03*
X0Y660400D03*
Y685800D03*
X-50800Y711200D03*
Y762000D03*
X-25400Y711200D03*
Y762000D03*
X0Y711200D03*
Y762000D03*
X-50800Y787400D03*
X-25400D03*
X0D03*
X147850Y-350600D03*
X393700Y400050D03*
X558500Y339240D03*
Y440840D03*
Y542440D03*
Y644040D03*
X609300Y339240D03*
X634700D03*
X660100D03*
Y288440D03*
X634700D03*
X609300D03*
X660100Y390040D03*
X634700D03*
X609300D03*
X660100Y491640D03*
X634700D03*
X609300D03*
Y440840D03*
X634700D03*
X660100D03*
X609300Y542440D03*
X634700D03*
X660100D03*
Y593240D03*
X634700D03*
X609300D03*
Y644040D03*
X634700D03*
X660100D03*
G54D24*
G01X387350Y-1114910D02*
X357460Y-1085020D01*
G02X355600Y-1080530I4490J4490D01*
G01Y-958790D01*
G02X357460Y-954300I6350J0D01*
G01X366440Y-945320D01*
G02X370930Y-943460I4490J-4490D01*
G01X406400D01*
G01X387350Y-860910D02*
X357460Y-831020D01*
G02X355600Y-826530I4490J4490D01*
G01Y-704790D01*
G02X357460Y-700300I6350J0D01*
G01X366440Y-691320D01*
G02X370930Y-689460I4490J-4490D01*
G01X406400D01*
G01X387350Y-606910D02*
X357460Y-577020D01*
G02X355600Y-572530I4490J4490D01*
G01Y-450790D01*
G02X357460Y-446300I6350J0D01*
G01X366440Y-437320D01*
G02X370930Y-435460I4490J-4490D01*
G01X406400D01*
G01X426250Y-257660D02*
X425850Y-257260D01*
G01X426250Y-73510D02*
X425850Y-73110D01*
G01Y97940D02*
X425450Y98340D01*
G54D15*
X426250Y-257660D03*
Y-73510D03*
X425850Y97940D03*
X642150Y-200510D03*
Y-16360D03*
X641750Y155090D03*
G54D25*
G01X0Y330200D02*
X-10840Y341040D01*
G03X-15330Y342900I-4490J-4490D01*
G01X-35470D01*
G03X-39960Y341040I0J-6350D01*
G01X-50800Y330200D01*
G01X0D02*
X-10840Y319360D01*
G02X-15330Y317500I-4490J4490D01*
G01X-35470D01*
G02X-39960Y319360I0J6350D01*
G01X-50800Y330200D01*
G01X416410Y-157920D02*
X416660D01*
X427500Y-168760D01*
G01X416410Y-157920D02*
G03X411920Y-156060I-4490J-4490D01*
G01X406800D01*
G01X427500Y15390D02*
X427250D01*
X416410Y26230D01*
G03X411920Y28090I-4490J-4490D01*
G01X406800D01*
G01X406400Y199540D02*
X411770D01*
G02X416260Y197680I0J-6350D01*
G01X427100Y186840D01*
G54D16*
X427500Y-168760D03*
Y15390D03*
X427100Y186840D03*
X475000Y-168760D03*
Y15390D03*
X474600Y186840D03*
G54D26*
G01X786930Y-1038710D02*
X806450D01*
G01Y-1058230D02*
Y-1038710D01*
G01D02*
Y-1019190D01*
G01Y-1038710D02*
X825970D01*
G54D17*
X476250Y-257660D03*
Y-73510D03*
X475850Y97940D03*
X692150Y-200510D03*
Y-16360D03*
X691750Y155090D03*
G54D27*
G01X-62820Y304800D02*
X-50800D01*
G01X-60730Y625070D02*
X-50800Y635000D01*
G01X0Y292780D02*
Y304800D01*
G01D02*
Y316820D01*
G01X-12020Y304800D02*
X0D01*
G01D02*
X12020D01*
G01X-50800Y292780D02*
Y304800D01*
G01D02*
Y316820D01*
G01Y304800D02*
X-38780D01*
G01X-37670Y470330D02*
X-25400Y482600D01*
G01D02*
X-13130Y494870D01*
G01X-35330Y447270D02*
X-25400Y457200D01*
G01D02*
X-15470Y467130D01*
G01X-35330Y548870D02*
X-25400Y558800D01*
G01X-35330Y523470D02*
X-25400Y533400D01*
G01D02*
X-15470Y543330D01*
G01X-35330Y498070D02*
X-25400Y508000D01*
G01D02*
X-15470Y517930D01*
G01X-9930Y625070D02*
X0Y635000D01*
G01X-35330Y625070D02*
X-25400Y635000D01*
G01X-35330Y599670D02*
X-25400Y609600D01*
G01D02*
X-15470Y619530D01*
G01X-35330Y574270D02*
X-25400Y584200D01*
G01D02*
X-15470Y594130D01*
G01X-25400Y558800D02*
X-15470Y568730D01*
G01X-12020Y660400D02*
X0D01*
G01D02*
X12020D01*
G01X-37420D02*
X-25400D01*
G01D02*
X-13380D01*
G01X-50800D02*
X-38780D01*
G01X-50800D02*
X-41300Y669900D01*
G01X0Y635000D02*
X12270D01*
G01X-25400D02*
X-15470Y644930D01*
G01X-50800Y635000D02*
X-40870Y644930D01*
G01X147850Y-362620D02*
Y-350600D01*
G01D02*
Y-338580D01*
G01X135830Y-350600D02*
X147850D01*
G01D02*
X159870D01*
G01X122450Y-362620D02*
Y-350600D01*
G01D02*
Y-338580D01*
G01X110430Y-350600D02*
X122450D01*
G01D02*
X134470D01*
G01X368300Y387780D02*
Y400050D01*
G01D02*
Y412320D01*
G01X356030Y400050D02*
X368300D01*
G01X393700Y387780D02*
Y400050D01*
G01D02*
Y412320D01*
G01Y400050D02*
X405970D01*
G01X508330Y-205250D02*
X521100Y-195310D01*
G01X475000Y-186030D02*
Y-168760D01*
G01D02*
Y-151490D01*
G01X465230Y-168760D02*
X475000D01*
G01D02*
X484770D01*
G01X508330Y-21100D02*
X521100Y-11160D01*
G01X475000Y-1880D02*
Y15390D01*
G01D02*
Y32660D01*
G01X465230Y15390D02*
X475000D01*
G01D02*
X484770D01*
G01X474600Y169570D02*
Y186840D01*
G01D02*
Y204110D01*
G01X464830Y186840D02*
X474600D01*
G01D02*
X484370D01*
G01X507930Y150350D02*
X520700Y160290D01*
G01X552850Y-221330D02*
Y-211560D01*
G01D02*
Y-201790D01*
G01X535580Y-211560D02*
X552850D01*
G01D02*
X570120D01*
G01X573680D02*
X590950D01*
G01X521100Y-206080D02*
Y-195310D01*
G01X552850Y-173830D02*
Y-164060D01*
G01D02*
Y-154290D01*
G01X535580Y-164060D02*
X552850D01*
G01D02*
X570120D01*
G01X573680D02*
X590950D01*
G01X521100Y-178380D02*
Y-167610D01*
G01D02*
Y-156840D01*
G01Y-167610D02*
X533870D01*
G01X552850Y-37180D02*
Y-27410D01*
G01D02*
Y-17640D01*
G01X535580Y-27410D02*
X552850D01*
G01D02*
X570120D01*
G01X573680D02*
X590950D01*
G01X521100Y-21930D02*
Y-11160D01*
G01X552850Y10320D02*
Y20090D01*
G01D02*
Y29860D01*
G01X535580Y20090D02*
X552850D01*
G01D02*
X570120D01*
G01X573680D02*
X590950D01*
G01X521100Y5770D02*
Y16540D01*
G01D02*
Y27310D01*
G01Y16540D02*
X533870D01*
G01X552450Y181770D02*
Y191540D01*
G01D02*
Y201310D01*
G01X535180Y191540D02*
X552450D01*
G01D02*
X569720D01*
G01X573280D02*
X590550D01*
G01X520700Y177220D02*
Y187990D01*
G01D02*
Y198760D01*
G01Y187990D02*
X533470D01*
G01X552450Y134270D02*
Y144040D01*
G01D02*
Y153810D01*
G01X535180Y144040D02*
X552450D01*
G01D02*
X569720D01*
G01X573280D02*
X590550D01*
G01X520700Y149520D02*
Y160290D01*
G01X558500Y288440D02*
Y300460D01*
G01X546480Y288440D02*
X558500D01*
G01Y378020D02*
Y390040D01*
G01D02*
Y402060D01*
G01X546480Y390040D02*
X558500D01*
G01Y479620D02*
Y491640D01*
G01D02*
Y503660D01*
G01X546480Y491640D02*
X558500D01*
G01Y581220D02*
Y593240D01*
G01D02*
Y605260D01*
G01X546480Y593240D02*
X558500D01*
G01X590950Y-221330D02*
Y-211560D01*
G01D02*
Y-201790D01*
G01Y-173830D02*
Y-164060D01*
G01D02*
Y-154290D01*
G01Y-164060D02*
X608220D01*
G01X590950Y-37180D02*
Y-27410D01*
G01D02*
Y-17640D01*
G01Y10320D02*
Y20090D01*
G01D02*
Y29860D01*
G01Y20090D02*
X608220D01*
G01X590550Y181770D02*
Y191540D01*
G01D02*
Y201310D01*
G01Y191540D02*
X607820D01*
G01X590550Y134270D02*
Y144040D01*
G01D02*
Y153810D01*
G01X786930Y-784710D02*
X806450D01*
G01X786930Y-530710D02*
X806450D01*
G01Y-804230D02*
Y-784710D01*
G01D02*
Y-765190D01*
G01Y-784710D02*
X825970D01*
G01X806450Y-550230D02*
Y-530710D01*
G01D02*
Y-511190D01*
G01Y-530710D02*
X825970D01*
G54D18*
X520700Y160290D03*
Y187990D03*
X521100Y-195310D03*
Y-167610D03*
Y-11160D03*
Y16540D03*
G54D19*
X552850Y-164060D03*
Y-211560D03*
X590950Y-164060D03*
Y-211560D03*
X552850Y-27410D03*
X590950D03*
X552850Y20090D03*
X590950D03*
X552450Y191540D03*
Y144040D03*
X590550Y191540D03*
Y144040D03*
M02*
