M48
METRIC,TZ
T01C.4
T02C1.
T03C1.1
T04C1.8
T05C3.
T06C2.7
;LEADER: 12 
;HEADER: 
;CODE  : ASCII 
;FILE  : kvp_03v4-1-2.drl for  ... layers TOP and BOTTOM
;DESIGN: kvp_03v4.brd
;T01 Holesize 1. = 0.400000 Tolerance = +0.000000/-0.000000 PLATED MM Quantity = 414
;T02 Holesize 2. = 1.000000 Tolerance = +0.000000/-0.000000 PLATED MM Quantity = 132
;T03 Holesize 3. = 1.100000 Tolerance = +0.000000/-0.000000 PLATED MM Quantity = 12
;T04 Holesize 4. = 1.800000 Tolerance = +0.000000/-0.000000 PLATED MM Quantity = 32
;T05 Holesize 5. = 3.000000 Tolerance = +0.100000/-0.100000 PLATED MM Quantity = 2
;T06 Holesize 6. = 2.700000 Tolerance = +0.000000/-0.000000 NON_PLATED MM Quantity = 2
%
G90
T01
X527450Y-213210
Y-29060
X527050Y142390
X387350Y-1114910
X406400Y-943460
X685800Y-435460
Y-562460
Y-625960
Y-498960
X381000Y-511660
X685800Y-549760
Y-448160
Y-511660
Y-613260
X476250Y-632310
X356450Y-623960
X355600Y-600560
X425450Y-625960
X609600Y-606910
X781050
Y-556110
R02Y50800
X533400Y-568810
X609600Y-429110
X723900Y-473560
X609600Y-568810
X723900Y-530710
Y-587860
X372450Y-449960
X356450Y-423960
X609600Y-632310
X381000Y-537060
X609600Y-473560
X388450Y-590110
X425450Y-486260
X416450Y-422960
X450850Y-594210
X406400Y-448160
X425450Y-454510
X476250Y-429110
R02Y-25400
X450850Y-511660
X476250Y-505310
X469900Y-568810
X438150Y-537060
X508000Y-511660
Y-549760
X533400Y-600560
Y-632310
Y-530710
Y-498960
Y-429110
X419100Y-581510
X533400Y-454510
X609600Y-530710
Y-505310
X647700Y-429110
R02Y-69850
Y-632310
X825500Y-454510
R03Y-50800
X488950Y-613260
X356450Y-877960
X355600Y-854560
X388450Y-844110
X419100Y-835510
X425450Y-879960
X533400Y-854560
Y-886310
X476250
X488950Y-867260
X609600Y-860910
Y-886310
X685800Y-879960
Y-867260
X647700Y-886310
X723900Y-841860
X781050Y-860910
X825500
X381000Y-765660
X450850
X438150Y-791060
X476250Y-759310
X508000Y-765660
X533400Y-752960
X508000Y-803760
X533400Y-822810
Y-784710
X469900Y-822810
X609600Y-759310
Y-822810
Y-784710
X685800Y-752960
Y-765660
X647700Y-752960
X685800Y-816460
Y-803760
X647700Y-822810
X723900Y-784710
X781050Y-759310
X825500
X781050Y-810110
X825500
X356450Y-677960
X372450Y-703960
X416450Y-676960
X425450Y-740260
X406400Y-702160
X425450Y-708510
X476250Y-683110
X533400
X476250Y-708510
Y-733910
X533400Y-708510
X609600Y-683110
Y-727560
X685800Y-689460
X647700Y-683110
X685800Y-702160
X723900Y-727560
X781050Y-708510
X825500
X450850Y-848210
X381000Y-791060
X406400Y-689460
X387350Y-860910
X406400Y199540
X406800Y-156060
Y28090
X406400Y-435460
X387350Y-606910
X450850Y-1133960
X418780Y-1134390
X685800Y-943460
X609600Y-937110
X539750
X488950
X416450Y-931960
X781050Y-962510
Y-1013310
X723900Y-981560
X685800Y-956160
Y-1019660
Y-1006960
X609600Y-987910
X450850Y-1019660
X419100Y-975210
X450850Y-994260
X381000Y-1019660
X781050Y-1064110
X723900Y-1095860
Y-1038710
X685800Y-1070460
Y-1057760
X609600Y-1076810
X539750
X781050Y-1114910
X685800Y-1121260
Y-1133960
X609600Y-1114910
Y-1140310
X539750
X356450Y-931960
X370450Y-957960
X488950Y-1051410
X445000Y-1045000
X419100Y-1073150
X381000Y-1045060
X355600Y-1108560
X356450Y-1131960
X419100Y-1098550
X488950Y-1140310
X388450Y-1097960
X450850Y-1102210
X488950Y-1013310
X539750Y-987910
X419100Y-956160
X266700Y-679450
Y-603250
Y-425450
Y-956160
Y-1102210
Y-857250
X247650Y-571500
Y-1073150
Y-908050
X63500Y241300
X248510Y-714860
X248700Y-968860
X63500Y266700
X215900Y-914400
X248700Y-460860
X215000Y-1130000
X152400Y-1047750
X196000Y-1074000
X152400Y-971550
X184150Y-1098550
X247650Y-1085850
X127000Y-285750
X266000Y-1130000
X114300Y228600
X177800Y-336550
X76200Y285750
X196850Y-565150
X63500Y190500
X202000Y-982000
X247650Y-996950
X215900Y-1092200
X152400Y-1130300
X63500Y165100
X68000Y219000
X188000Y-1000000
X203200Y-723900
X-69850Y330200
Y266700
Y95250
Y177800
X139700Y-514350
X163200Y-574600
X203200Y-457200
X215900Y-488950
X247650
X215900Y-596900
Y-615950
X92300Y-630880
X203200Y-469900
X207200Y-434600
X88900Y-476250
X76200Y-533400
X101600
X114300Y-501650
X120650Y-552450
X76200Y-609600
Y-571500
X234950Y-539750
X190500
X247650Y-590550
Y-615950
X190500Y-628650
X158750Y-635000
X196850Y-501650
X120650Y-419100
X82550
X158750Y-406400
X209550
X247650
X171450Y-476250
X12700Y165100
X163200Y-828600
X234950Y-793750
X190500
X196850Y-819150
X92300Y-884880
X76200Y-825500
Y-863600
X165100Y-717550
X171450Y-730250
X88900
X76200Y-787400
X247650Y-666750
X158750Y-660400
X209550
X207200Y-688600
X82550Y-673100
X120650
X247650Y-742950
X196850Y-755650
X203200Y-711200
X215900Y-742950
X247650Y-869950
X190500Y-882650
X158750Y-889000
X215900Y-850900
Y-869950
X120650Y-806450
X101600Y-787400
X120650Y-742950
X139700Y-768350
X190500Y-1028700
X139700Y-996950
X101600Y-952500
X203200Y-965200
X171450Y-952500
X247650Y-825500
Y-844550
X120650Y-654050
X82550
X50800Y-635000
Y-533400
Y-400050
R02Y101600
Y-88900
X95250Y-38100
Y50800
X63500Y57150
Y-25400
X19050Y-196850
Y-76200
Y-298450
Y-400050
Y-533400
Y-647700
X50800Y-685800
X19050Y-857250
X57150Y-901700
X88900Y-927100
X171450
X95250Y-996950
X50800Y-952500
X-19050Y-882650
Y-749300
Y-647700
Y-533400
Y-400050
R02Y101600
Y-57150
X25400Y-6350
Y69850
X-69850Y-19050
X38100Y101600
X-69850Y-196850
R02Y-101600
Y-533400
Y-647700
Y-882650
Y-749300
Y-990600
Y-1130300
X44450
X215900Y-1111250
X152400Y-1022350
X82550Y-400050
R02Y101600
Y-101600
X114300Y-63500
Y-196850
X88900Y-450850
X114300
X88900Y-704850
X114300
X50800Y-749300
Y-857250
X76200Y-749300
X431800Y641350
X279400Y-184150
X349250Y577850
X279400Y0
X63500Y444500
X14000Y445000
X285750Y28090
X63500Y622300
X285750Y199540
Y-156060
X431800Y304800
X63500Y571500
X349250Y552450
X63500Y520700
X349250Y488950
X304800Y546100
X279400Y-222250
X349250Y527050
X279400Y171450
X285750Y279400
X88900Y622300
X63500Y546100
X139700Y641350
X279400Y387350
X311150Y571500
X450850Y609600
X285750Y-101600
X222250Y641350
X63500Y469900
X203200Y444500
X63500Y596900
X222250Y520700
X209550Y469900
X279400
X298450Y520700
X63500Y495300
X285750Y88900
X450850Y336550
X349250Y641350
X311150Y304800
X241300Y-107950
Y31750
X349250Y603250
X317500Y596900
X215900Y495300
X323850Y622300
X444500Y539750
X387350Y304800
X222250Y-171450
X450850Y469900
X260350Y184150
X450850Y387350
X222250Y-133350
X368300Y476250
X393700Y488950
X263960Y52240
X478950Y311150
X304800Y-215900
Y139700
Y-31750
X482600Y488950
X478950Y635000
T02
X558500Y593240
X609300
X634700
X660100
Y644040
R02X-25400
X558500
Y491640
X609300
R02X25400
Y542440
R02X-25400
X558500
Y390040
X609300
R02X25400
Y440840
R02X-25400
X558500
Y288440
X609300
R02X25400
Y339240
R02X-25400
X558500
X0Y787400
R31Y-25400
X-25400Y787400
R31Y-25400
X-50800Y787400
R31Y-25400
X368300Y400050
X393700
X122450Y-350600
X147850
T03
X641750Y155090
X691750
X425850Y97940
X475850
X642150Y-16360
X692150
X426250Y-73510
X476250
X642150Y-200510
X692150
X426250Y-257660
X476250
T04
X806450Y-1191110
R15Y50800
Y-117960
R15Y50800
T05
X-76200Y838200
Y-50800
T06
X889200Y838200
Y-1384300
M30
