G04 ================== begin FILE IDENTIFICATION RECORD ==================*
G04 Layout Name:  D:/Project/Circuit/KVP/03v4/pcb/kvp_03v4.brd*
G04 Film Name:    SILK_TOP*
G04 File Format:  Gerber RS274X*
G04 File Origin:  Cadence Allegro 16.6-2015-S053*
G04 Origin Date:  Thu Dec 17 16:09:01 2015*
G04 *
G04 Layer:  MANUFACTURING/AUTOSILK_TOP*
G04 *
G04 Offset:    (0.000 0.000)*
G04 Mirror:    No*
G04 Mode:      Positive*
G04 Rotation:  0*
G04 FullContactRelief:  No*
G04 UndefLineWidth:     0.200*
G04 ================== end FILE IDENTIFICATION RECORD ====================*
%FSLAX34Y34*MOMM*%
%IR0*IPPOS*OFA0.00000B0.00000*MIA0B0*SFA1.00000B1.00000*%
%ADD10C,.2*%
%ADD11C,.4*%
%ADD12C,.203*%
%ADD13C,.15*%
G75*
%LPD*%
G75*
G36*
G01X49200Y837400D02*
Y717400D01*
X259200D01*
Y837400D01*
X49200D01*
G37*
G54D10*
G01X73080Y-1254350D02*
Y-1267050D01*
G01D02*
X85780D01*
G01Y-1254350D02*
X73080D01*
G01D02*
X85780Y-1267050D01*
G01Y-1254350D02*
X73080Y-1267050D01*
G01X66690Y-1273000D02*
X111140D01*
G01X66690Y-1228550D02*
Y-1273000D01*
G01X85780Y-1184500D02*
X73080Y-1197200D01*
G01Y-1184500D02*
Y-1197200D01*
G01D02*
X85780D01*
G01Y-1184500D02*
X73080D01*
G01D02*
X85780Y-1197200D01*
G01X111180Y-1178150D02*
X66730D01*
G01X111140Y-1228550D02*
X66690D01*
G01X66730Y-1222600D02*
X111180D01*
G01X66730Y-1178150D02*
Y-1222600D01*
G01X119000Y-780250D02*
X58800D01*
Y-743750D01*
X119000D01*
Y-780250D01*
G01Y-526250D02*
X58800D01*
Y-489750D01*
X119000D01*
Y-526250D01*
G01X21100Y117000D02*
X55100D01*
G01Y187800D02*
X21100D01*
G01Y167800D02*
X55100D01*
G01Y137000D02*
X21100D01*
G01X55100Y162400D02*
X21100D01*
G01Y142400D02*
X55100D01*
G01X21100Y193200D02*
X55100D01*
G01Y264000D02*
X21100D01*
G01Y244000D02*
X55100D01*
G01Y238600D02*
X21100D01*
G01Y218600D02*
X55100D01*
G01Y213200D02*
X21100D01*
G01X55100Y289400D02*
X21100D01*
G01Y269400D02*
X55100D01*
G01X83800Y294150D02*
X17800D01*
Y329150D01*
X83800D01*
Y294150D01*
G01X21100Y472600D02*
X55100D01*
G01Y467200D02*
X21100D01*
G01Y447200D02*
X55100D01*
G01X21100Y548800D02*
X55100D01*
G01Y543400D02*
X21100D01*
G01Y523400D02*
X55100D01*
G01Y518000D02*
X21100D01*
G01Y498000D02*
X55100D01*
G01Y492600D02*
X21100D01*
G01X55100Y619600D02*
X21100D01*
G01Y599600D02*
X55100D01*
G01Y594200D02*
X21100D01*
G01Y574200D02*
X55100D01*
G01Y568800D02*
X21100D01*
G01X90150Y630700D02*
X24150D01*
Y665700D01*
X90150D01*
Y630700D01*
G01X104830Y-1267050D02*
Y-1254350D01*
G01X111140Y-1273000D02*
Y-1228550D01*
G01X92130Y-1254350D02*
Y-1267050D01*
G01D02*
X104830D01*
G01Y-1254350D02*
X92130D01*
G01D02*
X104830Y-1267050D01*
G01Y-1254350D02*
X92130Y-1267050D01*
G01X85780D02*
Y-1254350D01*
G01X104830Y-1197200D02*
Y-1184500D01*
G01X111180Y-1222600D02*
Y-1178150D01*
G01X92130Y-1184500D02*
Y-1197200D01*
G01D02*
X104830D01*
G01Y-1184500D02*
X92130D01*
G01D02*
X104830Y-1197200D01*
G01Y-1184500D02*
X92130Y-1197200D01*
G01X85780D02*
Y-1184500D01*
G01X145000Y-981950D02*
Y-1015950D01*
G01X183100Y-880950D02*
X147100D01*
G01D02*
Y-858950D01*
G01X125730Y-872540D02*
Y-880060D01*
G01X125280Y-891540D02*
X116020D01*
G01X144650Y-832550D02*
X96650D01*
Y-856550D01*
X144650D01*
Y-832550D01*
G01X147100Y-858950D02*
X183100D01*
G01Y-855550D02*
X147100D01*
G01D02*
Y-833550D01*
G01D02*
X183100D01*
G01X116020Y-861060D02*
X125280D01*
G01X133980Y-760200D02*
Y-789200D01*
X183980D01*
Y-760200D01*
X133980D01*
G01X129700Y-668800D02*
Y-702800D01*
G01X149700D02*
Y-668800D01*
G01X144650Y-578550D02*
X96650D01*
Y-602550D01*
X144650D01*
Y-578550D01*
G01X147100Y-604950D02*
X183100D01*
G01Y-626950D02*
X147100D01*
G01D02*
Y-604950D01*
G01X183100Y-601550D02*
X147100D01*
G01D02*
Y-579550D01*
G01X125730Y-618540D02*
Y-626060D01*
G01X125280Y-637540D02*
X116020D01*
G01Y-607060D02*
X125280D01*
G01X147100Y-579550D02*
X183100D01*
G01X133980Y-506200D02*
Y-535200D01*
X183980D01*
Y-506200D01*
X133980D01*
G01X129700Y-414800D02*
Y-448800D01*
G01X149700D02*
Y-414800D01*
G01X109750Y-337900D02*
X160550D01*
G01X109750Y-363300D02*
Y-337900D01*
G01X160550Y-363300D02*
X109750D01*
G01X240030Y-1118720D02*
X191770D01*
G01D02*
Y-1085700D01*
G01X240030D02*
X191770D01*
G01X240250Y-1084150D02*
X204250D01*
G01D02*
Y-1062150D01*
G01D02*
X240250D01*
G01X220980Y-1015900D02*
Y-1023420D01*
G01X220520Y-1034900D02*
X211280D01*
G01X181450Y-1064750D02*
Y-1030750D01*
G01X161450D02*
Y-1064750D01*
G01X246600Y-967160D02*
X210600D01*
G01D02*
Y-945160D01*
G01X246600Y-992560D02*
X210600D01*
G01D02*
Y-970560D01*
G01D02*
X246600D01*
G01X211280Y-1004420D02*
X220520D01*
G01X180500Y-922800D02*
Y-956800D01*
G01X200500D02*
Y-922800D01*
G01X165000Y-1015950D02*
Y-981950D01*
G01X183100Y-858950D02*
Y-880950D01*
G01X223300Y-919760D02*
X259300D01*
G01Y-941760D02*
X223300D01*
G01D02*
Y-919760D01*
G01X210600Y-945160D02*
X246600D01*
G01X240030Y-873760D02*
X191770D01*
G01X240030Y-840740D02*
X191770D01*
G01Y-873760D02*
Y-840740D01*
G01X183100Y-833550D02*
Y-855550D01*
G01X240250Y-830150D02*
X204250D01*
G01D02*
Y-808150D01*
G01D02*
X240250D01*
G01X246600Y-738560D02*
X210600D01*
G01D02*
Y-716560D01*
G01X246600Y-713160D02*
X210600D01*
G01D02*
Y-691160D01*
G01D02*
X246600D01*
G01X210600Y-716560D02*
X246600D01*
G01X175100Y-702800D02*
Y-668800D01*
G01X155100D02*
Y-702800D01*
G01X180500Y-668800D02*
Y-702800D01*
G01X200500D02*
Y-668800D01*
G01X240030Y-619760D02*
X191770D01*
G01D02*
Y-586740D01*
G01X183100Y-604950D02*
Y-626950D01*
G01Y-579550D02*
Y-601550D01*
G01X240030Y-586740D02*
X191770D01*
G01X240250Y-576150D02*
X204250D01*
G01D02*
Y-554150D01*
G01D02*
X240250D01*
G01X246600Y-459160D02*
X210600D01*
G01D02*
Y-437160D01*
G01X246600Y-484560D02*
X210600D01*
G01D02*
Y-462560D01*
G01D02*
X246600D01*
G01X175100Y-448800D02*
Y-414800D01*
G01X155100D02*
Y-448800D01*
G01X180500Y-414800D02*
Y-448800D01*
G01X200500D02*
Y-414800D01*
G01X210600Y-437160D02*
X246600D01*
G01X160550Y-337900D02*
Y-363300D01*
G01X284200Y-958860D02*
Y-1093860D01*
X341700D01*
Y-958860D01*
X284200D01*
G01X240030Y-1118720D02*
Y-1085700D01*
G01X240250Y-1062150D02*
Y-1084150D01*
G01X246600Y-945160D02*
Y-967160D01*
G01Y-970560D02*
Y-992560D01*
G01X259300Y-919760D02*
Y-941760D01*
G01X284200Y-704860D02*
Y-839860D01*
X341700D01*
Y-704860D01*
X284200D01*
G01X240030Y-873760D02*
Y-840740D01*
G01X240250Y-808150D02*
Y-830150D01*
G01X246600Y-716560D02*
Y-738560D01*
G01Y-691160D02*
Y-713160D01*
G01X240030Y-619760D02*
Y-586740D01*
G01X284200Y-450860D02*
Y-585860D01*
X341700D01*
Y-450860D01*
X284200D01*
G01X240250Y-554150D02*
Y-576150D01*
G01X246600Y-437160D02*
Y-459160D01*
G01Y-462560D02*
Y-484560D01*
G01X314300Y-211510D02*
X278300D01*
G01D02*
Y-189510D01*
G01D02*
X314300D01*
G01Y-27360D02*
X278300D01*
G01D02*
Y-5360D01*
G01D02*
X314300D01*
G01Y144090D02*
X278300D01*
G01D02*
Y166090D01*
G01D02*
X314300D01*
G01X275080Y730250D02*
Y750570D01*
X280160D01*
X282190Y749550D01*
X283720Y748200D01*
X284990Y746170D01*
X286000Y743800D01*
X286260Y740410D01*
X286000Y737020D01*
X284990Y734650D01*
X283720Y732620D01*
X282190Y731270D01*
X280160Y730250D01*
X275080D01*
G01X297180Y739390D02*
X305310D01*
X304550Y741760D01*
X303280Y743120D01*
X301500Y743800D01*
X299720Y743460D01*
X298200Y742440D01*
X297180Y740070D01*
X296670Y738040D01*
Y736010D01*
X297180Y733980D01*
X298450Y731940D01*
X299970Y730590D01*
X301750Y730250D01*
X303530Y730930D01*
X305310Y732960D01*
G01X325370Y742100D02*
X323600Y743460D01*
X322070Y743800D01*
X320040Y743120D01*
X318520Y741760D01*
X317500Y739390D01*
X317250Y737020D01*
X317500Y734650D01*
X318520Y732620D01*
X320040Y730930D01*
X322070Y730250D01*
X323850Y730930D01*
X325370Y732280D01*
G01X337820Y739390D02*
X345950D01*
X345190Y741760D01*
X343920Y743120D01*
X342140Y743800D01*
X340360Y743460D01*
X338840Y742440D01*
X337820Y740070D01*
X337310Y738040D01*
Y736010D01*
X337820Y733980D01*
X339090Y731940D01*
X340610Y730590D01*
X342390Y730250D01*
X344170Y730930D01*
X345950Y732960D01*
G01X354330Y730250D02*
Y743800D01*
G01Y740070D02*
X355090Y741760D01*
X356360Y743120D01*
X358140Y743800D01*
X359920Y743120D01*
X361190Y741760D01*
X361950Y740070D01*
Y730250D01*
G01Y740070D02*
X362710Y741760D01*
X363980Y743120D01*
X365760Y743800D01*
X367540Y743120D01*
X368810Y741760D01*
X369570Y739730D01*
Y730250D01*
G01X377700D02*
Y750570D01*
G01Y740410D02*
X378970Y742440D01*
X380490Y743460D01*
X382020Y743800D01*
X384300Y743120D01*
X385830Y741760D01*
X386840Y739390D01*
Y736680D01*
X386330Y733980D01*
X385320Y731940D01*
X383540Y730590D01*
X382020Y730250D01*
X380490Y730590D01*
X378970Y731600D01*
X377700Y733300D01*
G01X398780Y739390D02*
X406910D01*
X406150Y741760D01*
X404880Y743120D01*
X403100Y743800D01*
X401320Y743460D01*
X399800Y742440D01*
X398780Y740070D01*
X398270Y738040D01*
Y736010D01*
X398780Y733980D01*
X400050Y731940D01*
X401570Y730590D01*
X403350Y730250D01*
X405130Y730930D01*
X406910Y732960D01*
G01X419350Y730250D02*
Y743800D01*
G01Y741090D02*
X420620Y742440D01*
X421890Y743460D01*
X423670Y743800D01*
X424940Y743460D01*
X426470Y742440D01*
G01X458720Y747180D02*
X460250Y749220D01*
X462030Y750230D01*
X464060Y750570D01*
X466600Y749890D01*
X468380Y748200D01*
X468880Y746170D01*
X468630Y744130D01*
X467610Y742440D01*
X462530Y739060D01*
X460250Y736680D01*
X458720Y733300D01*
X458220Y730250D01*
X468880D01*
G01X483870Y750570D02*
X481840Y749890D01*
X480310Y748200D01*
X479300Y746170D01*
X478540Y743460D01*
X478280Y740410D01*
X478540Y737360D01*
X479300Y734650D01*
X480310Y732620D01*
X481840Y730930D01*
X483870Y730250D01*
X485900Y730930D01*
X487430Y732620D01*
X488440Y734650D01*
X489200Y737360D01*
X489460Y740410D01*
X489200Y743460D01*
X488440Y746170D01*
X487430Y748200D01*
X485900Y749890D01*
X483870Y750570D01*
G01X504190Y730250D02*
Y750570D01*
X501140Y746510D01*
G01Y730250D02*
X507240D01*
G01X518920Y733300D02*
X520450Y731600D01*
X522220Y730590D01*
X524510Y730250D01*
X526800Y730930D01*
X528570Y732280D01*
X529840Y734650D01*
X530100Y737360D01*
X529590Y740070D01*
X528320Y741760D01*
X526540Y743120D01*
X524760Y743460D01*
X522990Y743120D01*
X520700Y741760D01*
X521460Y750570D01*
X528320D01*
G01X275080Y775100D02*
X276610Y772730D01*
X278640Y771380D01*
X280920Y771040D01*
X282960Y771380D01*
X284990Y773070D01*
X286260Y775100D01*
X286510Y777140D01*
X286000Y779510D01*
X284230Y781200D01*
X282450Y781880D01*
X280160D01*
G01X282450D02*
X283970Y782890D01*
X285240Y784590D01*
X285750Y786620D01*
X285240Y788650D01*
X283970Y790340D01*
X281690Y791360D01*
X279400Y791020D01*
X277110Y789670D01*
G01X300990Y770360D02*
X300480Y770700D01*
Y771380D01*
X300990Y771720D01*
X301500Y771380D01*
Y770700D01*
X300990Y770360D01*
G01X321310Y771040D02*
Y791360D01*
X318260Y787300D01*
G01Y771040D02*
X324360D01*
G01X344680D02*
Y791360D01*
X335280Y776800D01*
X347980D01*
G01X361950Y791360D02*
X359920Y790680D01*
X358390Y788990D01*
X357380Y786960D01*
X356620Y784250D01*
X356360Y781200D01*
X356620Y778150D01*
X357380Y775440D01*
X358390Y773410D01*
X359920Y771720D01*
X361950Y771040D01*
X363980Y771720D01*
X365510Y773410D01*
X366520Y775440D01*
X367280Y778150D01*
X367540Y781200D01*
X367280Y784250D01*
X366520Y786960D01*
X365510Y788990D01*
X363980Y790680D01*
X361950Y791360D01*
G01X382270Y770360D02*
X381760Y770700D01*
Y771380D01*
X382270Y771720D01*
X382780Y771380D01*
Y770700D01*
X382270Y770360D01*
G01X402590Y791360D02*
X400560Y790680D01*
X399030Y788990D01*
X398020Y786960D01*
X397260Y784250D01*
X397000Y781200D01*
X397260Y778150D01*
X398020Y775440D01*
X399030Y773410D01*
X400560Y771720D01*
X402590Y771040D01*
X404620Y771720D01*
X406150Y773410D01*
X407160Y775440D01*
X407920Y778150D01*
X408180Y781200D01*
X407920Y784250D01*
X407160Y786960D01*
X406150Y788990D01*
X404620Y790680D01*
X402590Y791360D01*
G01X422910Y771040D02*
Y791360D01*
X419860Y787300D01*
G01Y771040D02*
X425960D01*
G01X437640Y774090D02*
X439170Y772390D01*
X440940Y771380D01*
X443230Y771040D01*
X445520Y771720D01*
X447290Y773070D01*
X448560Y775440D01*
X448820Y778150D01*
X448310Y780860D01*
X447040Y782550D01*
X445260Y783910D01*
X443480Y784250D01*
X441710Y783910D01*
X439420Y782550D01*
X440180Y791360D01*
X447040D01*
G01X275080Y809140D02*
Y829460D01*
G01X284730D02*
X275080Y816930D01*
G01X286260Y809140D02*
X279400Y822690D01*
G01X294640Y829460D02*
X300990Y809140D01*
X307340Y829460D01*
G01X316230Y809140D02*
Y829460D01*
X322330D01*
X324360Y828440D01*
X325880Y826070D01*
X326390Y823360D01*
X325880Y820650D01*
X324610Y818620D01*
X322330Y817610D01*
X316230D01*
G01X334010Y802370D02*
X349250D01*
G01X361950Y829460D02*
X359920Y828780D01*
X358390Y827090D01*
X357380Y825060D01*
X356620Y822350D01*
X356360Y819300D01*
X356620Y816250D01*
X357380Y813540D01*
X358390Y811510D01*
X359920Y809820D01*
X361950Y809140D01*
X363980Y809820D01*
X365510Y811510D01*
X366520Y813540D01*
X367280Y816250D01*
X367540Y819300D01*
X367280Y822350D01*
X366520Y825060D01*
X365510Y827090D01*
X363980Y828780D01*
X361950Y829460D01*
G01X376680Y813200D02*
X378210Y810830D01*
X380240Y809480D01*
X382520Y809140D01*
X384560Y809480D01*
X386590Y811170D01*
X387860Y813200D01*
X388110Y815240D01*
X387600Y817610D01*
X385830Y819300D01*
X384050Y819980D01*
X381760D01*
G01X384050D02*
X385570Y820990D01*
X386840Y822690D01*
X387350Y824720D01*
X386840Y826750D01*
X385570Y828440D01*
X383290Y829460D01*
X381000Y829120D01*
X378710Y827770D01*
G01X398020Y822690D02*
X402590Y809140D01*
X407160Y822690D01*
G01X425960Y809140D02*
Y829460D01*
X416560Y814900D01*
X429260D01*
G01X411480Y-1131420D02*
X363220D01*
G01X411480Y-1098400D02*
X363220D01*
G01Y-1131420D02*
Y-1098400D01*
G01X399000Y-954460D02*
X363000D01*
G01D02*
Y-932460D01*
G01X411480Y-877420D02*
X363220D01*
G01D02*
Y-844400D01*
G01X363000Y-932460D02*
X399000D01*
G01X411480Y-844400D02*
X363220D01*
G01X399000Y-700460D02*
X363000D01*
G01D02*
Y-678460D01*
G01D02*
X399000D01*
G01X411480Y-623420D02*
X363220D01*
G01D02*
Y-590400D01*
G01X411480D02*
X363220D01*
G01X399000Y-446460D02*
X363000D01*
G01D02*
Y-424460D01*
G01D02*
X399000D01*
G01X355200Y-150760D02*
Y-186760D01*
X318700D01*
Y-150760D01*
X355200D01*
G01X314300Y-189510D02*
Y-211510D01*
G01Y-5360D02*
Y-27360D01*
G01X355200Y33390D02*
Y-2610D01*
X318700D01*
Y33390D01*
X355200D01*
G01X354800Y204840D02*
Y168840D01*
X318300D01*
Y204840D01*
X354800D01*
G01X314300Y166090D02*
Y144090D01*
G01X355600Y387350D02*
Y412750D01*
G01X406400Y387350D02*
X355600D01*
G01Y412750D02*
X406400D01*
G01X431800Y-1257300D02*
Y-1270000D01*
X444500D01*
Y-1257300D01*
X431800D01*
X444500Y-1270000D01*
G01Y-1257300D02*
X431800Y-1270000D01*
G01X425410Y-1275950D02*
X469860D01*
Y-1231500D01*
X425410D01*
Y-1275950D01*
G01X444500Y-1187450D02*
X431800Y-1200150D01*
G01Y-1187450D02*
Y-1200150D01*
X444500D01*
Y-1187450D01*
X431800D01*
X444500Y-1200150D01*
G01X425450Y-1225550D02*
X469900D01*
Y-1181100D01*
X425450D01*
Y-1225550D01*
G01X411480Y-1131420D02*
Y-1098400D01*
G01X411700Y-1094160D02*
X375700D01*
G01D02*
Y-1072160D01*
G01X411700D02*
Y-1094160D01*
G01X375700Y-1072160D02*
X411700D01*
G01Y-979860D02*
X375700D01*
G01D02*
Y-957860D01*
G01D02*
X411700D01*
G01D02*
Y-979860D01*
G01X399000Y-932460D02*
Y-954460D01*
G01X433850Y-959810D02*
X467850D01*
G01Y-965210D02*
X433850D01*
G01Y-985210D02*
X467850D01*
G01X411480Y-877420D02*
Y-844400D01*
G01X467850Y-939810D02*
X433850D01*
G01X411700Y-840160D02*
X375700D01*
G01D02*
Y-818160D01*
G01D02*
X411700D01*
G01D02*
Y-840160D01*
G01X480950Y-822010D02*
X420750D01*
Y-785510D01*
X480950D01*
Y-822010D01*
G01X382050Y-710210D02*
X418050D01*
G01D02*
Y-732210D01*
G01D02*
X382050D01*
G01D02*
Y-710210D01*
G01X399000Y-678460D02*
Y-700460D01*
G01X467850Y-685810D02*
X433850D01*
G01Y-705810D02*
X467850D01*
G01Y-711210D02*
X433850D01*
G01Y-731210D02*
X467850D01*
G01X411480Y-623420D02*
Y-590400D01*
G01X411700Y-586160D02*
X375700D01*
G01D02*
Y-564160D01*
G01D02*
X411700D01*
G01D02*
Y-586160D01*
G01X480950Y-568010D02*
X420750D01*
Y-531510D01*
X480950D01*
Y-568010D01*
G01X382050Y-456210D02*
X418050D01*
G01D02*
Y-478210D01*
G01D02*
X382050D01*
G01D02*
Y-456210D01*
G01X433850Y-451810D02*
X467850D01*
G01Y-457210D02*
X433850D01*
G01Y-477210D02*
X467850D01*
G01X399000Y-424460D02*
Y-446460D01*
G01X467850Y-431810D02*
X433850D01*
G01X451250Y-207660D02*
X521250D01*
Y-307660D01*
X381250D01*
Y-207660D01*
X451250D01*
G01X418250Y-209910D02*
Y-241910D01*
G01X436500D02*
X466000D01*
G01X387600Y-177260D02*
Y-160260D01*
G01X400600Y-177260D02*
Y-160260D01*
G01Y-173760D02*
X387600D01*
G01X400600Y-171760D02*
X387600D01*
G01X400600Y-169760D02*
X387600D01*
G01X466000Y-209910D02*
X436500D01*
G01X417850Y-151760D02*
X483850D01*
Y-186760D01*
X417850D01*
Y-151760D01*
G01X451250Y-23510D02*
X521250D01*
Y-123510D01*
X381250D01*
Y-23510D01*
X451250D01*
G01X380200Y-154760D02*
X388100D01*
G01X384100Y-150760D02*
Y-158760D01*
G01X466000Y-25760D02*
X436500D01*
G01X418250D02*
Y-57760D01*
G01X436500D02*
X466000D01*
G01X450850Y147940D02*
X520850D01*
Y47940D01*
X380850D01*
Y147940D01*
X450850D01*
G01X387600Y6890D02*
Y23890D01*
G01X400600Y6890D02*
Y23890D01*
G01Y10390D02*
X387600D01*
G01X400600Y12390D02*
X387600D01*
G01X400600Y14390D02*
X387600D01*
G01X380200Y29390D02*
X388100D01*
G01X384100Y33390D02*
Y25390D01*
G01X417850Y32390D02*
X483850D01*
Y-2610D01*
X417850D01*
Y32390D01*
G01Y145690D02*
Y113690D01*
G01X436100D02*
X465600D01*
G01X387200Y178340D02*
Y195340D01*
G01X400200Y178340D02*
Y195340D01*
G01Y181840D02*
X387200D01*
G01X400200Y183840D02*
X387200D01*
G01X400200Y185840D02*
X387200D01*
G01X383700Y204840D02*
Y196840D01*
G01X465600Y145690D02*
X436100D01*
G01X417850Y203840D02*
X483850D01*
Y168840D01*
X417850D01*
Y203840D01*
G01X379800Y200840D02*
X387700D01*
G01X475200Y300150D02*
X439200D01*
G01D02*
Y322150D01*
G01D02*
X475200D01*
G01X406400Y412750D02*
Y387350D01*
G01X387220Y482000D02*
Y597500D01*
X450980D01*
Y482000D01*
X387220D01*
G01X475200Y624000D02*
X439200D01*
G01D02*
Y646000D01*
G01D02*
X475200D01*
G01X450850Y-1257300D02*
Y-1270000D01*
X463550D01*
Y-1257300D01*
X450850D01*
X463550Y-1270000D01*
G01Y-1257300D02*
X450850Y-1270000D01*
G01Y-1187450D02*
Y-1200150D01*
X463550D01*
Y-1187450D01*
X450850D01*
X463550Y-1200150D01*
G01Y-1187450D02*
X450850Y-1200150D01*
G01X525000Y-1092210D02*
X491000D01*
G01Y-1112210D02*
X525000D01*
G01Y-1066810D02*
X491000D01*
G01Y-1086810D02*
X525000D01*
G01Y-965210D02*
X491000D01*
G01Y-985210D02*
X525000D01*
G01Y-990610D02*
X491000D01*
G01Y-1010610D02*
X525000D01*
G01Y-838210D02*
X491000D01*
G01Y-858210D02*
X525000D01*
G01Y-812810D02*
X491000D01*
G01Y-832810D02*
X525000D01*
G01Y-736610D02*
X491000D01*
G01Y-756610D02*
X525000D01*
G01Y-711210D02*
X491000D01*
G01Y-731210D02*
X525000D01*
G01X491000Y-604210D02*
X525000D01*
G01Y-558810D02*
X491000D01*
G01Y-578810D02*
X525000D01*
G01Y-584210D02*
X491000D01*
G01X525000Y-457210D02*
X491000D01*
G01Y-477210D02*
X525000D01*
G01Y-482610D02*
X491000D01*
G01Y-502610D02*
X525000D01*
G01X484250Y-241910D02*
Y-209910D01*
G01Y-57760D02*
Y-25760D01*
G01X483850Y113690D02*
Y145690D01*
G01X475200Y322150D02*
Y300150D01*
G01Y646000D02*
Y624000D01*
G01X552450Y-1327150D02*
X596900D01*
Y-1282700D01*
X552450D01*
Y-1327150D01*
G01X577850Y-1289050D02*
Y-1301750D01*
X590550D01*
Y-1289050D01*
X577850D01*
X590550Y-1301750D01*
G01Y-1289050D02*
X577850Y-1301750D01*
G01X558800Y-1289050D02*
Y-1301750D01*
X571500D01*
Y-1289050D01*
X558800D01*
X571500Y-1301750D01*
G01Y-1289050D02*
X558800Y-1301750D01*
G01Y-1257300D02*
Y-1270000D01*
X571500D01*
Y-1257300D01*
X558800D01*
X571500Y-1270000D01*
G01Y-1257300D02*
X558800Y-1270000D01*
G01X577850Y-1238250D02*
Y-1250950D01*
X590550D01*
Y-1238250D01*
X577850D01*
X590550Y-1250950D01*
G01Y-1238250D02*
X577850Y-1250950D01*
G01X552450Y-1276350D02*
X596900D01*
Y-1231900D01*
X552450D01*
Y-1276350D01*
G01X577850Y-1206500D02*
Y-1219200D01*
X590550D01*
Y-1206500D01*
X577850D01*
X590550Y-1219200D01*
G01Y-1206500D02*
X577850Y-1219200D01*
G01X558800Y-1206500D02*
Y-1219200D01*
X571500D01*
Y-1206500D01*
X558800D01*
X571500Y-1219200D01*
G01Y-1206500D02*
X558800Y-1219200D01*
G01X552450Y-1225550D02*
X596900D01*
Y-1181100D01*
X552450D01*
Y-1225550D01*
G01X515050Y-1014710D02*
Y-1062710D01*
X539050D01*
Y-1014710D01*
X515050D01*
G01X607950Y-1031560D02*
X547750D01*
Y-995060D01*
X607950D01*
Y-1031560D01*
G01X515050Y-760710D02*
Y-808710D01*
X539050D01*
Y-760710D01*
X515050D01*
G01X607950Y-777560D02*
X547750D01*
Y-741060D01*
X607950D01*
Y-777560D01*
G01X515050Y-506710D02*
Y-554710D01*
X539050D01*
Y-506710D01*
X515050D01*
G01X607950Y-523560D02*
X547750D01*
Y-487060D01*
X607950D01*
Y-523560D01*
G01X576200Y-154810D02*
Y-220810D01*
X541200D01*
Y-154810D01*
X576200D01*
G01X563200Y-227810D02*
X555200D01*
G01X559200Y-223810D02*
Y-231810D01*
G01X576200Y29340D02*
Y-36660D01*
X541200D01*
Y29340D01*
X576200D01*
G01X563200Y-43660D02*
X555200D01*
G01X559200Y-39660D02*
Y-47660D01*
G01X558800Y131790D02*
Y123790D01*
G01X575800Y200790D02*
Y134790D01*
X540800D01*
Y200790D01*
X575800D01*
G01X562800Y127790D02*
X554800D01*
G01X697000Y276840D02*
X547000D01*
Y351840D01*
X697000D01*
Y276840D01*
G01Y378440D02*
X547000D01*
Y453440D01*
X697000D01*
Y378440D01*
G01Y480040D02*
X547000D01*
Y555040D01*
X697000D01*
Y480040D01*
G01Y581640D02*
X547000D01*
Y656640D01*
X697000D01*
Y581640D01*
G01X652800Y-1110610D02*
X718800D01*
Y-1145610D01*
X652800D01*
Y-1110610D01*
G01X616650Y-1014710D02*
Y-1062710D01*
X640650D01*
Y-1014710D01*
X616650D01*
G01X652800Y-996310D02*
X718800D01*
Y-1031310D01*
X652800D01*
Y-996310D01*
G01Y-1047110D02*
X718800D01*
Y-1082110D01*
X652800D01*
Y-1047110D01*
G01Y-932810D02*
X718800D01*
Y-967810D01*
X652800D01*
Y-932810D01*
G01Y-856610D02*
X718800D01*
Y-891610D01*
X652800D01*
Y-856610D01*
G01X616650Y-760710D02*
Y-808710D01*
X640650D01*
Y-760710D01*
X616650D01*
G01X652800Y-793110D02*
X718800D01*
Y-828110D01*
X652800D01*
Y-793110D01*
G01Y-742310D02*
X718800D01*
Y-777310D01*
X652800D01*
Y-742310D01*
G01Y-678810D02*
X718800D01*
Y-713810D01*
X652800D01*
Y-678810D01*
G01Y-602610D02*
X718800D01*
Y-637610D01*
X652800D01*
Y-602610D01*
G01X616650Y-506710D02*
Y-554710D01*
X640650D01*
Y-506710D01*
X616650D01*
G01X652800Y-488310D02*
X718800D01*
Y-523310D01*
X652800D01*
Y-488310D01*
G01Y-539110D02*
X718800D01*
Y-574110D01*
X652800D01*
Y-539110D01*
G01Y-424810D02*
X718800D01*
Y-459810D01*
X652800D01*
Y-424810D01*
G01X667150Y-150510D02*
X737150D01*
Y-250510D01*
X597150D01*
Y-150510D01*
X667150D01*
G01X634150Y-152760D02*
Y-184760D01*
G01X652400D02*
X681900D01*
G01Y-152760D02*
X652400D01*
G01X667150Y33640D02*
X737150D01*
Y-66360D01*
X597150D01*
Y33640D01*
X667150D01*
G01X681900Y31390D02*
X652400D01*
G01X634150D02*
Y-610D01*
G01X652400D02*
X681900D01*
G01X666750Y205090D02*
X736750D01*
Y105090D01*
X596750D01*
Y205090D01*
X666750D01*
G01X633750Y202840D02*
Y170840D01*
G01X652000D02*
X681500D01*
G01Y202840D02*
X652000D01*
G01X773300Y-1115610D02*
X725300D01*
Y-1139610D01*
X773300D01*
Y-1115610D01*
G01Y-1001310D02*
X725300D01*
Y-1025310D01*
X773300D01*
Y-1001310D01*
G01Y-1052110D02*
X725300D01*
Y-1076110D01*
X773300D01*
Y-1052110D01*
G01Y-937810D02*
X725300D01*
Y-961810D01*
X773300D01*
Y-937810D01*
G01Y-861610D02*
X725300D01*
Y-885610D01*
X773300D01*
Y-861610D01*
G01Y-798110D02*
X725300D01*
Y-822110D01*
X773300D01*
Y-798110D01*
G01Y-747310D02*
X725300D01*
Y-771310D01*
X773300D01*
Y-747310D01*
G01Y-683810D02*
X725300D01*
Y-707810D01*
X773300D01*
Y-683810D01*
G01Y-607610D02*
X725300D01*
Y-631610D01*
X773300D01*
Y-607610D01*
G01Y-544110D02*
X725300D01*
Y-568110D01*
X773300D01*
Y-544110D01*
G01Y-429810D02*
X725300D01*
Y-453810D01*
X773300D01*
Y-429810D01*
G01Y-493310D02*
X725300D01*
Y-517310D01*
X773300D01*
Y-493310D01*
G01X700150Y-184760D02*
Y-152760D01*
G01Y-610D02*
Y31390D01*
G01X699750Y170840D02*
Y202840D01*
G01X722360Y290840D02*
X718600D01*
Y336840D01*
X722600D01*
G01X722360Y392440D02*
X718600D01*
Y438440D01*
X722600D01*
G01X722360Y494040D02*
X718600D01*
Y540040D01*
X722600D01*
G01X722360Y595640D02*
X718600D01*
Y641640D01*
X722600D01*
G01X906450Y-1232110D02*
X786450D01*
Y-388110D01*
X906450D01*
Y-1232110D01*
G01Y-158960D02*
X786450D01*
Y685040D01*
X906450D01*
Y-158960D01*
G01X750100Y336840D02*
X754600D01*
Y290840D01*
X750840D01*
G01X758600Y283840D02*
X750840D01*
G01X754600Y287840D02*
Y279840D01*
G01X750100Y438440D02*
X754600D01*
Y392440D01*
X750840D01*
G01X758600Y385440D02*
X750840D01*
G01X754600Y389440D02*
Y381440D01*
G01Y491040D02*
Y483040D01*
G01X750100Y540040D02*
X754600D01*
Y494040D01*
X750840D01*
G01X758600Y487040D02*
X750840D01*
G01X750100Y641640D02*
X754600D01*
Y595640D01*
X750840D01*
G01X758600Y588640D02*
X750840D01*
G01X754600Y592640D02*
Y584640D01*
G01X196850Y-1250950D02*
X342900D01*
G01X196850Y-1200150D02*
X342900D01*
G54D11*
G01X67900Y-805000D02*
G03X65900Y-803000I-2000J0D01*
G01D02*
G03X63900Y-805000I0J-2000D01*
G01D02*
G03X65900Y-807000I2000J0D01*
G01D02*
G03X67900Y-805000I0J2000D01*
G01Y-551000D02*
G03X65900Y-549000I-2000J0D01*
G01D02*
G03X63900Y-551000I0J-2000D01*
G01D02*
G03X65900Y-553000I2000J0D01*
G01D02*
G03X67900Y-551000I0J2000D01*
G01X17240Y0D02*
G03X15240Y2000I-2000J0D01*
G01D02*
G03X13240Y0I0J-2000D01*
G01D02*
G03X15240Y-2000I2000J0D01*
G01D02*
G03X17240Y0I0J2000D01*
G01X192980Y-749200D02*
G03X190980Y-747200I-2000J0D01*
G01D02*
G03X188980Y-749200I0J-2000D01*
G01D02*
G03X190980Y-751200I2000J0D01*
G01D02*
G03X192980Y-749200I0J2000D01*
G01Y-495200D02*
G03X190980Y-493200I-2000J0D01*
G01D02*
G03X188980Y-495200I0J-2000D01*
G01D02*
G03X190980Y-497200I2000J0D01*
G01D02*
G03X192980Y-495200I0J2000D01*
G01X271880Y-957040D02*
G03X269880Y-955040I-2000J0D01*
G01D02*
G03X267880Y-957040I0J-2000D01*
G01D02*
G03X269880Y-959040I2000J0D01*
G01D02*
G03X271880Y-957040I0J2000D01*
G01X294140Y-966580D02*
G03I-2000J0D01*
G01X271880Y-703040D02*
G03I-2000J0D01*
G01X294140Y-712580D02*
G03I-2000J0D01*
G01X271880Y-449040D02*
G03I-2000J0D01*
G01X294140Y-458580D02*
G03I-2000J0D01*
G01X370500Y-190810D02*
G03X368500Y-188810I-2000J0D01*
G01D02*
G03X366500Y-190810I0J-2000D01*
G01D02*
G03X368500Y-192810I2000J0D01*
G01D02*
G03X370500Y-190810I0J2000D01*
G01Y-6660D02*
G03X368500Y-4660I-2000J0D01*
G01D02*
G03X366500Y-6660I0J-2000D01*
G01D02*
G03X368500Y-8660I2000J0D01*
G01D02*
G03X370500Y-6660I0J2000D01*
G01X370100Y164790D02*
G03X368100Y166790I-2000J0D01*
G01D02*
G03X366100Y164790I0J-2000D01*
G01D02*
G03X368100Y162790I2000J0D01*
G01D02*
G03X370100Y164790I0J2000D01*
G01X429850Y-846760D02*
G03X427850Y-844760I-2000J0D01*
G01D02*
G03X425850Y-846760I0J-2000D01*
G01D02*
G03X427850Y-848760I2000J0D01*
G01D02*
G03X429850Y-846760I0J2000D01*
G01Y-592760D02*
G03X427850Y-590760I-2000J0D01*
G01D02*
G03X425850Y-592760I0J-2000D01*
G01D02*
G03X427850Y-594760I2000J0D01*
G01D02*
G03X429850Y-592760I0J2000D01*
G01X373700Y600000D02*
G03X371700Y602000I-2000J0D01*
G01D02*
G03X369700Y600000I0J-2000D01*
G01D02*
G03X371700Y598000I2000J0D01*
G01D02*
G03X373700Y600000I0J2000D01*
G01X556850Y-1056310D02*
G03X554850Y-1054310I-2000J0D01*
G01D02*
G03X552850Y-1056310I0J-2000D01*
G01D02*
G03X554850Y-1058310I2000J0D01*
G01D02*
G03X556850Y-1056310I0J2000D01*
G01Y-802310D02*
G03X554850Y-800310I-2000J0D01*
G01D02*
G03X552850Y-802310I0J-2000D01*
G01D02*
G03X554850Y-804310I2000J0D01*
G01D02*
G03X556850Y-802310I0J2000D01*
G01Y-548310D02*
G03X554850Y-546310I-2000J0D01*
G01D02*
G03X552850Y-548310I0J-2000D01*
G01D02*
G03X554850Y-550310I2000J0D01*
G01D02*
G03X556850Y-548310I0J2000D01*
G01X561000Y268440D02*
G03I-4000J0D01*
G01Y370040D02*
G03I-4000J0D01*
G01Y471640D02*
G03I-4000J0D01*
G01Y573240D02*
G03I-4000J0D01*
G01X781450Y-1191110D02*
G03I-3000J0D01*
G01Y-117960D02*
G03I-3000J0D01*
G54D12*
G01X-50800Y-77470D02*
X-93980D01*
G01X-50800Y864870D02*
X-92710D01*
G01X-50800Y-44450D02*
Y-77470D01*
G01Y843280D02*
Y864870D01*
G54D13*
G01X-28900Y816610D02*
X-22150Y829310D01*
G01X-28900D02*
X-22150Y816610D01*
G01X-12580D02*
Y829310D01*
X-14510Y826770D01*
G01Y816610D02*
X-10650D01*
G01X66920Y-1155700D02*
X70780D01*
G01X68850D02*
Y-1168400D01*
G01X66920D02*
X70780D01*
G01X79070D02*
Y-1159930D01*
G01Y-1162050D02*
X79710Y-1160990D01*
X80680Y-1160150D01*
X81970Y-1159930D01*
X83090Y-1160150D01*
X84060Y-1160990D01*
X84540Y-1162470D01*
Y-1168400D01*
G01X94750Y-1155700D02*
Y-1168400D01*
G01X92500Y-1159930D02*
X97010D01*
G01X105290Y-1162690D02*
X110440D01*
X109960Y-1161200D01*
X109150Y-1160360D01*
X108030Y-1159930D01*
X106900Y-1160150D01*
X105940Y-1160780D01*
X105290Y-1162260D01*
X104970Y-1163530D01*
Y-1164800D01*
X105290Y-1166070D01*
X106100Y-1167340D01*
X107060Y-1168190D01*
X108190Y-1168400D01*
X109310Y-1167980D01*
X110440Y-1166710D01*
G01X118400Y-1168400D02*
Y-1159930D01*
G01Y-1161630D02*
X119210Y-1160780D01*
X120010Y-1160150D01*
X121140Y-1159930D01*
X121940Y-1160150D01*
X122910Y-1160780D01*
G01X132640Y-1168400D02*
Y-1157600D01*
X132960Y-1156550D01*
X133600Y-1155910D01*
X134570Y-1155700D01*
X135540Y-1156120D01*
X136020Y-1157180D01*
G01X134090Y-1160780D02*
X130870D01*
G01X149450Y-1168400D02*
Y-1159930D01*
G01Y-1161410D02*
X148810Y-1160570D01*
X147840Y-1160150D01*
X146720Y-1159930D01*
X145590Y-1160360D01*
X144620Y-1161200D01*
X143980Y-1162470D01*
X143660Y-1164170D01*
X143980Y-1165860D01*
X144620Y-1167130D01*
X145590Y-1167980D01*
X146720Y-1168400D01*
X147840Y-1168190D01*
X148810Y-1167550D01*
X149450Y-1166710D01*
G01X162080Y-1160990D02*
X160950Y-1160150D01*
X159990Y-1159930D01*
X158700Y-1160360D01*
X157740Y-1161200D01*
X157090Y-1162690D01*
X156930Y-1164170D01*
X157090Y-1165650D01*
X157740Y-1166920D01*
X158700Y-1167980D01*
X159990Y-1168400D01*
X161110Y-1167980D01*
X162080Y-1167130D01*
G01X170040Y-1162690D02*
X175190D01*
X174710Y-1161200D01*
X173900Y-1160360D01*
X172780Y-1159930D01*
X171650Y-1160150D01*
X170690Y-1160780D01*
X170040Y-1162260D01*
X169720Y-1163530D01*
Y-1164800D01*
X170040Y-1166070D01*
X170850Y-1167340D01*
X171810Y-1168190D01*
X172940Y-1168400D01*
X174060Y-1167980D01*
X175190Y-1166710D01*
G01X68700Y-882600D02*
Y-869900D01*
X71910D01*
X73200Y-870540D01*
X74170Y-871380D01*
X74970Y-872650D01*
X75610Y-874130D01*
X75770Y-876250D01*
X75610Y-878370D01*
X74970Y-879850D01*
X74170Y-881120D01*
X73200Y-881970D01*
X71910Y-882600D01*
X68700D01*
G01X81650D02*
Y-869900D01*
X84860D01*
X86150Y-870540D01*
X87120Y-871380D01*
X87920Y-872650D01*
X88560Y-874130D01*
X88720Y-876250D01*
X88560Y-878370D01*
X87920Y-879850D01*
X87120Y-881120D01*
X86150Y-881970D01*
X84860Y-882600D01*
X81650D01*
G01X98130D02*
Y-869900D01*
X96200Y-872440D01*
G01Y-882600D02*
X100060D01*
G01X59020Y-850600D02*
Y-837900D01*
X63040D01*
X64330Y-838540D01*
X65130Y-839380D01*
X65450Y-841080D01*
X65130Y-842770D01*
X64170Y-843830D01*
X63040Y-844460D01*
X59020D01*
G01X63040D02*
X65450Y-850600D01*
G01X72130Y-845310D02*
X73250Y-843830D01*
X74220Y-842980D01*
X75510Y-842560D01*
X76630Y-842980D01*
X77440Y-843830D01*
X78080Y-845100D01*
X78240Y-846580D01*
X78080Y-847850D01*
X77440Y-849120D01*
X76470Y-850180D01*
X75350Y-850600D01*
X74060Y-850180D01*
X72930Y-848910D01*
X72290Y-847000D01*
X72130Y-844890D01*
X72450Y-842130D01*
X72930Y-840650D01*
X73740Y-839170D01*
X74860Y-838110D01*
X75990Y-837900D01*
X77120Y-838320D01*
X77920Y-839380D01*
G01X87810Y-850600D02*
X88130Y-847850D01*
X88620Y-845520D01*
X89260Y-843400D01*
X90070Y-841080D01*
X91350Y-837900D01*
X84920D01*
G01X81100Y-696810D02*
X82380Y-697870D01*
X83830Y-698500D01*
X85120D01*
X86410Y-697870D01*
X87370Y-696810D01*
X87850Y-695320D01*
X87530Y-693840D01*
X86730Y-692570D01*
X85280Y-691730D01*
X83350Y-691300D01*
X82220Y-690460D01*
X81740Y-688980D01*
X82060Y-687490D01*
X82870Y-686440D01*
X83990Y-685800D01*
X85120D01*
X86240Y-686220D01*
X87210Y-687280D01*
G01X94370Y-693210D02*
X95490Y-691730D01*
X96460Y-690880D01*
X97750Y-690460D01*
X98870Y-690880D01*
X99680Y-691730D01*
X100320Y-693000D01*
X100480Y-694480D01*
X100320Y-695750D01*
X99680Y-697020D01*
X98710Y-698080D01*
X97590Y-698500D01*
X96300Y-698080D01*
X95170Y-696810D01*
X94530Y-694900D01*
X94370Y-692790D01*
X94690Y-690030D01*
X95170Y-688550D01*
X95980Y-687070D01*
X97100Y-686010D01*
X98230Y-685800D01*
X99360Y-686220D01*
X100160Y-687280D01*
G01X59020Y-596600D02*
Y-583900D01*
X63040D01*
X64330Y-584540D01*
X65130Y-585380D01*
X65450Y-587080D01*
X65130Y-588770D01*
X64170Y-589830D01*
X63040Y-590460D01*
X59020D01*
G01X63040D02*
X65450Y-596600D01*
G01X72130Y-591310D02*
X73250Y-589830D01*
X74220Y-588980D01*
X75510Y-588560D01*
X76630Y-588980D01*
X77440Y-589830D01*
X78080Y-591100D01*
X78240Y-592580D01*
X78080Y-593850D01*
X77440Y-595120D01*
X76470Y-596180D01*
X75350Y-596600D01*
X74060Y-596180D01*
X72930Y-594910D01*
X72290Y-593000D01*
X72130Y-590890D01*
X72450Y-588130D01*
X72930Y-586650D01*
X73740Y-585170D01*
X74860Y-584110D01*
X75990Y-583900D01*
X77120Y-584320D01*
X77920Y-585380D01*
G01X85400Y-595120D02*
X86530Y-596180D01*
X87810Y-596600D01*
X89100Y-596180D01*
X90230Y-594910D01*
X91030Y-593000D01*
X91350Y-591100D01*
Y-588770D01*
X91030Y-586860D01*
X90230Y-585170D01*
X89260Y-584320D01*
X88130Y-583900D01*
X86850Y-584320D01*
X85880Y-585170D01*
X85240Y-586440D01*
X84920Y-588130D01*
X85240Y-589610D01*
X86040Y-591100D01*
X87010Y-591940D01*
X88130Y-592160D01*
X89420Y-591730D01*
X90390Y-590670D01*
X91350Y-588770D01*
G01X62700Y-628600D02*
Y-615900D01*
X65910D01*
X67200Y-616540D01*
X68170Y-617380D01*
X68970Y-618650D01*
X69610Y-620130D01*
X69770Y-622250D01*
X69610Y-624370D01*
X68970Y-625850D01*
X68170Y-627120D01*
X67200Y-627970D01*
X65910Y-628600D01*
X62700D01*
G01X75650D02*
Y-615900D01*
X78860D01*
X80150Y-616540D01*
X81120Y-617380D01*
X81920Y-618650D01*
X82560Y-620130D01*
X82720Y-622250D01*
X82560Y-624370D01*
X81920Y-625850D01*
X81120Y-627120D01*
X80150Y-627970D01*
X78860Y-628600D01*
X75650D01*
G01X88600Y-626060D02*
X89560Y-627540D01*
X90850Y-628390D01*
X92300Y-628600D01*
X93580Y-628390D01*
X94870Y-627330D01*
X95670Y-626060D01*
X95830Y-624790D01*
X95510Y-623310D01*
X94390Y-622250D01*
X93260Y-621830D01*
X91810D01*
G01X93260D02*
X94230Y-621190D01*
X95030Y-620130D01*
X95350Y-618860D01*
X95030Y-617590D01*
X94230Y-616540D01*
X92780Y-615900D01*
X91330Y-616110D01*
X89880Y-616960D01*
G01X81100Y-449160D02*
X82380Y-450220D01*
X83830Y-450850D01*
X85120D01*
X86410Y-450220D01*
X87370Y-449160D01*
X87850Y-447670D01*
X87530Y-446190D01*
X86730Y-444920D01*
X85280Y-444080D01*
X83350Y-443650D01*
X82220Y-442810D01*
X81740Y-441330D01*
X82060Y-439840D01*
X82870Y-438790D01*
X83990Y-438150D01*
X85120D01*
X86240Y-438570D01*
X87210Y-439630D01*
G01X97100Y-450850D02*
X97420Y-448100D01*
X97910Y-445770D01*
X98550Y-443650D01*
X99360Y-441330D01*
X100640Y-438150D01*
X94210D01*
G01X61020Y120950D02*
Y133650D01*
X65040D01*
X66330Y133010D01*
X67130Y132170D01*
X67450Y130470D01*
X67130Y128780D01*
X66170Y127720D01*
X65040Y127090D01*
X61020D01*
G01X65040D02*
X67450Y120950D01*
G01X74130Y131530D02*
X75090Y132800D01*
X76220Y133440D01*
X77510Y133650D01*
X79120Y133230D01*
X80240Y132170D01*
X80560Y130900D01*
X80400Y129630D01*
X79760Y128570D01*
X76540Y126450D01*
X75090Y124970D01*
X74130Y122850D01*
X73810Y120950D01*
X80560D01*
G01X90130D02*
X91260Y121160D01*
X92550Y121800D01*
X93350Y122850D01*
X93670Y124340D01*
X93350Y125820D01*
X92390Y127090D01*
X90940Y127720D01*
X89330D01*
X88370Y128150D01*
X87560Y129200D01*
X87240Y130690D01*
X87720Y132170D01*
X88850Y133230D01*
X90130Y133650D01*
X91420Y133230D01*
X92550Y132170D01*
X93030Y130690D01*
X92710Y129200D01*
X91900Y128150D01*
X90940Y127720D01*
X89330D01*
X87880Y127090D01*
X86920Y125820D01*
X86600Y124340D01*
X86920Y122850D01*
X87720Y121800D01*
X89010Y121160D01*
X90130Y120950D01*
G01X61020Y171750D02*
Y184450D01*
X65040D01*
X66330Y183810D01*
X67130Y182970D01*
X67450Y181270D01*
X67130Y179580D01*
X66170Y178520D01*
X65040Y177890D01*
X61020D01*
G01X65040D02*
X67450Y171750D01*
G01X74130Y182330D02*
X75090Y183600D01*
X76220Y184240D01*
X77510Y184450D01*
X79120Y184030D01*
X80240Y182970D01*
X80560Y181700D01*
X80400Y180430D01*
X79760Y179370D01*
X76540Y177250D01*
X75090Y175770D01*
X74130Y173650D01*
X73810Y171750D01*
X80560D01*
G01X89810D02*
X90130Y174500D01*
X90620Y176830D01*
X91260Y178950D01*
X92070Y181270D01*
X93350Y184450D01*
X86920D01*
G01X61020Y146350D02*
Y159050D01*
X65040D01*
X66330Y158410D01*
X67130Y157570D01*
X67450Y155870D01*
X67130Y154180D01*
X66170Y153120D01*
X65040Y152490D01*
X61020D01*
G01X65040D02*
X67450Y146350D01*
G01X74130Y151640D02*
X75250Y153120D01*
X76220Y153970D01*
X77510Y154390D01*
X78630Y153970D01*
X79440Y153120D01*
X80080Y151850D01*
X80240Y150370D01*
X80080Y149100D01*
X79440Y147830D01*
X78470Y146770D01*
X77350Y146350D01*
X76060Y146770D01*
X74930Y148040D01*
X74290Y149950D01*
X74130Y152060D01*
X74450Y154820D01*
X74930Y156300D01*
X75740Y157780D01*
X76860Y158840D01*
X77990Y159050D01*
X79120Y158630D01*
X79920Y157570D01*
G01X87080Y151640D02*
X88200Y153120D01*
X89170Y153970D01*
X90460Y154390D01*
X91580Y153970D01*
X92390Y153120D01*
X93030Y151850D01*
X93190Y150370D01*
X93030Y149100D01*
X92390Y147830D01*
X91420Y146770D01*
X90300Y146350D01*
X89010Y146770D01*
X87880Y148040D01*
X87240Y149950D01*
X87080Y152060D01*
X87400Y154820D01*
X87880Y156300D01*
X88690Y157780D01*
X89810Y158840D01*
X90940Y159050D01*
X92070Y158630D01*
X92870Y157570D01*
G01X61160Y197150D02*
Y209850D01*
X65180D01*
X66470Y209210D01*
X67270Y208370D01*
X67590Y206670D01*
X67270Y204980D01*
X66310Y203920D01*
X65180Y203290D01*
X61160D01*
G01X65180D02*
X67590Y197150D01*
G01X79260D02*
Y209850D01*
X73300Y200750D01*
X81350D01*
G01X61020Y247950D02*
Y260650D01*
X65040D01*
X66330Y260010D01*
X67130Y259170D01*
X67450Y257470D01*
X67130Y255780D01*
X66170Y254720D01*
X65040Y254090D01*
X61020D01*
G01X65040D02*
X67450Y247950D01*
G01X77180D02*
Y260650D01*
X75250Y258110D01*
G01Y247950D02*
X79110D01*
G01X86600Y249850D02*
X87560Y248800D01*
X88690Y248160D01*
X90130Y247950D01*
X91580Y248370D01*
X92710Y249220D01*
X93510Y250700D01*
X93670Y252390D01*
X93350Y254090D01*
X92550Y255150D01*
X91420Y255990D01*
X90300Y256200D01*
X89170Y255990D01*
X87720Y255150D01*
X88200Y260650D01*
X92550D01*
G01X61020Y222550D02*
Y235250D01*
X65040D01*
X66330Y234610D01*
X67130Y233770D01*
X67450Y232070D01*
X67130Y230380D01*
X66170Y229320D01*
X65040Y228690D01*
X61020D01*
G01X65040D02*
X67450Y222550D01*
G01X77180D02*
Y235250D01*
X75250Y232710D01*
G01Y222550D02*
X79110D01*
G01X87080Y227840D02*
X88200Y229320D01*
X89170Y230170D01*
X90460Y230590D01*
X91580Y230170D01*
X92390Y229320D01*
X93030Y228050D01*
X93190Y226570D01*
X93030Y225300D01*
X92390Y224030D01*
X91420Y222970D01*
X90300Y222550D01*
X89010Y222970D01*
X87880Y224240D01*
X87240Y226150D01*
X87080Y228260D01*
X87400Y231020D01*
X87880Y232500D01*
X88690Y233980D01*
X89810Y235040D01*
X90940Y235250D01*
X92070Y234830D01*
X92870Y233770D01*
G01X61410Y274400D02*
Y287100D01*
X65430D01*
X66720Y286460D01*
X67520Y285620D01*
X67840Y283920D01*
X67520Y282230D01*
X66560Y281170D01*
X65430Y280540D01*
X61410D01*
G01X65430D02*
X67840Y274400D01*
G01X74040Y276940D02*
X75000Y275460D01*
X76290Y274610D01*
X77740Y274400D01*
X79020Y274610D01*
X80310Y275670D01*
X81110Y276940D01*
X81270Y278210D01*
X80950Y279690D01*
X79830Y280750D01*
X78700Y281170D01*
X77250D01*
G01X78700D02*
X79670Y281810D01*
X80470Y282870D01*
X80790Y284140D01*
X80470Y285410D01*
X79670Y286460D01*
X78220Y287100D01*
X76770Y286890D01*
X75320Y286040D01*
G01X30350Y345850D02*
X34370Y333150D01*
X38400Y345850D01*
G01X43790Y333150D02*
Y345850D01*
X47000D01*
X48290Y345210D01*
X49260Y344370D01*
X50060Y343100D01*
X50700Y341620D01*
X50860Y339500D01*
X50700Y337380D01*
X50060Y335900D01*
X49260Y334630D01*
X48290Y333780D01*
X47000Y333150D01*
X43790D01*
G01X57220Y343730D02*
X58180Y345000D01*
X59310Y345640D01*
X60600Y345850D01*
X62210Y345430D01*
X63330Y344370D01*
X63650Y343100D01*
X63490Y341830D01*
X62850Y340770D01*
X59630Y338650D01*
X58180Y337170D01*
X57220Y335050D01*
X56900Y333150D01*
X63650D01*
G01X72900D02*
X73220Y335900D01*
X73710Y338230D01*
X74350Y340350D01*
X75160Y342670D01*
X76440Y345850D01*
X70010D01*
G01X61020Y476550D02*
Y489250D01*
X65040D01*
X66330Y488610D01*
X67130Y487770D01*
X67450Y486070D01*
X67130Y484380D01*
X66170Y483320D01*
X65040Y482690D01*
X61020D01*
G01X65040D02*
X67450Y476550D01*
G01X73650Y478450D02*
X74610Y477400D01*
X75740Y476760D01*
X77180Y476550D01*
X78630Y476970D01*
X79760Y477820D01*
X80560Y479300D01*
X80720Y480990D01*
X80400Y482690D01*
X79600Y483750D01*
X78470Y484590D01*
X77350Y484800D01*
X76220Y484590D01*
X74770Y483750D01*
X75250Y489250D01*
X79600D01*
G01X86600Y479090D02*
X87560Y477610D01*
X88850Y476760D01*
X90300Y476550D01*
X91580Y476760D01*
X92870Y477820D01*
X93670Y479090D01*
X93830Y480360D01*
X93510Y481840D01*
X92390Y482900D01*
X91260Y483320D01*
X89810D01*
G01X91260D02*
X92230Y483960D01*
X93030Y485020D01*
X93350Y486290D01*
X93030Y487560D01*
X92230Y488610D01*
X90780Y489250D01*
X89330Y489040D01*
X87880Y488190D01*
G01X61020Y451150D02*
Y463850D01*
X65040D01*
X66330Y463210D01*
X67130Y462370D01*
X67450Y460670D01*
X67130Y458980D01*
X66170Y457920D01*
X65040Y457290D01*
X61020D01*
G01X65040D02*
X67450Y451150D01*
G01X74130Y456440D02*
X75250Y457920D01*
X76220Y458770D01*
X77510Y459190D01*
X78630Y458770D01*
X79440Y457920D01*
X80080Y456650D01*
X80240Y455170D01*
X80080Y453900D01*
X79440Y452630D01*
X78470Y451570D01*
X77350Y451150D01*
X76060Y451570D01*
X74930Y452840D01*
X74290Y454750D01*
X74130Y456860D01*
X74450Y459620D01*
X74930Y461100D01*
X75740Y462580D01*
X76860Y463640D01*
X77990Y463850D01*
X79120Y463430D01*
X79920Y462370D01*
G01X90130Y451150D02*
Y463850D01*
X88200Y461310D01*
G01Y451150D02*
X92060D01*
G01X60020Y555140D02*
Y567840D01*
X64040D01*
X65330Y567200D01*
X66130Y566360D01*
X66450Y564660D01*
X66130Y562970D01*
X65170Y561910D01*
X64040Y561280D01*
X60020D01*
G01X64040D02*
X66450Y555140D01*
G01X72650Y557680D02*
X73610Y556200D01*
X74900Y555350D01*
X76350Y555140D01*
X77630Y555350D01*
X78920Y556410D01*
X79720Y557680D01*
X79880Y558950D01*
X79560Y560430D01*
X78440Y561490D01*
X77310Y561910D01*
X75860D01*
G01X77310D02*
X78280Y562550D01*
X79080Y563610D01*
X79400Y564880D01*
X79080Y566150D01*
X78280Y567200D01*
X76830Y567840D01*
X75380Y567630D01*
X73930Y566780D01*
G01X86400Y556620D02*
X87530Y555560D01*
X88810Y555140D01*
X90100Y555560D01*
X91230Y556830D01*
X92030Y558740D01*
X92350Y560640D01*
Y562970D01*
X92030Y564880D01*
X91230Y566570D01*
X90260Y567420D01*
X89130Y567840D01*
X87850Y567420D01*
X86880Y566570D01*
X86240Y565300D01*
X85920Y563610D01*
X86240Y562130D01*
X87040Y560640D01*
X88010Y559800D01*
X89130Y559580D01*
X90420Y560010D01*
X91390Y561070D01*
X92350Y562970D01*
G01X60020Y529740D02*
Y542440D01*
X64040D01*
X65330Y541800D01*
X66130Y540960D01*
X66450Y539260D01*
X66130Y537570D01*
X65170Y536510D01*
X64040Y535880D01*
X60020D01*
G01X64040D02*
X66450Y529740D01*
G01X78120D02*
Y542440D01*
X72160Y533340D01*
X80210D01*
G01X89130Y542440D02*
X87850Y542020D01*
X86880Y540960D01*
X86240Y539690D01*
X85760Y537990D01*
X85600Y536090D01*
X85760Y534180D01*
X86240Y532490D01*
X86880Y531220D01*
X87850Y530160D01*
X89130Y529740D01*
X90420Y530160D01*
X91390Y531220D01*
X92030Y532490D01*
X92510Y534180D01*
X92670Y536090D01*
X92510Y537990D01*
X92030Y539690D01*
X91390Y540960D01*
X90420Y542020D01*
X89130Y542440D01*
G01X61020Y501950D02*
Y514650D01*
X65040D01*
X66330Y514010D01*
X67130Y513170D01*
X67450Y511470D01*
X67130Y509780D01*
X66170Y508720D01*
X65040Y508090D01*
X61020D01*
G01X65040D02*
X67450Y501950D01*
G01X79120D02*
Y514650D01*
X73160Y505550D01*
X81210D01*
G01X92070Y501950D02*
Y514650D01*
X86110Y505550D01*
X94160D01*
G01X60020Y605940D02*
Y618640D01*
X64040D01*
X65330Y618000D01*
X66130Y617160D01*
X66450Y615460D01*
X66130Y613770D01*
X65170Y612710D01*
X64040Y612080D01*
X60020D01*
G01X64040D02*
X66450Y605940D01*
G01X72650Y608480D02*
X73610Y607000D01*
X74900Y606150D01*
X76350Y605940D01*
X77630Y606150D01*
X78920Y607210D01*
X79720Y608480D01*
X79880Y609750D01*
X79560Y611230D01*
X78440Y612290D01*
X77310Y612710D01*
X75860D01*
G01X77310D02*
X78280Y613350D01*
X79080Y614410D01*
X79400Y615680D01*
X79080Y616950D01*
X78280Y618000D01*
X76830Y618640D01*
X75380Y618430D01*
X73930Y617580D01*
G01X88810Y605940D02*
X89130Y608690D01*
X89620Y611020D01*
X90260Y613140D01*
X91070Y615460D01*
X92350Y618640D01*
X85920D01*
G01X60020Y580540D02*
Y593240D01*
X64040D01*
X65330Y592600D01*
X66130Y591760D01*
X66450Y590060D01*
X66130Y588370D01*
X65170Y587310D01*
X64040Y586680D01*
X60020D01*
G01X64040D02*
X66450Y580540D01*
G01X72650Y583080D02*
X73610Y581600D01*
X74900Y580750D01*
X76350Y580540D01*
X77630Y580750D01*
X78920Y581810D01*
X79720Y583080D01*
X79880Y584350D01*
X79560Y585830D01*
X78440Y586890D01*
X77310Y587310D01*
X75860D01*
G01X77310D02*
X78280Y587950D01*
X79080Y589010D01*
X79400Y590280D01*
X79080Y591550D01*
X78280Y592600D01*
X76830Y593240D01*
X75380Y593030D01*
X73930Y592180D01*
G01X89130Y580540D02*
X90260Y580750D01*
X91550Y581390D01*
X92350Y582440D01*
X92670Y583930D01*
X92350Y585410D01*
X91390Y586680D01*
X89940Y587310D01*
X88330D01*
X87370Y587740D01*
X86560Y588790D01*
X86240Y590280D01*
X86720Y591760D01*
X87850Y592820D01*
X89130Y593240D01*
X90420Y592820D01*
X91550Y591760D01*
X92030Y590280D01*
X91710Y588790D01*
X90900Y587740D01*
X89940Y587310D01*
X88330D01*
X86880Y586680D01*
X85920Y585410D01*
X85600Y583930D01*
X85920Y582440D01*
X86720Y581390D01*
X88010Y580750D01*
X89130Y580540D01*
G01X36700Y682400D02*
X40720Y669700D01*
X44750Y682400D01*
G01X50140Y669700D02*
Y682400D01*
X53350D01*
X54640Y681760D01*
X55610Y680920D01*
X56410Y679650D01*
X57050Y678170D01*
X57210Y676050D01*
X57050Y673930D01*
X56410Y672450D01*
X55610Y671180D01*
X54640Y670330D01*
X53350Y669700D01*
X50140D01*
G01X63570Y680280D02*
X64530Y681550D01*
X65660Y682190D01*
X66950Y682400D01*
X68560Y681980D01*
X69680Y680920D01*
X70000Y679650D01*
X69840Y678380D01*
X69200Y677320D01*
X65980Y675200D01*
X64530Y673720D01*
X63570Y671600D01*
X63250Y669700D01*
X70000D01*
G01X76520Y674990D02*
X77640Y676470D01*
X78610Y677320D01*
X79900Y677740D01*
X81020Y677320D01*
X81830Y676470D01*
X82470Y675200D01*
X82630Y673720D01*
X82470Y672450D01*
X81830Y671180D01*
X80860Y670120D01*
X79740Y669700D01*
X78450Y670120D01*
X77320Y671390D01*
X76680Y673300D01*
X76520Y675410D01*
X76840Y678170D01*
X77320Y679650D01*
X78130Y681130D01*
X79250Y682190D01*
X80380Y682400D01*
X81510Y681980D01*
X82310Y680920D01*
G01X123290Y-1257300D02*
Y-1244600D01*
X127310D01*
X128600Y-1245240D01*
X129400Y-1246080D01*
X129720Y-1247780D01*
X129400Y-1249470D01*
X128440Y-1250530D01*
X127310Y-1251160D01*
X123290D01*
G01X127310D02*
X129720Y-1257300D01*
G01X136080Y-1255610D02*
X137360Y-1256670D01*
X138810Y-1257300D01*
X140100D01*
X141390Y-1256670D01*
X142350Y-1255610D01*
X142830Y-1254120D01*
X142510Y-1252640D01*
X141710Y-1251370D01*
X140260Y-1250530D01*
X138330Y-1250100D01*
X137200Y-1249260D01*
X136720Y-1247780D01*
X137040Y-1246290D01*
X137850Y-1245240D01*
X138970Y-1244600D01*
X140100D01*
X141220Y-1245020D01*
X142190Y-1246080D01*
G01X154340Y-1257300D02*
Y-1244600D01*
X148380Y-1253700D01*
X156430D01*
G01X162300Y-1246720D02*
X163260Y-1245450D01*
X164390Y-1244810D01*
X165680Y-1244600D01*
X167290Y-1245020D01*
X168410Y-1246080D01*
X168730Y-1247350D01*
X168570Y-1248620D01*
X167930Y-1249680D01*
X164710Y-1251800D01*
X163260Y-1253280D01*
X162300Y-1255400D01*
X161980Y-1257300D01*
X168730D01*
G01X175250Y-1246720D02*
X176210Y-1245450D01*
X177340Y-1244810D01*
X178630Y-1244600D01*
X180240Y-1245020D01*
X181360Y-1246080D01*
X181680Y-1247350D01*
X181520Y-1248620D01*
X180880Y-1249680D01*
X177660Y-1251800D01*
X176210Y-1253280D01*
X175250Y-1255400D01*
X174930Y-1257300D01*
X181680D01*
G01X123290Y-1206500D02*
Y-1193800D01*
X127310D01*
X128600Y-1194440D01*
X129400Y-1195280D01*
X129720Y-1196980D01*
X129400Y-1198670D01*
X128440Y-1199730D01*
X127310Y-1200360D01*
X123290D01*
G01X127310D02*
X129720Y-1206500D01*
G01X136080Y-1204810D02*
X137360Y-1205870D01*
X138810Y-1206500D01*
X140100D01*
X141390Y-1205870D01*
X142350Y-1204810D01*
X142830Y-1203320D01*
X142510Y-1201840D01*
X141710Y-1200570D01*
X140260Y-1199730D01*
X138330Y-1199300D01*
X137200Y-1198460D01*
X136720Y-1196980D01*
X137040Y-1195490D01*
X137850Y-1194440D01*
X138970Y-1193800D01*
X140100D01*
X141220Y-1194220D01*
X142190Y-1195280D01*
G01X154340Y-1206500D02*
Y-1193800D01*
X148380Y-1202900D01*
X156430D01*
G01X165350Y-1206500D02*
X166480Y-1206290D01*
X167770Y-1205650D01*
X168570Y-1204600D01*
X168890Y-1203110D01*
X168570Y-1201630D01*
X167610Y-1200360D01*
X166160Y-1199730D01*
X164550D01*
X163590Y-1199300D01*
X162780Y-1198250D01*
X162460Y-1196760D01*
X162940Y-1195280D01*
X164070Y-1194220D01*
X165350Y-1193800D01*
X166640Y-1194220D01*
X167770Y-1195280D01*
X168250Y-1196760D01*
X167930Y-1198250D01*
X167120Y-1199300D01*
X166160Y-1199730D01*
X164550D01*
X163100Y-1200360D01*
X162140Y-1201630D01*
X161820Y-1203110D01*
X162140Y-1204600D01*
X162940Y-1205650D01*
X164230Y-1206290D01*
X165350Y-1206500D01*
G01X174770Y-1204600D02*
X175730Y-1205650D01*
X176860Y-1206290D01*
X178300Y-1206500D01*
X179750Y-1206080D01*
X180880Y-1205230D01*
X181680Y-1203750D01*
X181840Y-1202060D01*
X181520Y-1200360D01*
X180720Y-1199300D01*
X179590Y-1198460D01*
X178470Y-1198250D01*
X177340Y-1198460D01*
X175890Y-1199300D01*
X176370Y-1193800D01*
X180720D01*
G01X161290Y-1092250D02*
X160330Y-1091610D01*
X159200Y-1091190D01*
X157920D01*
X156470Y-1091830D01*
X155340Y-1092880D01*
X154540Y-1094150D01*
X153890Y-1096270D01*
X153730Y-1098180D01*
X154060Y-1100080D01*
X154540Y-1101350D01*
X155500Y-1102620D01*
X156630Y-1103470D01*
X157750Y-1103890D01*
X158880D01*
X160010Y-1103470D01*
X160970Y-1102830D01*
X161780Y-1101990D01*
G01X167650Y-1093310D02*
X168610Y-1092040D01*
X169740Y-1091400D01*
X171030Y-1091190D01*
X172640Y-1091610D01*
X173760Y-1092670D01*
X174080Y-1093940D01*
X173920Y-1095210D01*
X173280Y-1096270D01*
X170060Y-1098390D01*
X168610Y-1099870D01*
X167650Y-1101990D01*
X167330Y-1103890D01*
X174080D01*
G01X183650Y-1091190D02*
X182370Y-1091610D01*
X181400Y-1092670D01*
X180760Y-1093940D01*
X180280Y-1095640D01*
X180120Y-1097540D01*
X180280Y-1099450D01*
X180760Y-1101140D01*
X181400Y-1102410D01*
X182370Y-1103470D01*
X183650Y-1103890D01*
X184940Y-1103470D01*
X185910Y-1102410D01*
X186550Y-1101140D01*
X187030Y-1099450D01*
X187190Y-1097540D01*
X187030Y-1095640D01*
X186550Y-1093940D01*
X185910Y-1092670D01*
X184940Y-1091610D01*
X183650Y-1091190D01*
G01X125170Y-1055350D02*
Y-1042650D01*
X129190D01*
X130480Y-1043290D01*
X131280Y-1044130D01*
X131600Y-1045830D01*
X131280Y-1047520D01*
X130320Y-1048580D01*
X129190Y-1049210D01*
X125170D01*
G01X129190D02*
X131600Y-1055350D01*
G01X138280Y-1044770D02*
X139240Y-1043500D01*
X140370Y-1042860D01*
X141660Y-1042650D01*
X143270Y-1043070D01*
X144390Y-1044130D01*
X144710Y-1045400D01*
X144550Y-1046670D01*
X143910Y-1047730D01*
X140690Y-1049850D01*
X139240Y-1051330D01*
X138280Y-1053450D01*
X137960Y-1055350D01*
X144710D01*
G01X151230Y-1050060D02*
X152350Y-1048580D01*
X153320Y-1047730D01*
X154610Y-1047310D01*
X155730Y-1047730D01*
X156540Y-1048580D01*
X157180Y-1049850D01*
X157340Y-1051330D01*
X157180Y-1052600D01*
X156540Y-1053870D01*
X155570Y-1054930D01*
X154450Y-1055350D01*
X153160Y-1054930D01*
X152030Y-1053660D01*
X151390Y-1051750D01*
X151230Y-1049640D01*
X151550Y-1046880D01*
X152030Y-1045400D01*
X152840Y-1043920D01*
X153960Y-1042860D01*
X155090Y-1042650D01*
X156220Y-1043070D01*
X157020Y-1044130D01*
G01X142820Y-944900D02*
Y-932200D01*
X146840D01*
X148130Y-932840D01*
X148930Y-933680D01*
X149250Y-935380D01*
X148930Y-937070D01*
X147970Y-938130D01*
X146840Y-938760D01*
X142820D01*
G01X146840D02*
X149250Y-944900D01*
G01X155930Y-934320D02*
X156890Y-933050D01*
X158020Y-932410D01*
X159310Y-932200D01*
X160920Y-932620D01*
X162040Y-933680D01*
X162360Y-934950D01*
X162200Y-936220D01*
X161560Y-937280D01*
X158340Y-939400D01*
X156890Y-940880D01*
X155930Y-943000D01*
X155610Y-944900D01*
X162360D01*
G01X168400Y-943000D02*
X169360Y-944050D01*
X170490Y-944690D01*
X171930Y-944900D01*
X173380Y-944480D01*
X174510Y-943630D01*
X175310Y-942150D01*
X175470Y-940460D01*
X175150Y-938760D01*
X174350Y-937700D01*
X173220Y-936860D01*
X172100Y-936650D01*
X170970Y-936860D01*
X169520Y-937700D01*
X170000Y-932200D01*
X174350D01*
G01X107920Y-1005350D02*
Y-992650D01*
X111940D01*
X113230Y-993290D01*
X114030Y-994130D01*
X114350Y-995830D01*
X114030Y-997520D01*
X113070Y-998580D01*
X111940Y-999210D01*
X107920D01*
G01X111940D02*
X114350Y-1005350D01*
G01X121030Y-1000060D02*
X122150Y-998580D01*
X123120Y-997730D01*
X124410Y-997310D01*
X125530Y-997730D01*
X126340Y-998580D01*
X126980Y-999850D01*
X127140Y-1001330D01*
X126980Y-1002600D01*
X126340Y-1003870D01*
X125370Y-1004930D01*
X124250Y-1005350D01*
X122960Y-1004930D01*
X121830Y-1003660D01*
X121190Y-1001750D01*
X121030Y-999640D01*
X121350Y-996880D01*
X121830Y-995400D01*
X122640Y-993920D01*
X123760Y-992860D01*
X124890Y-992650D01*
X126020Y-993070D01*
X126820Y-994130D01*
G01X133500Y-1003450D02*
X134460Y-1004500D01*
X135590Y-1005140D01*
X137030Y-1005350D01*
X138480Y-1004930D01*
X139610Y-1004080D01*
X140410Y-1002600D01*
X140570Y-1000910D01*
X140250Y-999210D01*
X139450Y-998150D01*
X138320Y-997310D01*
X137200Y-997100D01*
X136070Y-997310D01*
X134620Y-998150D01*
X135100Y-992650D01*
X139450D01*
G01X155770Y-886960D02*
X154810Y-886320D01*
X153680Y-885900D01*
X152400D01*
X150950Y-886540D01*
X149820Y-887590D01*
X149020Y-888860D01*
X148370Y-890980D01*
X148210Y-892890D01*
X148540Y-894790D01*
X149020Y-896060D01*
X149980Y-897330D01*
X151110Y-898180D01*
X152230Y-898600D01*
X153360D01*
X154490Y-898180D01*
X155450Y-897540D01*
X156260Y-896700D01*
G01X161650Y-896060D02*
X162610Y-897540D01*
X163900Y-898390D01*
X165350Y-898600D01*
X166630Y-898390D01*
X167920Y-897330D01*
X168720Y-896060D01*
X168880Y-894790D01*
X168560Y-893310D01*
X167440Y-892250D01*
X166310Y-891830D01*
X164860D01*
G01X166310D02*
X167280Y-891190D01*
X168080Y-890130D01*
X168400Y-888860D01*
X168080Y-887590D01*
X167280Y-886540D01*
X165830Y-885900D01*
X164380Y-886110D01*
X162930Y-886960D01*
G01X177810Y-898600D02*
X178130Y-895850D01*
X178620Y-893520D01*
X179260Y-891400D01*
X180070Y-889080D01*
X181350Y-885900D01*
X174920D01*
G01X149020Y-720600D02*
Y-707900D01*
X153040D01*
X154330Y-708540D01*
X155130Y-709380D01*
X155450Y-711080D01*
X155130Y-712770D01*
X154170Y-713830D01*
X153040Y-714460D01*
X149020D01*
G01X153040D02*
X155450Y-720600D01*
G01X162130Y-715310D02*
X163250Y-713830D01*
X164220Y-712980D01*
X165510Y-712560D01*
X166630Y-712980D01*
X167440Y-713830D01*
X168080Y-715100D01*
X168240Y-716580D01*
X168080Y-717850D01*
X167440Y-719120D01*
X166470Y-720180D01*
X165350Y-720600D01*
X164060Y-720180D01*
X162930Y-718910D01*
X162290Y-717000D01*
X162130Y-714890D01*
X162450Y-712130D01*
X162930Y-710650D01*
X163740Y-709170D01*
X164860Y-708110D01*
X165990Y-707900D01*
X167120Y-708320D01*
X167920Y-709380D01*
G01X178130Y-720600D02*
X179260Y-720390D01*
X180550Y-719750D01*
X181350Y-718700D01*
X181670Y-717210D01*
X181350Y-715730D01*
X180390Y-714460D01*
X178940Y-713830D01*
X177330D01*
X176370Y-713400D01*
X175560Y-712350D01*
X175240Y-710860D01*
X175720Y-709380D01*
X176850Y-708320D01*
X178130Y-707900D01*
X179420Y-708320D01*
X180550Y-709380D01*
X181030Y-710860D01*
X180710Y-712350D01*
X179900Y-713400D01*
X178940Y-713830D01*
X177330D01*
X175880Y-714460D01*
X174920Y-715730D01*
X174600Y-717210D01*
X174920Y-718700D01*
X175720Y-719750D01*
X177010Y-720390D01*
X178130Y-720600D01*
G01X123510Y-664600D02*
Y-651900D01*
X127530D01*
X128820Y-652540D01*
X129620Y-653380D01*
X129940Y-655080D01*
X129620Y-656770D01*
X128660Y-657830D01*
X127530Y-658460D01*
X123510D01*
G01X127530D02*
X129940Y-664600D01*
G01X136620Y-654020D02*
X137580Y-652750D01*
X138710Y-652110D01*
X140000Y-651900D01*
X141610Y-652320D01*
X142730Y-653380D01*
X143050Y-654650D01*
X142890Y-655920D01*
X142250Y-656980D01*
X139030Y-659100D01*
X137580Y-660580D01*
X136620Y-662700D01*
X136300Y-664600D01*
X143050D01*
G01X155770Y-632960D02*
X154810Y-632320D01*
X153680Y-631900D01*
X152400D01*
X150950Y-632540D01*
X149820Y-633590D01*
X149020Y-634860D01*
X148370Y-636980D01*
X148210Y-638890D01*
X148540Y-640790D01*
X149020Y-642060D01*
X149980Y-643330D01*
X151110Y-644180D01*
X152230Y-644600D01*
X153360D01*
X154490Y-644180D01*
X155450Y-643540D01*
X156260Y-642700D01*
G01X165180Y-644600D02*
Y-631900D01*
X163250Y-634440D01*
G01Y-644600D02*
X167110D01*
G01X178130Y-631900D02*
X176850Y-632320D01*
X175880Y-633380D01*
X175240Y-634650D01*
X174760Y-636350D01*
X174600Y-638250D01*
X174760Y-640160D01*
X175240Y-641850D01*
X175880Y-643120D01*
X176850Y-644180D01*
X178130Y-644600D01*
X179420Y-644180D01*
X180390Y-643120D01*
X181030Y-641850D01*
X181510Y-640160D01*
X181670Y-638250D01*
X181510Y-636350D01*
X181030Y-634650D01*
X180390Y-633380D01*
X179420Y-632320D01*
X178130Y-631900D01*
G01X155770Y-564960D02*
X154810Y-564320D01*
X153680Y-563900D01*
X152400D01*
X150950Y-564540D01*
X149820Y-565590D01*
X149020Y-566860D01*
X148370Y-568980D01*
X148210Y-570890D01*
X148540Y-572790D01*
X149020Y-574060D01*
X149980Y-575330D01*
X151110Y-576180D01*
X152230Y-576600D01*
X153360D01*
X154490Y-576180D01*
X155450Y-575540D01*
X156260Y-574700D01*
G01X161650Y-574060D02*
X162610Y-575540D01*
X163900Y-576390D01*
X165350Y-576600D01*
X166630Y-576390D01*
X167920Y-575330D01*
X168720Y-574060D01*
X168880Y-572790D01*
X168560Y-571310D01*
X167440Y-570250D01*
X166310Y-569830D01*
X164860D01*
G01X166310D02*
X167280Y-569190D01*
X168080Y-568130D01*
X168400Y-566860D01*
X168080Y-565590D01*
X167280Y-564540D01*
X165830Y-563900D01*
X164380Y-564110D01*
X162930Y-564960D01*
G01X175400Y-575120D02*
X176530Y-576180D01*
X177810Y-576600D01*
X179100Y-576180D01*
X180230Y-574910D01*
X181030Y-573000D01*
X181350Y-571100D01*
Y-568770D01*
X181030Y-566860D01*
X180230Y-565170D01*
X179260Y-564320D01*
X178130Y-563900D01*
X176850Y-564320D01*
X175880Y-565170D01*
X175240Y-566440D01*
X174920Y-568130D01*
X175240Y-569610D01*
X176040Y-571100D01*
X177010Y-571940D01*
X178130Y-572160D01*
X179420Y-571730D01*
X180390Y-570670D01*
X181350Y-568770D01*
G01X147020Y-466600D02*
Y-453900D01*
X151040D01*
X152330Y-454540D01*
X153130Y-455380D01*
X153450Y-457080D01*
X153130Y-458770D01*
X152170Y-459830D01*
X151040Y-460460D01*
X147020D01*
G01X151040D02*
X153450Y-466600D01*
G01X162860D02*
X163180Y-463850D01*
X163670Y-461520D01*
X164310Y-459400D01*
X165120Y-457080D01*
X166400Y-453900D01*
X159970D01*
G01X176130D02*
X174850Y-454320D01*
X173880Y-455380D01*
X173240Y-456650D01*
X172760Y-458350D01*
X172600Y-460250D01*
X172760Y-462160D01*
X173240Y-463850D01*
X173880Y-465120D01*
X174850Y-466180D01*
X176130Y-466600D01*
X177420Y-466180D01*
X178390Y-465120D01*
X179030Y-463850D01*
X179510Y-462160D01*
X179670Y-460250D01*
X179510Y-458350D01*
X179030Y-456650D01*
X178390Y-455380D01*
X177420Y-454320D01*
X176130Y-453900D01*
G01X113740Y-374650D02*
X116960D01*
Y-378460D01*
X115990Y-379730D01*
X114870Y-380580D01*
X113260Y-381000D01*
X111650Y-380580D01*
X110520Y-379730D01*
X109560Y-378460D01*
X108910Y-376980D01*
X108590Y-375290D01*
Y-373800D01*
X108910Y-372530D01*
X109560Y-371050D01*
X110520Y-369780D01*
X111490Y-368940D01*
X112770Y-368300D01*
X113900D01*
X115190Y-368720D01*
X116150Y-369570D01*
G01X122030Y-381000D02*
Y-368300D01*
X129420Y-381000D01*
Y-368300D01*
G01X135140Y-381000D02*
Y-368300D01*
X138350D01*
X139640Y-368940D01*
X140610Y-369780D01*
X141410Y-371050D01*
X142050Y-372530D01*
X142210Y-374650D01*
X142050Y-376770D01*
X141410Y-378250D01*
X140610Y-379520D01*
X139640Y-380370D01*
X138350Y-381000D01*
X135140D01*
G01X148410D02*
Y-368300D01*
X152430D01*
X153720Y-368940D01*
X154520Y-369780D01*
X154840Y-371480D01*
X154520Y-373170D01*
X153560Y-374230D01*
X152430Y-374860D01*
X148410D01*
G01X152430D02*
X154840Y-381000D01*
G01X117020Y-410600D02*
Y-397900D01*
X121040D01*
X122330Y-398540D01*
X123130Y-399380D01*
X123450Y-401080D01*
X123130Y-402770D01*
X122170Y-403830D01*
X121040Y-404460D01*
X117020D01*
G01X121040D02*
X123450Y-410600D01*
G01X133180D02*
Y-397900D01*
X131250Y-400440D01*
G01Y-410600D02*
X135110D01*
G01X148070D02*
Y-397900D01*
X142110Y-407000D01*
X150160D01*
G01X124150Y-334000D02*
X130900Y-321300D01*
G01X124150D02*
X130900Y-334000D01*
G01X136940Y-332100D02*
X137900Y-333150D01*
X139030Y-333790D01*
X140470Y-334000D01*
X141920Y-333580D01*
X143050Y-332730D01*
X143850Y-331250D01*
X144010Y-329560D01*
X143690Y-327860D01*
X142890Y-326800D01*
X141760Y-325960D01*
X140640Y-325750D01*
X139510Y-325960D01*
X138060Y-326800D01*
X138540Y-321300D01*
X142890D01*
G01X174720Y-1069410D02*
X173760Y-1068770D01*
X172630Y-1068350D01*
X171350D01*
X169900Y-1068990D01*
X168770Y-1070040D01*
X167970Y-1071310D01*
X167320Y-1073430D01*
X167160Y-1075340D01*
X167490Y-1077240D01*
X167970Y-1078510D01*
X168930Y-1079780D01*
X170060Y-1080630D01*
X171180Y-1081050D01*
X172310D01*
X173440Y-1080630D01*
X174400Y-1079990D01*
X175210Y-1079150D01*
G01X184130Y-1081050D02*
Y-1068350D01*
X182200Y-1070890D01*
G01Y-1081050D02*
X186060D01*
G01X194350Y-1079570D02*
X195480Y-1080630D01*
X196760Y-1081050D01*
X198050Y-1080630D01*
X199180Y-1079360D01*
X199980Y-1077450D01*
X200300Y-1075550D01*
Y-1073220D01*
X199980Y-1071310D01*
X199180Y-1069620D01*
X198210Y-1068770D01*
X197080Y-1068350D01*
X195800Y-1068770D01*
X194830Y-1069620D01*
X194190Y-1070890D01*
X193870Y-1072580D01*
X194190Y-1074060D01*
X194990Y-1075550D01*
X195960Y-1076390D01*
X197080Y-1076610D01*
X198370Y-1076180D01*
X199340Y-1075120D01*
X200300Y-1073220D01*
G01X198400Y-1053660D02*
Y-1040960D01*
X201610D01*
X202900Y-1041600D01*
X203870Y-1042440D01*
X204670Y-1043710D01*
X205310Y-1045190D01*
X205470Y-1047310D01*
X205310Y-1049430D01*
X204670Y-1050910D01*
X203870Y-1052180D01*
X202900Y-1053030D01*
X201610Y-1053660D01*
X198400D01*
G01X211350D02*
Y-1040960D01*
X214560D01*
X215850Y-1041600D01*
X216820Y-1042440D01*
X217620Y-1043710D01*
X218260Y-1045190D01*
X218420Y-1047310D01*
X218260Y-1049430D01*
X217620Y-1050910D01*
X216820Y-1052180D01*
X215850Y-1053030D01*
X214560Y-1053660D01*
X211350D01*
G01X224300Y-1051760D02*
X225260Y-1052810D01*
X226390Y-1053450D01*
X227830Y-1053660D01*
X229280Y-1053240D01*
X230410Y-1052390D01*
X231210Y-1050910D01*
X231370Y-1049220D01*
X231050Y-1047520D01*
X230250Y-1046460D01*
X229120Y-1045620D01*
X228000Y-1045410D01*
X226870Y-1045620D01*
X225420Y-1046460D01*
X225900Y-1040960D01*
X230250D01*
G01X178370Y-962400D02*
X177410Y-961760D01*
X176280Y-961340D01*
X175000D01*
X173550Y-961980D01*
X172420Y-963030D01*
X171620Y-964300D01*
X170970Y-966420D01*
X170810Y-968330D01*
X171140Y-970230D01*
X171620Y-971500D01*
X172580Y-972770D01*
X173710Y-973620D01*
X174830Y-974040D01*
X175960D01*
X177090Y-973620D01*
X178050Y-972980D01*
X178860Y-972140D01*
G01X184730Y-963460D02*
X185690Y-962190D01*
X186820Y-961550D01*
X188110Y-961340D01*
X189720Y-961760D01*
X190840Y-962820D01*
X191160Y-964090D01*
X191000Y-965360D01*
X190360Y-966420D01*
X187140Y-968540D01*
X185690Y-970020D01*
X184730Y-972140D01*
X184410Y-974040D01*
X191160D01*
G01X197680Y-963460D02*
X198640Y-962190D01*
X199770Y-961550D01*
X201060Y-961340D01*
X202670Y-961760D01*
X203790Y-962820D01*
X204110Y-964090D01*
X203950Y-965360D01*
X203310Y-966420D01*
X200090Y-968540D01*
X198640Y-970020D01*
X197680Y-972140D01*
X197360Y-974040D01*
X204110D01*
G01X178720Y-981000D02*
X177760Y-980360D01*
X176630Y-979940D01*
X175350D01*
X173900Y-980580D01*
X172770Y-981630D01*
X171970Y-982900D01*
X171320Y-985020D01*
X171160Y-986930D01*
X171490Y-988830D01*
X171970Y-990100D01*
X172930Y-991370D01*
X174060Y-992220D01*
X175180Y-992640D01*
X176310D01*
X177440Y-992220D01*
X178400Y-991580D01*
X179210Y-990740D01*
G01X185080Y-982060D02*
X186040Y-980790D01*
X187170Y-980150D01*
X188460Y-979940D01*
X190070Y-980360D01*
X191190Y-981420D01*
X191510Y-982690D01*
X191350Y-983960D01*
X190710Y-985020D01*
X187490Y-987140D01*
X186040Y-988620D01*
X185080Y-990740D01*
X184760Y-992640D01*
X191510D01*
G01X197550Y-990100D02*
X198510Y-991580D01*
X199800Y-992430D01*
X201250Y-992640D01*
X202530Y-992430D01*
X203820Y-991370D01*
X204620Y-990100D01*
X204780Y-988830D01*
X204460Y-987350D01*
X203340Y-986290D01*
X202210Y-985870D01*
X200760D01*
G01X202210D02*
X203180Y-985230D01*
X203980Y-984170D01*
X204300Y-982900D01*
X203980Y-981630D01*
X203180Y-980580D01*
X201730Y-979940D01*
X200280Y-980150D01*
X198830Y-981000D01*
G01X214260Y-878960D02*
X213300Y-878320D01*
X212170Y-877900D01*
X210890D01*
X209440Y-878540D01*
X208310Y-879590D01*
X207510Y-880860D01*
X206860Y-882980D01*
X206700Y-884890D01*
X207030Y-886790D01*
X207510Y-888060D01*
X208470Y-889330D01*
X209600Y-890180D01*
X210720Y-890600D01*
X211850D01*
X212980Y-890180D01*
X213940Y-889540D01*
X214750Y-888700D01*
G01X220620Y-880020D02*
X221580Y-878750D01*
X222710Y-878110D01*
X224000Y-877900D01*
X225610Y-878320D01*
X226730Y-879380D01*
X227050Y-880650D01*
X226890Y-881920D01*
X226250Y-882980D01*
X223030Y-885100D01*
X221580Y-886580D01*
X220620Y-888700D01*
X220300Y-890600D01*
X227050D01*
G01X162260Y-818960D02*
X161300Y-818320D01*
X160170Y-817900D01*
X158890D01*
X157440Y-818540D01*
X156310Y-819590D01*
X155510Y-820860D01*
X154860Y-822980D01*
X154700Y-824890D01*
X155030Y-826790D01*
X155510Y-828060D01*
X156470Y-829330D01*
X157600Y-830180D01*
X158720Y-830600D01*
X159850D01*
X160980Y-830180D01*
X161940Y-829540D01*
X162750Y-828700D01*
G01X168140Y-828060D02*
X169100Y-829540D01*
X170390Y-830390D01*
X171840Y-830600D01*
X173120Y-830390D01*
X174410Y-829330D01*
X175210Y-828060D01*
X175370Y-826790D01*
X175050Y-825310D01*
X173930Y-824250D01*
X172800Y-823830D01*
X171350D01*
G01X172800D02*
X173770Y-823190D01*
X174570Y-822130D01*
X174890Y-820860D01*
X174570Y-819590D01*
X173770Y-818540D01*
X172320Y-817900D01*
X170870Y-818110D01*
X169420Y-818960D01*
G01X220260Y-792960D02*
X219300Y-792320D01*
X218170Y-791900D01*
X216890D01*
X215440Y-792540D01*
X214310Y-793590D01*
X213510Y-794860D01*
X212860Y-796980D01*
X212700Y-798890D01*
X213030Y-800790D01*
X213510Y-802060D01*
X214470Y-803330D01*
X215600Y-804180D01*
X216720Y-804600D01*
X217850D01*
X218980Y-804180D01*
X219940Y-803540D01*
X220750Y-802700D01*
G01X231610Y-804600D02*
Y-791900D01*
X225650Y-801000D01*
X233700D01*
G01X226260Y-744960D02*
X225300Y-744320D01*
X224170Y-743900D01*
X222890D01*
X221440Y-744540D01*
X220310Y-745590D01*
X219510Y-746860D01*
X218860Y-748980D01*
X218700Y-750890D01*
X219030Y-752790D01*
X219510Y-754060D01*
X220470Y-755330D01*
X221600Y-756180D01*
X222720Y-756600D01*
X223850D01*
X224980Y-756180D01*
X225940Y-755540D01*
X226750Y-754700D01*
G01X232140D02*
X233100Y-755750D01*
X234230Y-756390D01*
X235670Y-756600D01*
X237120Y-756180D01*
X238250Y-755330D01*
X239050Y-753850D01*
X239210Y-752160D01*
X238890Y-750460D01*
X238090Y-749400D01*
X236960Y-748560D01*
X235840Y-748350D01*
X234710Y-748560D01*
X233260Y-749400D01*
X233740Y-743900D01*
X238090D01*
G01X193060Y-781050D02*
Y-768350D01*
X196270D01*
X197560Y-768990D01*
X198530Y-769830D01*
X199330Y-771100D01*
X199970Y-772580D01*
X200130Y-774700D01*
X199970Y-776820D01*
X199330Y-778300D01*
X198530Y-779570D01*
X197560Y-780420D01*
X196270Y-781050D01*
X193060D01*
G01X206010D02*
Y-768350D01*
X209220D01*
X210510Y-768990D01*
X211480Y-769830D01*
X212280Y-771100D01*
X212920Y-772580D01*
X213080Y-774700D01*
X212920Y-776820D01*
X212280Y-778300D01*
X211480Y-779570D01*
X210510Y-780420D01*
X209220Y-781050D01*
X206010D01*
G01X219440Y-775760D02*
X220560Y-774280D01*
X221530Y-773430D01*
X222820Y-773010D01*
X223940Y-773430D01*
X224750Y-774280D01*
X225390Y-775550D01*
X225550Y-777030D01*
X225390Y-778300D01*
X224750Y-779570D01*
X223780Y-780630D01*
X222660Y-781050D01*
X221370Y-780630D01*
X220240Y-779360D01*
X219600Y-777450D01*
X219440Y-775340D01*
X219760Y-772580D01*
X220240Y-771100D01*
X221050Y-769620D01*
X222170Y-768560D01*
X223300Y-768350D01*
X224430Y-768770D01*
X225230Y-769830D01*
G01X226260Y-674960D02*
X225300Y-674320D01*
X224170Y-673900D01*
X222890D01*
X221440Y-674540D01*
X220310Y-675590D01*
X219510Y-676860D01*
X218860Y-678980D01*
X218700Y-680890D01*
X219030Y-682790D01*
X219510Y-684060D01*
X220470Y-685330D01*
X221600Y-686180D01*
X222720Y-686600D01*
X223850D01*
X224980Y-686180D01*
X225940Y-685540D01*
X226750Y-684700D01*
G01X235670Y-686600D02*
Y-673900D01*
X233740Y-676440D01*
G01Y-686600D02*
X237600D01*
G01X187510Y-664600D02*
Y-651900D01*
X191530D01*
X192820Y-652540D01*
X193620Y-653380D01*
X193940Y-655080D01*
X193620Y-656770D01*
X192660Y-657830D01*
X191530Y-658460D01*
X187510D01*
G01X191530D02*
X193940Y-664600D01*
G01X203670D02*
Y-651900D01*
X201740Y-654440D01*
G01Y-664600D02*
X205600D01*
G01X207770Y-624960D02*
X206810Y-624320D01*
X205680Y-623900D01*
X204400D01*
X202950Y-624540D01*
X201820Y-625590D01*
X201020Y-626860D01*
X200370Y-628980D01*
X200210Y-630890D01*
X200540Y-632790D01*
X201020Y-634060D01*
X201980Y-635330D01*
X203110Y-636180D01*
X204230Y-636600D01*
X205360D01*
X206490Y-636180D01*
X207450Y-635540D01*
X208260Y-634700D01*
G01X217180Y-636600D02*
Y-623900D01*
X215250Y-626440D01*
G01Y-636600D02*
X219110D01*
G01X230130D02*
Y-623900D01*
X228200Y-626440D01*
G01Y-636600D02*
X232060D01*
G01X213770Y-538960D02*
X212810Y-538320D01*
X211680Y-537900D01*
X210400D01*
X208950Y-538540D01*
X207820Y-539590D01*
X207020Y-540860D01*
X206370Y-542980D01*
X206210Y-544890D01*
X206540Y-546790D01*
X207020Y-548060D01*
X207980Y-549330D01*
X209110Y-550180D01*
X210230Y-550600D01*
X211360D01*
X212490Y-550180D01*
X213450Y-549540D01*
X214260Y-548700D01*
G01X223180Y-550600D02*
Y-537900D01*
X221250Y-540440D01*
G01Y-550600D02*
X225110D01*
G01X233080Y-540020D02*
X234040Y-538750D01*
X235170Y-538110D01*
X236460Y-537900D01*
X238070Y-538320D01*
X239190Y-539380D01*
X239510Y-540650D01*
X239350Y-541920D01*
X238710Y-542980D01*
X235490Y-545100D01*
X234040Y-546580D01*
X233080Y-548700D01*
X232760Y-550600D01*
X239510D01*
G01X193060Y-527050D02*
Y-514350D01*
X196270D01*
X197560Y-514990D01*
X198530Y-515830D01*
X199330Y-517100D01*
X199970Y-518580D01*
X200130Y-520700D01*
X199970Y-522820D01*
X199330Y-524300D01*
X198530Y-525570D01*
X197560Y-526420D01*
X196270Y-527050D01*
X193060D01*
G01X206010D02*
Y-514350D01*
X209220D01*
X210510Y-514990D01*
X211480Y-515830D01*
X212280Y-517100D01*
X212920Y-518580D01*
X213080Y-520700D01*
X212920Y-522820D01*
X212280Y-524300D01*
X211480Y-525570D01*
X210510Y-526420D01*
X209220Y-527050D01*
X206010D01*
G01X222490D02*
X223620Y-526840D01*
X224910Y-526200D01*
X225710Y-525150D01*
X226030Y-523660D01*
X225710Y-522180D01*
X224750Y-520910D01*
X223300Y-520280D01*
X221690D01*
X220730Y-519850D01*
X219920Y-518800D01*
X219600Y-517310D01*
X220080Y-515830D01*
X221210Y-514770D01*
X222490Y-514350D01*
X223780Y-514770D01*
X224910Y-515830D01*
X225390Y-517310D01*
X225070Y-518800D01*
X224260Y-519850D01*
X223300Y-520280D01*
X221690D01*
X220240Y-520910D01*
X219280Y-522180D01*
X218960Y-523660D01*
X219280Y-525150D01*
X220080Y-526200D01*
X221370Y-526840D01*
X222490Y-527050D01*
G01X219770Y-490960D02*
X218810Y-490320D01*
X217680Y-489900D01*
X216400D01*
X214950Y-490540D01*
X213820Y-491590D01*
X213020Y-492860D01*
X212370Y-494980D01*
X212210Y-496890D01*
X212540Y-498790D01*
X213020Y-500060D01*
X213980Y-501330D01*
X215110Y-502180D01*
X216230Y-502600D01*
X217360D01*
X218490Y-502180D01*
X219450Y-501540D01*
X220260Y-500700D01*
G01X229180Y-502600D02*
Y-489900D01*
X227250Y-492440D01*
G01Y-502600D02*
X231110D01*
G01X244070D02*
Y-489900D01*
X238110Y-499000D01*
X246160D01*
G01X221770Y-420960D02*
X220810Y-420320D01*
X219680Y-419900D01*
X218400D01*
X216950Y-420540D01*
X215820Y-421590D01*
X215020Y-422860D01*
X214370Y-424980D01*
X214210Y-426890D01*
X214540Y-428790D01*
X215020Y-430060D01*
X215980Y-431330D01*
X217110Y-432180D01*
X218230Y-432600D01*
X219360D01*
X220490Y-432180D01*
X221450Y-431540D01*
X222260Y-430700D01*
G01X231180Y-432600D02*
Y-419900D01*
X229250Y-422440D01*
G01Y-432600D02*
X233110D01*
G01X240600Y-430060D02*
X241560Y-431540D01*
X242850Y-432390D01*
X244300Y-432600D01*
X245580Y-432390D01*
X246870Y-431330D01*
X247670Y-430060D01*
X247830Y-428790D01*
X247510Y-427310D01*
X246390Y-426250D01*
X245260Y-425830D01*
X243810D01*
G01X245260D02*
X246230Y-425190D01*
X247030Y-424130D01*
X247350Y-422860D01*
X247030Y-421590D01*
X246230Y-420540D01*
X244780Y-419900D01*
X243330Y-420110D01*
X241880Y-420960D01*
G01X181020Y-410600D02*
Y-397900D01*
X185040D01*
X186330Y-398540D01*
X187130Y-399380D01*
X187450Y-401080D01*
X187130Y-402770D01*
X186170Y-403830D01*
X185040Y-404460D01*
X181020D01*
G01X185040D02*
X187450Y-410600D01*
G01X197180D02*
Y-397900D01*
X195250Y-400440D01*
G01Y-410600D02*
X199110D01*
G01X206600Y-408060D02*
X207560Y-409540D01*
X208850Y-410390D01*
X210300Y-410600D01*
X211580Y-410390D01*
X212870Y-409330D01*
X213670Y-408060D01*
X213830Y-406790D01*
X213510Y-405310D01*
X212390Y-404250D01*
X211260Y-403830D01*
X209810D01*
G01X211260D02*
X212230Y-403190D01*
X213030Y-402130D01*
X213350Y-400860D01*
X213030Y-399590D01*
X212230Y-398540D01*
X210780Y-397900D01*
X209330Y-398110D01*
X207880Y-398960D01*
G01X297700Y-953860D02*
Y-941160D01*
X300910D01*
X302200Y-941800D01*
X303170Y-942640D01*
X303970Y-943910D01*
X304610Y-945390D01*
X304770Y-947510D01*
X304610Y-949630D01*
X303970Y-951110D01*
X303170Y-952380D01*
X302200Y-953230D01*
X300910Y-953860D01*
X297700D01*
G01X310650D02*
Y-941160D01*
X313860D01*
X315150Y-941800D01*
X316120Y-942640D01*
X316920Y-943910D01*
X317560Y-945390D01*
X317720Y-947510D01*
X317560Y-949630D01*
X316920Y-951110D01*
X316120Y-952380D01*
X315150Y-953230D01*
X313860Y-953860D01*
X310650D01*
G01X324400Y-952380D02*
X325530Y-953440D01*
X326810Y-953860D01*
X328100Y-953440D01*
X329230Y-952170D01*
X330030Y-950260D01*
X330350Y-948360D01*
Y-946030D01*
X330030Y-944120D01*
X329230Y-942430D01*
X328260Y-941580D01*
X327130Y-941160D01*
X325850Y-941580D01*
X324880Y-942430D01*
X324240Y-943700D01*
X323920Y-945390D01*
X324240Y-946870D01*
X325040Y-948360D01*
X326010Y-949200D01*
X327130Y-949420D01*
X328420Y-948990D01*
X329390Y-947930D01*
X330350Y-946030D01*
G01X233870Y-904120D02*
X232910Y-903480D01*
X231780Y-903060D01*
X230500D01*
X229050Y-903700D01*
X227920Y-904750D01*
X227120Y-906020D01*
X226470Y-908140D01*
X226310Y-910050D01*
X226640Y-911950D01*
X227120Y-913220D01*
X228080Y-914490D01*
X229210Y-915340D01*
X230330Y-915760D01*
X231460D01*
X232590Y-915340D01*
X233550Y-914700D01*
X234360Y-913860D01*
G01X240230Y-905180D02*
X241190Y-903910D01*
X242320Y-903270D01*
X243610Y-903060D01*
X245220Y-903480D01*
X246340Y-904540D01*
X246660Y-905810D01*
X246500Y-907080D01*
X245860Y-908140D01*
X242640Y-910260D01*
X241190Y-911740D01*
X240230Y-913860D01*
X239910Y-915760D01*
X246660D01*
G01X256230D02*
Y-903060D01*
X254300Y-905600D01*
G01Y-915760D02*
X258160D01*
G01X297700Y-699860D02*
Y-687160D01*
X300910D01*
X302200Y-687800D01*
X303170Y-688640D01*
X303970Y-689910D01*
X304610Y-691390D01*
X304770Y-693510D01*
X304610Y-695630D01*
X303970Y-697110D01*
X303170Y-698380D01*
X302200Y-699230D01*
X300910Y-699860D01*
X297700D01*
G01X310650D02*
Y-687160D01*
X313860D01*
X315150Y-687800D01*
X316120Y-688640D01*
X316920Y-689910D01*
X317560Y-691390D01*
X317720Y-693510D01*
X317560Y-695630D01*
X316920Y-697110D01*
X316120Y-698380D01*
X315150Y-699230D01*
X313860Y-699860D01*
X310650D01*
G01X324080Y-689280D02*
X325040Y-688010D01*
X326170Y-687370D01*
X327460Y-687160D01*
X329070Y-687580D01*
X330190Y-688640D01*
X330510Y-689910D01*
X330350Y-691180D01*
X329710Y-692240D01*
X326490Y-694360D01*
X325040Y-695840D01*
X324080Y-697960D01*
X323760Y-699860D01*
X330510D01*
G01X296700Y-444600D02*
Y-431900D01*
X299910D01*
X301200Y-432540D01*
X302170Y-433380D01*
X302970Y-434650D01*
X303610Y-436130D01*
X303770Y-438250D01*
X303610Y-440370D01*
X302970Y-441850D01*
X302170Y-443120D01*
X301200Y-443970D01*
X299910Y-444600D01*
X296700D01*
G01X309650D02*
Y-431900D01*
X312860D01*
X314150Y-432540D01*
X315120Y-433380D01*
X315920Y-434650D01*
X316560Y-436130D01*
X316720Y-438250D01*
X316560Y-440370D01*
X315920Y-441850D01*
X315120Y-443120D01*
X314150Y-443970D01*
X312860Y-444600D01*
X309650D01*
G01X328070D02*
Y-431900D01*
X322110Y-441000D01*
X330160D01*
G01X246720Y-193950D02*
X245760Y-193310D01*
X244630Y-192890D01*
X243350D01*
X241900Y-193530D01*
X240770Y-194580D01*
X239970Y-195850D01*
X239320Y-197970D01*
X239160Y-199880D01*
X239490Y-201780D01*
X239970Y-203050D01*
X240930Y-204320D01*
X242060Y-205170D01*
X243180Y-205590D01*
X244310D01*
X245440Y-205170D01*
X246400Y-204530D01*
X247210Y-203690D01*
G01X252600Y-203050D02*
X253560Y-204530D01*
X254850Y-205380D01*
X256300Y-205590D01*
X257580Y-205380D01*
X258870Y-204320D01*
X259670Y-203050D01*
X259830Y-201780D01*
X259510Y-200300D01*
X258390Y-199240D01*
X257260Y-198820D01*
X255810D01*
G01X257260D02*
X258230Y-198180D01*
X259030Y-197120D01*
X259350Y-195850D01*
X259030Y-194580D01*
X258230Y-193530D01*
X256780Y-192890D01*
X255330Y-193100D01*
X253880Y-193950D01*
G01X271020Y-205590D02*
Y-192890D01*
X265060Y-201990D01*
X273110D01*
G01X246720Y-9800D02*
X245760Y-9160D01*
X244630Y-8740D01*
X243350D01*
X241900Y-9380D01*
X240770Y-10430D01*
X239970Y-11700D01*
X239320Y-13820D01*
X239160Y-15730D01*
X239490Y-17630D01*
X239970Y-18900D01*
X240930Y-20170D01*
X242060Y-21020D01*
X243180Y-21440D01*
X244310D01*
X245440Y-21020D01*
X246400Y-20380D01*
X247210Y-19540D01*
G01X252600Y-18900D02*
X253560Y-20380D01*
X254850Y-21230D01*
X256300Y-21440D01*
X257580Y-21230D01*
X258870Y-20170D01*
X259670Y-18900D01*
X259830Y-17630D01*
X259510Y-16150D01*
X258390Y-15090D01*
X257260Y-14670D01*
X255810D01*
G01X257260D02*
X258230Y-14030D01*
X259030Y-12970D01*
X259350Y-11700D01*
X259030Y-10430D01*
X258230Y-9380D01*
X256780Y-8740D01*
X255330Y-8950D01*
X253880Y-9800D01*
G01X266030Y-10860D02*
X266990Y-9590D01*
X268120Y-8950D01*
X269410Y-8740D01*
X271020Y-9160D01*
X272140Y-10220D01*
X272460Y-11490D01*
X272300Y-12760D01*
X271660Y-13820D01*
X268440Y-15940D01*
X266990Y-17420D01*
X266030Y-19540D01*
X265710Y-21440D01*
X272460D01*
G01X246720Y161650D02*
X245760Y162290D01*
X244630Y162710D01*
X243350D01*
X241900Y162070D01*
X240770Y161020D01*
X239970Y159750D01*
X239320Y157630D01*
X239160Y155720D01*
X239490Y153820D01*
X239970Y152550D01*
X240930Y151280D01*
X242060Y150430D01*
X243180Y150010D01*
X244310D01*
X245440Y150430D01*
X246400Y151070D01*
X247210Y151910D01*
G01X252600Y152550D02*
X253560Y151070D01*
X254850Y150220D01*
X256300Y150010D01*
X257580Y150220D01*
X258870Y151280D01*
X259670Y152550D01*
X259830Y153820D01*
X259510Y155300D01*
X258390Y156360D01*
X257260Y156780D01*
X255810D01*
G01X257260D02*
X258230Y157420D01*
X259030Y158480D01*
X259350Y159750D01*
X259030Y161020D01*
X258230Y162070D01*
X256780Y162710D01*
X255330Y162500D01*
X253880Y161650D01*
G01X269080Y162710D02*
X267800Y162290D01*
X266830Y161230D01*
X266190Y159960D01*
X265710Y158260D01*
X265550Y156360D01*
X265710Y154450D01*
X266190Y152760D01*
X266830Y151490D01*
X267800Y150430D01*
X269080Y150010D01*
X270370Y150430D01*
X271340Y151490D01*
X271980Y152760D01*
X272460Y154450D01*
X272620Y156360D01*
X272460Y158260D01*
X271980Y159960D01*
X271340Y161230D01*
X270370Y162290D01*
X269080Y162710D01*
G01X357210Y-1257300D02*
Y-1244600D01*
X361230D01*
X362520Y-1245240D01*
X363320Y-1246080D01*
X363640Y-1247780D01*
X363320Y-1249470D01*
X362360Y-1250530D01*
X361230Y-1251160D01*
X357210D01*
G01X361230D02*
X363640Y-1257300D01*
G01X370000Y-1255610D02*
X371280Y-1256670D01*
X372730Y-1257300D01*
X374020D01*
X375310Y-1256670D01*
X376270Y-1255610D01*
X376750Y-1254120D01*
X376430Y-1252640D01*
X375630Y-1251370D01*
X374180Y-1250530D01*
X372250Y-1250100D01*
X371120Y-1249260D01*
X370640Y-1247780D01*
X370960Y-1246290D01*
X371770Y-1245240D01*
X372890Y-1244600D01*
X374020D01*
X375140Y-1245020D01*
X376110Y-1246080D01*
G01X388260Y-1257300D02*
Y-1244600D01*
X382300Y-1253700D01*
X390350D01*
G01X396220Y-1246720D02*
X397180Y-1245450D01*
X398310Y-1244810D01*
X399600Y-1244600D01*
X401210Y-1245020D01*
X402330Y-1246080D01*
X402650Y-1247350D01*
X402490Y-1248620D01*
X401850Y-1249680D01*
X398630Y-1251800D01*
X397180Y-1253280D01*
X396220Y-1255400D01*
X395900Y-1257300D01*
X402650D01*
G01X409170Y-1246720D02*
X410130Y-1245450D01*
X411260Y-1244810D01*
X412550Y-1244600D01*
X414160Y-1245020D01*
X415280Y-1246080D01*
X415600Y-1247350D01*
X415440Y-1248620D01*
X414800Y-1249680D01*
X411580Y-1251800D01*
X410130Y-1253280D01*
X409170Y-1255400D01*
X408850Y-1257300D01*
X415600D01*
G01X358490Y-1155700D02*
X362350D01*
G01X360420D02*
Y-1168400D01*
G01X358490D02*
X362350D01*
G01X370640D02*
Y-1159930D01*
G01Y-1162050D02*
X371280Y-1160990D01*
X372250Y-1160150D01*
X373540Y-1159930D01*
X374660Y-1160150D01*
X375630Y-1160990D01*
X376110Y-1162470D01*
Y-1168400D01*
G01X386320Y-1155700D02*
Y-1168400D01*
G01X384070Y-1159930D02*
X388580D01*
G01X396860Y-1162690D02*
X402010D01*
X401530Y-1161200D01*
X400720Y-1160360D01*
X399600Y-1159930D01*
X398470Y-1160150D01*
X397510Y-1160780D01*
X396860Y-1162260D01*
X396540Y-1163530D01*
Y-1164800D01*
X396860Y-1166070D01*
X397670Y-1167340D01*
X398630Y-1168190D01*
X399760Y-1168400D01*
X400880Y-1167980D01*
X402010Y-1166710D01*
G01X409970Y-1168400D02*
Y-1159930D01*
G01Y-1161630D02*
X410780Y-1160780D01*
X411580Y-1160150D01*
X412710Y-1159930D01*
X413510Y-1160150D01*
X414480Y-1160780D01*
G01X424210Y-1168400D02*
Y-1157600D01*
X424530Y-1156550D01*
X425170Y-1155910D01*
X426140Y-1155700D01*
X427110Y-1156120D01*
X427590Y-1157180D01*
G01X425660Y-1160780D02*
X422440D01*
G01X441020Y-1168400D02*
Y-1159930D01*
G01Y-1161410D02*
X440380Y-1160570D01*
X439410Y-1160150D01*
X438290Y-1159930D01*
X437160Y-1160360D01*
X436190Y-1161200D01*
X435550Y-1162470D01*
X435230Y-1164170D01*
X435550Y-1165860D01*
X436190Y-1167130D01*
X437160Y-1167980D01*
X438290Y-1168400D01*
X439410Y-1168190D01*
X440380Y-1167550D01*
X441020Y-1166710D01*
G01X453650Y-1160990D02*
X452520Y-1160150D01*
X451560Y-1159930D01*
X450270Y-1160360D01*
X449310Y-1161200D01*
X448660Y-1162690D01*
X448500Y-1164170D01*
X448660Y-1165650D01*
X449310Y-1166920D01*
X450270Y-1167980D01*
X451560Y-1168400D01*
X452680Y-1167980D01*
X453650Y-1167130D01*
G01X461610Y-1162690D02*
X466760D01*
X466280Y-1161200D01*
X465470Y-1160360D01*
X464350Y-1159930D01*
X463220Y-1160150D01*
X462260Y-1160780D01*
X461610Y-1162260D01*
X461290Y-1163530D01*
Y-1164800D01*
X461610Y-1166070D01*
X462420Y-1167340D01*
X463380Y-1168190D01*
X464510Y-1168400D01*
X465630Y-1167980D01*
X466760Y-1166710D01*
G01X357210Y-1206500D02*
Y-1193800D01*
X361230D01*
X362520Y-1194440D01*
X363320Y-1195280D01*
X363640Y-1196980D01*
X363320Y-1198670D01*
X362360Y-1199730D01*
X361230Y-1200360D01*
X357210D01*
G01X361230D02*
X363640Y-1206500D01*
G01X370000Y-1204810D02*
X371280Y-1205870D01*
X372730Y-1206500D01*
X374020D01*
X375310Y-1205870D01*
X376270Y-1204810D01*
X376750Y-1203320D01*
X376430Y-1201840D01*
X375630Y-1200570D01*
X374180Y-1199730D01*
X372250Y-1199300D01*
X371120Y-1198460D01*
X370640Y-1196980D01*
X370960Y-1195490D01*
X371770Y-1194440D01*
X372890Y-1193800D01*
X374020D01*
X375140Y-1194220D01*
X376110Y-1195280D01*
G01X388260Y-1206500D02*
Y-1193800D01*
X382300Y-1202900D01*
X390350D01*
G01X399270Y-1206500D02*
X400400Y-1206290D01*
X401690Y-1205650D01*
X402490Y-1204600D01*
X402810Y-1203110D01*
X402490Y-1201630D01*
X401530Y-1200360D01*
X400080Y-1199730D01*
X398470D01*
X397510Y-1199300D01*
X396700Y-1198250D01*
X396380Y-1196760D01*
X396860Y-1195280D01*
X397990Y-1194220D01*
X399270Y-1193800D01*
X400560Y-1194220D01*
X401690Y-1195280D01*
X402170Y-1196760D01*
X401850Y-1198250D01*
X401040Y-1199300D01*
X400080Y-1199730D01*
X398470D01*
X397020Y-1200360D01*
X396060Y-1201630D01*
X395740Y-1203110D01*
X396060Y-1204600D01*
X396860Y-1205650D01*
X398150Y-1206290D01*
X399270Y-1206500D01*
G01X408690Y-1204600D02*
X409650Y-1205650D01*
X410780Y-1206290D01*
X412220Y-1206500D01*
X413670Y-1206080D01*
X414800Y-1205230D01*
X415600Y-1203750D01*
X415760Y-1202060D01*
X415440Y-1200360D01*
X414640Y-1199300D01*
X413510Y-1198460D01*
X412390Y-1198250D01*
X411260Y-1198460D01*
X409810Y-1199300D01*
X410290Y-1193800D01*
X414640D01*
G01X371570Y-915850D02*
X370610Y-915210D01*
X369480Y-914790D01*
X368200D01*
X366750Y-915430D01*
X365620Y-916480D01*
X364820Y-917750D01*
X364170Y-919870D01*
X364010Y-921780D01*
X364340Y-923680D01*
X364820Y-924950D01*
X365780Y-926220D01*
X366910Y-927070D01*
X368030Y-927490D01*
X369160D01*
X370290Y-927070D01*
X371250Y-926430D01*
X372060Y-925590D01*
G01X377930Y-916910D02*
X378890Y-915640D01*
X380020Y-915000D01*
X381310Y-914790D01*
X382920Y-915210D01*
X384040Y-916270D01*
X384360Y-917540D01*
X384200Y-918810D01*
X383560Y-919870D01*
X380340Y-921990D01*
X378890Y-923470D01*
X377930Y-925590D01*
X377610Y-927490D01*
X384360D01*
G01X390880Y-922200D02*
X392000Y-920720D01*
X392970Y-919870D01*
X394260Y-919450D01*
X395380Y-919870D01*
X396190Y-920720D01*
X396830Y-921990D01*
X396990Y-923470D01*
X396830Y-924740D01*
X396190Y-926010D01*
X395220Y-927070D01*
X394100Y-927490D01*
X392810Y-927070D01*
X391680Y-925800D01*
X391040Y-923890D01*
X390880Y-921780D01*
X391200Y-919020D01*
X391680Y-917540D01*
X392490Y-916060D01*
X393610Y-915000D01*
X394740Y-914790D01*
X395870Y-915210D01*
X396670Y-916270D01*
G01X373770Y-408960D02*
X372810Y-408320D01*
X371680Y-407900D01*
X370400D01*
X368950Y-408540D01*
X367820Y-409590D01*
X367020Y-410860D01*
X366370Y-412980D01*
X366210Y-414890D01*
X366540Y-416790D01*
X367020Y-418060D01*
X367980Y-419330D01*
X369110Y-420180D01*
X370230Y-420600D01*
X371360D01*
X372490Y-420180D01*
X373450Y-419540D01*
X374260Y-418700D01*
G01X383180Y-420600D02*
Y-407900D01*
X381250Y-410440D01*
G01Y-420600D02*
X385110D01*
G01X395810D02*
X396130Y-417850D01*
X396620Y-415520D01*
X397260Y-413400D01*
X398070Y-411080D01*
X399350Y-407900D01*
X392920D01*
G01X339420Y-266700D02*
Y-254000D01*
X343440D01*
X344730Y-254640D01*
X345530Y-255480D01*
X345850Y-257180D01*
X345530Y-258870D01*
X344570Y-259930D01*
X343440Y-260560D01*
X339420D01*
G01X343440D02*
X345850Y-266700D01*
G01X352530Y-261410D02*
X353650Y-259930D01*
X354620Y-259080D01*
X355910Y-258660D01*
X357030Y-259080D01*
X357840Y-259930D01*
X358480Y-261200D01*
X358640Y-262680D01*
X358480Y-263950D01*
X357840Y-265220D01*
X356870Y-266280D01*
X355750Y-266700D01*
X354460Y-266280D01*
X353330Y-265010D01*
X352690Y-263100D01*
X352530Y-260990D01*
X352850Y-258230D01*
X353330Y-256750D01*
X354140Y-255270D01*
X355260Y-254210D01*
X356390Y-254000D01*
X357520Y-254420D01*
X358320Y-255480D01*
G01X365000Y-264160D02*
X365960Y-265640D01*
X367250Y-266490D01*
X368700Y-266700D01*
X369980Y-266490D01*
X371270Y-265430D01*
X372070Y-264160D01*
X372230Y-262890D01*
X371910Y-261410D01*
X370790Y-260350D01*
X369660Y-259930D01*
X368210D01*
G01X369660D02*
X370630Y-259290D01*
X371430Y-258230D01*
X371750Y-256960D01*
X371430Y-255690D01*
X370630Y-254640D01*
X369180Y-254000D01*
X367730Y-254210D01*
X366280Y-255060D01*
G01X318160Y-133090D02*
X322180Y-120390D01*
X326210Y-133090D01*
G01X324760Y-128650D02*
X319610D01*
G01X331110Y-120390D02*
X335130Y-133090D01*
X339160Y-120390D01*
G01X344550Y-130550D02*
X345510Y-132030D01*
X346800Y-132880D01*
X348250Y-133090D01*
X349530Y-132880D01*
X350820Y-131820D01*
X351620Y-130550D01*
X351780Y-129280D01*
X351460Y-127800D01*
X350340Y-126740D01*
X349210Y-126320D01*
X347760D01*
G01X349210D02*
X350180Y-125680D01*
X350980Y-124620D01*
X351300Y-123350D01*
X350980Y-122080D01*
X350180Y-121030D01*
X348730Y-120390D01*
X347280Y-120600D01*
X345830Y-121450D01*
G01X339420Y-82550D02*
Y-69850D01*
X343440D01*
X344730Y-70490D01*
X345530Y-71330D01*
X345850Y-73030D01*
X345530Y-74720D01*
X344570Y-75780D01*
X343440Y-76410D01*
X339420D01*
G01X343440D02*
X345850Y-82550D01*
G01X352050Y-80650D02*
X353010Y-81700D01*
X354140Y-82340D01*
X355580Y-82550D01*
X357030Y-82130D01*
X358160Y-81280D01*
X358960Y-79800D01*
X359120Y-78110D01*
X358800Y-76410D01*
X358000Y-75350D01*
X356870Y-74510D01*
X355750Y-74300D01*
X354620Y-74510D01*
X353170Y-75350D01*
X353650Y-69850D01*
X358000D01*
G01X365000Y-80650D02*
X365960Y-81700D01*
X367090Y-82340D01*
X368530Y-82550D01*
X369980Y-82130D01*
X371110Y-81280D01*
X371910Y-79800D01*
X372070Y-78110D01*
X371750Y-76410D01*
X370950Y-75350D01*
X369820Y-74510D01*
X368700Y-74300D01*
X367570Y-74510D01*
X366120Y-75350D01*
X366600Y-69850D01*
X370950D01*
G01X318160Y51060D02*
X322180Y63760D01*
X326210Y51060D01*
G01X324760Y55500D02*
X319610D01*
G01X331110Y63760D02*
X335130Y51060D01*
X339160Y63760D01*
G01X345030Y61640D02*
X345990Y62910D01*
X347120Y63550D01*
X348410Y63760D01*
X350020Y63340D01*
X351140Y62280D01*
X351460Y61010D01*
X351300Y59740D01*
X350660Y58680D01*
X347440Y56560D01*
X345990Y55080D01*
X345030Y52960D01*
X344710Y51060D01*
X351460D01*
G01X339420Y88900D02*
Y101600D01*
X343440D01*
X344730Y100960D01*
X345530Y100120D01*
X345850Y98420D01*
X345530Y96730D01*
X344570Y95670D01*
X343440Y95040D01*
X339420D01*
G01X343440D02*
X345850Y88900D01*
G01X357520D02*
Y101600D01*
X351560Y92500D01*
X359610D01*
G01X368210Y88900D02*
X368530Y91650D01*
X369020Y93980D01*
X369660Y96100D01*
X370470Y98420D01*
X371750Y101600D01*
X365320D01*
G01X318560Y222510D02*
X322580Y235210D01*
X326610Y222510D01*
G01X325160Y226950D02*
X320010D01*
G01X331510Y235210D02*
X335530Y222510D01*
X339560Y235210D01*
G01X348480Y222510D02*
Y235210D01*
X346550Y232670D01*
G01Y222510D02*
X350410D01*
G01X364990Y373750D02*
X368210D01*
Y369940D01*
X367240Y368670D01*
X366120Y367820D01*
X364510Y367400D01*
X362900Y367820D01*
X361770Y368670D01*
X360810Y369940D01*
X360160Y371420D01*
X359840Y373110D01*
Y374600D01*
X360160Y375870D01*
X360810Y377350D01*
X361770Y378620D01*
X362740Y379460D01*
X364020Y380100D01*
X365150D01*
X366440Y379680D01*
X367400Y378830D01*
G01X373280Y367400D02*
Y380100D01*
X380670Y367400D01*
Y380100D01*
G01X386390Y367400D02*
Y380100D01*
X389600D01*
X390890Y379460D01*
X391860Y378620D01*
X392660Y377350D01*
X393300Y375870D01*
X393460Y373750D01*
X393300Y371630D01*
X392660Y370150D01*
X391860Y368880D01*
X390890Y368030D01*
X389600Y367400D01*
X386390D01*
G01X406090D02*
X399660D01*
Y380100D01*
X406090D01*
G01X403520Y373960D02*
X399660D01*
G01X369800Y416400D02*
X376550Y429100D01*
G01X369800D02*
X376550Y416400D01*
G01X388060D02*
Y429100D01*
X382100Y420000D01*
X390150D01*
G01X423640Y-1108650D02*
X422680Y-1108010D01*
X421550Y-1107590D01*
X420270D01*
X418820Y-1108230D01*
X417690Y-1109280D01*
X416890Y-1110550D01*
X416240Y-1112670D01*
X416080Y-1114580D01*
X416410Y-1116480D01*
X416890Y-1117750D01*
X417850Y-1119020D01*
X418980Y-1119870D01*
X420100Y-1120290D01*
X421230D01*
X422360Y-1119870D01*
X423320Y-1119230D01*
X424130Y-1118390D01*
G01X430000Y-1109710D02*
X430960Y-1108440D01*
X432090Y-1107800D01*
X433380Y-1107590D01*
X434990Y-1108010D01*
X436110Y-1109070D01*
X436430Y-1110340D01*
X436270Y-1111610D01*
X435630Y-1112670D01*
X432410Y-1114790D01*
X430960Y-1116270D01*
X430000Y-1118390D01*
X429680Y-1120290D01*
X436430D01*
G01X442470Y-1118390D02*
X443430Y-1119440D01*
X444560Y-1120080D01*
X446000Y-1120290D01*
X447450Y-1119870D01*
X448580Y-1119020D01*
X449380Y-1117540D01*
X449540Y-1115850D01*
X449220Y-1114150D01*
X448420Y-1113090D01*
X447290Y-1112250D01*
X446170Y-1112040D01*
X445040Y-1112250D01*
X443590Y-1113090D01*
X444070Y-1107590D01*
X448420D01*
G01X387020Y-1055070D02*
X386060Y-1054430D01*
X384930Y-1054010D01*
X383650D01*
X382200Y-1054650D01*
X381070Y-1055700D01*
X380270Y-1056970D01*
X379620Y-1059090D01*
X379460Y-1061000D01*
X379790Y-1062900D01*
X380270Y-1064170D01*
X381230Y-1065440D01*
X382360Y-1066290D01*
X383480Y-1066710D01*
X384610D01*
X385740Y-1066290D01*
X386700Y-1065650D01*
X387510Y-1064810D01*
G01X393380Y-1056130D02*
X394340Y-1054860D01*
X395470Y-1054220D01*
X396760Y-1054010D01*
X398370Y-1054430D01*
X399490Y-1055490D01*
X399810Y-1056760D01*
X399650Y-1058030D01*
X399010Y-1059090D01*
X395790Y-1061210D01*
X394340Y-1062690D01*
X393380Y-1064810D01*
X393060Y-1066710D01*
X399810D01*
G01X409060D02*
X409380Y-1063960D01*
X409870Y-1061630D01*
X410510Y-1059510D01*
X411320Y-1057190D01*
X412600Y-1054010D01*
X406170D01*
G01X384270Y-987700D02*
X383310Y-987060D01*
X382180Y-986640D01*
X380900D01*
X379450Y-987280D01*
X378320Y-988330D01*
X377520Y-989600D01*
X376870Y-991720D01*
X376710Y-993630D01*
X377040Y-995530D01*
X377520Y-996800D01*
X378480Y-998070D01*
X379610Y-998920D01*
X380730Y-999340D01*
X381860D01*
X382990Y-998920D01*
X383950Y-998280D01*
X384760Y-997440D01*
G01X390630Y-988760D02*
X391590Y-987490D01*
X392720Y-986850D01*
X394010Y-986640D01*
X395620Y-987060D01*
X396740Y-988120D01*
X397060Y-989390D01*
X396900Y-990660D01*
X396260Y-991720D01*
X393040Y-993840D01*
X391590Y-995320D01*
X390630Y-997440D01*
X390310Y-999340D01*
X397060D01*
G01X408570D02*
Y-986640D01*
X402610Y-995740D01*
X410660D01*
G01X434270Y-1002710D02*
Y-990010D01*
X438290D01*
X439580Y-990650D01*
X440380Y-991490D01*
X440700Y-993190D01*
X440380Y-994880D01*
X439420Y-995940D01*
X438290Y-996570D01*
X434270D01*
G01X438290D02*
X440700Y-1002710D01*
G01X447380Y-992130D02*
X448340Y-990860D01*
X449470Y-990220D01*
X450760Y-990010D01*
X452370Y-990430D01*
X453490Y-991490D01*
X453810Y-992760D01*
X453650Y-994030D01*
X453010Y-995090D01*
X449790Y-997210D01*
X448340Y-998690D01*
X447380Y-1000810D01*
X447060Y-1002710D01*
X453810D01*
G01X460650Y-1001230D02*
X461780Y-1002290D01*
X463060Y-1002710D01*
X464350Y-1002290D01*
X465480Y-1001020D01*
X466280Y-999110D01*
X466600Y-997210D01*
Y-994880D01*
X466280Y-992970D01*
X465480Y-991280D01*
X464510Y-990430D01*
X463380Y-990010D01*
X462100Y-990430D01*
X461130Y-991280D01*
X460490Y-992550D01*
X460170Y-994240D01*
X460490Y-995720D01*
X461290Y-997210D01*
X462260Y-998050D01*
X463380Y-998270D01*
X464670Y-997840D01*
X465640Y-996780D01*
X466600Y-994880D01*
G01X384410Y-883710D02*
X383450Y-883070D01*
X382320Y-882650D01*
X381040D01*
X379590Y-883290D01*
X378460Y-884340D01*
X377660Y-885610D01*
X377010Y-887730D01*
X376850Y-889640D01*
X377180Y-891540D01*
X377660Y-892810D01*
X378620Y-894080D01*
X379750Y-894930D01*
X380870Y-895350D01*
X382000D01*
X383130Y-894930D01*
X384090Y-894290D01*
X384900Y-893450D01*
G01X393500Y-895350D02*
X393820Y-892600D01*
X394310Y-890270D01*
X394950Y-888150D01*
X395760Y-885830D01*
X397040Y-882650D01*
X390610D01*
G01X434270Y-934710D02*
Y-922010D01*
X438290D01*
X439580Y-922650D01*
X440380Y-923490D01*
X440700Y-925190D01*
X440380Y-926880D01*
X439420Y-927940D01*
X438290Y-928570D01*
X434270D01*
G01X438290D02*
X440700Y-934710D01*
G01X446900Y-932170D02*
X447860Y-933650D01*
X449150Y-934500D01*
X450600Y-934710D01*
X451880Y-934500D01*
X453170Y-933440D01*
X453970Y-932170D01*
X454130Y-930900D01*
X453810Y-929420D01*
X452690Y-928360D01*
X451560Y-927940D01*
X450110D01*
G01X451560D02*
X452530Y-927300D01*
X453330Y-926240D01*
X453650Y-924970D01*
X453330Y-923700D01*
X452530Y-922650D01*
X451080Y-922010D01*
X449630Y-922220D01*
X448180Y-923070D01*
G01X459850Y-932810D02*
X460810Y-933860D01*
X461940Y-934500D01*
X463380Y-934710D01*
X464830Y-934290D01*
X465960Y-933440D01*
X466760Y-931960D01*
X466920Y-930270D01*
X466600Y-928570D01*
X465800Y-927510D01*
X464670Y-926670D01*
X463550Y-926460D01*
X462420Y-926670D01*
X460970Y-927510D01*
X461450Y-922010D01*
X465800D01*
G01X391510Y-803070D02*
X390550Y-802430D01*
X389420Y-802010D01*
X388140D01*
X386690Y-802650D01*
X385560Y-803700D01*
X384760Y-804970D01*
X384110Y-807090D01*
X383950Y-809000D01*
X384280Y-810900D01*
X384760Y-812170D01*
X385720Y-813440D01*
X386850Y-814290D01*
X387970Y-814710D01*
X389100D01*
X390230Y-814290D01*
X391190Y-813650D01*
X392000Y-812810D01*
G01X397870Y-809420D02*
X398990Y-807940D01*
X399960Y-807090D01*
X401250Y-806670D01*
X402370Y-807090D01*
X403180Y-807940D01*
X403820Y-809210D01*
X403980Y-810690D01*
X403820Y-811960D01*
X403180Y-813230D01*
X402210Y-814290D01*
X401090Y-814710D01*
X399800Y-814290D01*
X398670Y-813020D01*
X398030Y-811110D01*
X397870Y-809000D01*
X398190Y-806240D01*
X398670Y-804760D01*
X399480Y-803280D01*
X400600Y-802220D01*
X401730Y-802010D01*
X402860Y-802430D01*
X403660Y-803490D01*
G01X395510Y-737070D02*
X394550Y-736430D01*
X393420Y-736010D01*
X392140D01*
X390690Y-736650D01*
X389560Y-737700D01*
X388760Y-738970D01*
X388110Y-741090D01*
X387950Y-743000D01*
X388280Y-744900D01*
X388760Y-746170D01*
X389720Y-747440D01*
X390850Y-748290D01*
X391970Y-748710D01*
X393100D01*
X394230Y-748290D01*
X395190Y-747650D01*
X396000Y-746810D01*
G01X402190Y-747230D02*
X403320Y-748290D01*
X404600Y-748710D01*
X405890Y-748290D01*
X407020Y-747020D01*
X407820Y-745110D01*
X408140Y-743210D01*
Y-740880D01*
X407820Y-738970D01*
X407020Y-737280D01*
X406050Y-736430D01*
X404920Y-736010D01*
X403640Y-736430D01*
X402670Y-737280D01*
X402030Y-738550D01*
X401710Y-740240D01*
X402030Y-741720D01*
X402830Y-743210D01*
X403800Y-744050D01*
X404920Y-744270D01*
X406210Y-743840D01*
X407180Y-742780D01*
X408140Y-740880D01*
G01X440760Y-748710D02*
Y-736010D01*
X444780D01*
X446070Y-736650D01*
X446870Y-737490D01*
X447190Y-739190D01*
X446870Y-740880D01*
X445910Y-741940D01*
X444780Y-742570D01*
X440760D01*
G01X444780D02*
X447190Y-748710D01*
G01X453390Y-746810D02*
X454350Y-747860D01*
X455480Y-748500D01*
X456920Y-748710D01*
X458370Y-748290D01*
X459500Y-747440D01*
X460300Y-745960D01*
X460460Y-744270D01*
X460140Y-742570D01*
X459340Y-741510D01*
X458210Y-740670D01*
X457090Y-740460D01*
X455960Y-740670D01*
X454510Y-741510D01*
X454990Y-736010D01*
X459340D01*
G01X409250Y-770320D02*
X410530Y-771380D01*
X411980Y-772010D01*
X413270D01*
X414560Y-771380D01*
X415520Y-770320D01*
X416000Y-768830D01*
X415680Y-767350D01*
X414880Y-766080D01*
X413430Y-765240D01*
X411500Y-764810D01*
X410370Y-763970D01*
X409890Y-762490D01*
X410210Y-761000D01*
X411020Y-759950D01*
X412140Y-759310D01*
X413270D01*
X414390Y-759730D01*
X415360Y-760790D01*
G01X422520Y-761430D02*
X423480Y-760160D01*
X424610Y-759520D01*
X425900Y-759310D01*
X427510Y-759730D01*
X428630Y-760790D01*
X428950Y-762060D01*
X428790Y-763330D01*
X428150Y-764390D01*
X424930Y-766510D01*
X423480Y-767990D01*
X422520Y-770110D01*
X422200Y-772010D01*
X428950D01*
G01X380260Y-662960D02*
X379300Y-662320D01*
X378170Y-661900D01*
X376890D01*
X375440Y-662540D01*
X374310Y-663590D01*
X373510Y-664860D01*
X372860Y-666980D01*
X372700Y-668890D01*
X373030Y-670790D01*
X373510Y-672060D01*
X374470Y-673330D01*
X375600Y-674180D01*
X376720Y-674600D01*
X377850D01*
X378980Y-674180D01*
X379940Y-673540D01*
X380750Y-672700D01*
G01X389670Y-674600D02*
X390800Y-674390D01*
X392090Y-673750D01*
X392890Y-672700D01*
X393210Y-671210D01*
X392890Y-669730D01*
X391930Y-668460D01*
X390480Y-667830D01*
X388870D01*
X387910Y-667400D01*
X387100Y-666350D01*
X386780Y-664860D01*
X387260Y-663380D01*
X388390Y-662320D01*
X389670Y-661900D01*
X390960Y-662320D01*
X392090Y-663380D01*
X392570Y-664860D01*
X392250Y-666350D01*
X391440Y-667400D01*
X390480Y-667830D01*
X388870D01*
X387420Y-668460D01*
X386460Y-669730D01*
X386140Y-671210D01*
X386460Y-672700D01*
X387260Y-673750D01*
X388550Y-674390D01*
X389670Y-674600D01*
G01X434270Y-682710D02*
Y-670010D01*
X438290D01*
X439580Y-670650D01*
X440380Y-671490D01*
X440700Y-673190D01*
X440380Y-674880D01*
X439420Y-675940D01*
X438290Y-676570D01*
X434270D01*
G01X438290D02*
X440700Y-682710D01*
G01X450430D02*
Y-670010D01*
X448500Y-672550D01*
G01Y-682710D02*
X452360D01*
G01X463380D02*
Y-670010D01*
X461450Y-672550D01*
G01Y-682710D02*
X465310D01*
G01X377930Y-629710D02*
X376970Y-629070D01*
X375840Y-628650D01*
X374560D01*
X373110Y-629290D01*
X371980Y-630340D01*
X371180Y-631610D01*
X370530Y-633730D01*
X370370Y-635640D01*
X370700Y-637540D01*
X371180Y-638810D01*
X372140Y-640080D01*
X373270Y-640930D01*
X374390Y-641350D01*
X375520D01*
X376650Y-640930D01*
X377610Y-640290D01*
X378420Y-639450D01*
G01X387340Y-641350D02*
Y-628650D01*
X385410Y-631190D01*
G01Y-641350D02*
X389270D01*
G01X397240Y-636060D02*
X398360Y-634580D01*
X399330Y-633730D01*
X400620Y-633310D01*
X401740Y-633730D01*
X402550Y-634580D01*
X403190Y-635850D01*
X403350Y-637330D01*
X403190Y-638600D01*
X402550Y-639870D01*
X401580Y-640930D01*
X400460Y-641350D01*
X399170Y-640930D01*
X398040Y-639660D01*
X397400Y-637750D01*
X397240Y-635640D01*
X397560Y-632880D01*
X398040Y-631400D01*
X398850Y-629920D01*
X399970Y-628860D01*
X401100Y-628650D01*
X402230Y-629070D01*
X403030Y-630130D01*
G01X385020Y-549070D02*
X384060Y-548430D01*
X382930Y-548010D01*
X381650D01*
X380200Y-548650D01*
X379070Y-549700D01*
X378270Y-550970D01*
X377620Y-553090D01*
X377460Y-555000D01*
X377790Y-556900D01*
X378270Y-558170D01*
X379230Y-559440D01*
X380360Y-560290D01*
X381480Y-560710D01*
X382610D01*
X383740Y-560290D01*
X384700Y-559650D01*
X385510Y-558810D01*
G01X394430Y-560710D02*
Y-548010D01*
X392500Y-550550D01*
G01Y-560710D02*
X396360D01*
G01X403850Y-558810D02*
X404810Y-559860D01*
X405940Y-560500D01*
X407380Y-560710D01*
X408830Y-560290D01*
X409960Y-559440D01*
X410760Y-557960D01*
X410920Y-556270D01*
X410600Y-554570D01*
X409800Y-553510D01*
X408670Y-552670D01*
X407550Y-552460D01*
X406420Y-552670D01*
X404970Y-553510D01*
X405450Y-548010D01*
X409800D01*
G01X409250Y-516320D02*
X410530Y-517380D01*
X411980Y-518010D01*
X413270D01*
X414560Y-517380D01*
X415520Y-516320D01*
X416000Y-514830D01*
X415680Y-513350D01*
X414880Y-512080D01*
X413430Y-511240D01*
X411500Y-510810D01*
X410370Y-509970D01*
X409890Y-508490D01*
X410210Y-507000D01*
X411020Y-505950D01*
X412140Y-505310D01*
X413270D01*
X414390Y-505730D01*
X415360Y-506790D01*
G01X427510Y-518010D02*
Y-505310D01*
X421550Y-514410D01*
X429600D01*
G01X389020Y-483070D02*
X388060Y-482430D01*
X386930Y-482010D01*
X385650D01*
X384200Y-482650D01*
X383070Y-483700D01*
X382270Y-484970D01*
X381620Y-487090D01*
X381460Y-489000D01*
X381790Y-490900D01*
X382270Y-492170D01*
X383230Y-493440D01*
X384360Y-494290D01*
X385480Y-494710D01*
X386610D01*
X387740Y-494290D01*
X388700Y-493650D01*
X389510Y-492810D01*
G01X398430Y-494710D02*
Y-482010D01*
X396500Y-484550D01*
G01Y-494710D02*
X400360D01*
G01X411380D02*
X412510Y-494500D01*
X413800Y-493860D01*
X414600Y-492810D01*
X414920Y-491320D01*
X414600Y-489840D01*
X413640Y-488570D01*
X412190Y-487940D01*
X410580D01*
X409620Y-487510D01*
X408810Y-486460D01*
X408490Y-484970D01*
X408970Y-483490D01*
X410100Y-482430D01*
X411380Y-482010D01*
X412670Y-482430D01*
X413800Y-483490D01*
X414280Y-484970D01*
X413960Y-486460D01*
X413150Y-487510D01*
X412190Y-487940D01*
X410580D01*
X409130Y-488570D01*
X408170Y-489840D01*
X407850Y-491320D01*
X408170Y-492810D01*
X408970Y-493860D01*
X410260Y-494500D01*
X411380Y-494710D01*
G01X434270D02*
Y-482010D01*
X438290D01*
X439580Y-482650D01*
X440380Y-483490D01*
X440700Y-485190D01*
X440380Y-486880D01*
X439420Y-487940D01*
X438290Y-488570D01*
X434270D01*
G01X438290D02*
X440700Y-494710D01*
G01X450430D02*
Y-482010D01*
X448500Y-484550D01*
G01Y-494710D02*
X452360D01*
G01X463060D02*
X463380Y-491960D01*
X463870Y-489630D01*
X464510Y-487510D01*
X465320Y-485190D01*
X466600Y-482010D01*
X460170D01*
G01X434270Y-428710D02*
Y-416010D01*
X438290D01*
X439580Y-416650D01*
X440380Y-417490D01*
X440700Y-419190D01*
X440380Y-420880D01*
X439420Y-421940D01*
X438290Y-422570D01*
X434270D01*
G01X438290D02*
X440700Y-428710D01*
G01X447380Y-418130D02*
X448340Y-416860D01*
X449470Y-416220D01*
X450760Y-416010D01*
X452370Y-416430D01*
X453490Y-417490D01*
X453810Y-418760D01*
X453650Y-420030D01*
X453010Y-421090D01*
X449790Y-423210D01*
X448340Y-424690D01*
X447380Y-426810D01*
X447060Y-428710D01*
X453810D01*
G01X459850Y-426170D02*
X460810Y-427650D01*
X462100Y-428500D01*
X463550Y-428710D01*
X464830Y-428500D01*
X466120Y-427440D01*
X466920Y-426170D01*
X467080Y-424900D01*
X466760Y-423420D01*
X465640Y-422360D01*
X464510Y-421940D01*
X463060D01*
G01X464510D02*
X465480Y-421300D01*
X466280Y-420240D01*
X466600Y-418970D01*
X466280Y-417700D01*
X465480Y-416650D01*
X464030Y-416010D01*
X462580Y-416220D01*
X461130Y-417070D01*
G01X373750Y-188900D02*
X377770Y-201600D01*
X381800Y-188900D01*
G01X387190Y-201600D02*
Y-188900D01*
X390400D01*
X391690Y-189540D01*
X392660Y-190380D01*
X393460Y-191650D01*
X394100Y-193130D01*
X394260Y-195250D01*
X394100Y-197370D01*
X393460Y-198850D01*
X392660Y-200120D01*
X391690Y-200970D01*
X390400Y-201600D01*
X387190D01*
G01X400620Y-191020D02*
X401580Y-189750D01*
X402710Y-189110D01*
X404000Y-188900D01*
X405610Y-189320D01*
X406730Y-190380D01*
X407050Y-191650D01*
X406890Y-192920D01*
X406250Y-193980D01*
X403030Y-196100D01*
X401580Y-197580D01*
X400620Y-199700D01*
X400300Y-201600D01*
X407050D01*
G01X418560D02*
Y-188900D01*
X412600Y-198000D01*
X420650D01*
G01X430400Y-134060D02*
X434420Y-146760D01*
X438450Y-134060D01*
G01X443840Y-146760D02*
Y-134060D01*
X447050D01*
X448340Y-134700D01*
X449310Y-135540D01*
X450110Y-136810D01*
X450750Y-138290D01*
X450910Y-140410D01*
X450750Y-142530D01*
X450110Y-144010D01*
X449310Y-145280D01*
X448340Y-146130D01*
X447050Y-146760D01*
X443840D01*
G01X457270Y-136180D02*
X458230Y-134910D01*
X459360Y-134270D01*
X460650Y-134060D01*
X462260Y-134480D01*
X463380Y-135540D01*
X463700Y-136810D01*
X463540Y-138080D01*
X462900Y-139140D01*
X459680Y-141260D01*
X458230Y-142740D01*
X457270Y-144860D01*
X456950Y-146760D01*
X463700D01*
G01X469740Y-144220D02*
X470700Y-145700D01*
X471990Y-146550D01*
X473440Y-146760D01*
X474720Y-146550D01*
X476010Y-145490D01*
X476810Y-144220D01*
X476970Y-142950D01*
X476650Y-141470D01*
X475530Y-140410D01*
X474400Y-139990D01*
X472950D01*
G01X474400D02*
X475370Y-139350D01*
X476170Y-138290D01*
X476490Y-137020D01*
X476170Y-135750D01*
X475370Y-134700D01*
X473920Y-134060D01*
X472470Y-134270D01*
X471020Y-135120D01*
G01X373750Y-4900D02*
X377770Y-17600D01*
X381800Y-4900D01*
G01X387190Y-17600D02*
Y-4900D01*
X390400D01*
X391690Y-5540D01*
X392660Y-6380D01*
X393460Y-7650D01*
X394100Y-9130D01*
X394260Y-11250D01*
X394100Y-13370D01*
X393460Y-14850D01*
X392660Y-16120D01*
X391690Y-16970D01*
X390400Y-17600D01*
X387190D01*
G01X400620Y-7020D02*
X401580Y-5750D01*
X402710Y-5110D01*
X404000Y-4900D01*
X405610Y-5320D01*
X406730Y-6380D01*
X407050Y-7650D01*
X406890Y-8920D01*
X406250Y-9980D01*
X403030Y-12100D01*
X401580Y-13580D01*
X400620Y-15700D01*
X400300Y-17600D01*
X407050D01*
G01X416620D02*
Y-4900D01*
X414690Y-7440D01*
G01Y-17600D02*
X418550D01*
G01X370250Y224940D02*
X374270Y212240D01*
X378300Y224940D01*
G01X383690Y212240D02*
Y224940D01*
X386900D01*
X388190Y224300D01*
X389160Y223460D01*
X389960Y222190D01*
X390600Y220710D01*
X390760Y218590D01*
X390600Y216470D01*
X389960Y214990D01*
X389160Y213720D01*
X388190Y212870D01*
X386900Y212240D01*
X383690D01*
G01X400170D02*
Y224940D01*
X398240Y222400D01*
G01Y212240D02*
X402100D01*
G01X410390Y213720D02*
X411520Y212660D01*
X412800Y212240D01*
X414090Y212660D01*
X415220Y213930D01*
X416020Y215840D01*
X416340Y217740D01*
Y220070D01*
X416020Y221980D01*
X415220Y223670D01*
X414250Y224520D01*
X413120Y224940D01*
X411840Y224520D01*
X410870Y223670D01*
X410230Y222400D01*
X409910Y220710D01*
X410230Y219230D01*
X411030Y217740D01*
X412000Y216900D01*
X413120Y216680D01*
X414410Y217110D01*
X415380Y218170D01*
X416340Y220070D01*
G01X430400Y221540D02*
X434420Y208840D01*
X438450Y221540D01*
G01X443840Y208840D02*
Y221540D01*
X447050D01*
X448340Y220900D01*
X449310Y220060D01*
X450110Y218790D01*
X450750Y217310D01*
X450910Y215190D01*
X450750Y213070D01*
X450110Y211590D01*
X449310Y210320D01*
X448340Y209470D01*
X447050Y208840D01*
X443840D01*
G01X460320D02*
Y221540D01*
X458390Y219000D01*
G01Y208840D02*
X462250D01*
G01X472950D02*
X473270Y211590D01*
X473760Y213920D01*
X474400Y216040D01*
X475210Y218360D01*
X476490Y221540D01*
X470060D01*
G01X447770Y291340D02*
X446810Y291980D01*
X445680Y292400D01*
X444400D01*
X442950Y291760D01*
X441820Y290710D01*
X441020Y289440D01*
X440370Y287320D01*
X440210Y285410D01*
X440540Y283510D01*
X441020Y282240D01*
X441980Y280970D01*
X443110Y280120D01*
X444230Y279700D01*
X445360D01*
X446490Y280120D01*
X447450Y280760D01*
X448260Y281600D01*
G01X454130Y290280D02*
X455090Y291550D01*
X456220Y292190D01*
X457510Y292400D01*
X459120Y291980D01*
X460240Y290920D01*
X460560Y289650D01*
X460400Y288380D01*
X459760Y287320D01*
X456540Y285200D01*
X455090Y283720D01*
X454130Y281600D01*
X453810Y279700D01*
X460560D01*
G01X467400Y281180D02*
X468530Y280120D01*
X469810Y279700D01*
X471100Y280120D01*
X472230Y281390D01*
X473030Y283300D01*
X473350Y285200D01*
Y287530D01*
X473030Y289440D01*
X472230Y291130D01*
X471260Y291980D01*
X470130Y292400D01*
X468850Y291980D01*
X467880Y291130D01*
X467240Y289860D01*
X466920Y288170D01*
X467240Y286690D01*
X468040Y285200D01*
X469010Y284360D01*
X470130Y284140D01*
X471420Y284570D01*
X472390Y285630D01*
X473350Y287530D01*
G01X402600Y603250D02*
Y615950D01*
X405810D01*
X407100Y615310D01*
X408070Y614470D01*
X408870Y613200D01*
X409510Y611720D01*
X409670Y609600D01*
X409510Y607480D01*
X408870Y606000D01*
X408070Y604730D01*
X407100Y603880D01*
X405810Y603250D01*
X402600D01*
G01X415550D02*
Y615950D01*
X418760D01*
X420050Y615310D01*
X421020Y614470D01*
X421820Y613200D01*
X422460Y611720D01*
X422620Y609600D01*
X422460Y607480D01*
X421820Y606000D01*
X421020Y604730D01*
X420050Y603880D01*
X418760Y603250D01*
X415550D01*
G01X431710D02*
X432030Y606000D01*
X432520Y608330D01*
X433160Y610450D01*
X433970Y612770D01*
X435250Y615950D01*
X428820D01*
G01X447770Y665990D02*
X446810Y666630D01*
X445680Y667050D01*
X444400D01*
X442950Y666410D01*
X441820Y665360D01*
X441020Y664090D01*
X440370Y661970D01*
X440210Y660060D01*
X440540Y658160D01*
X441020Y656890D01*
X441980Y655620D01*
X443110Y654770D01*
X444230Y654350D01*
X445360D01*
X446490Y654770D01*
X447450Y655410D01*
X448260Y656250D01*
G01X454130Y664930D02*
X455090Y666200D01*
X456220Y666840D01*
X457510Y667050D01*
X459120Y666630D01*
X460240Y665570D01*
X460560Y664300D01*
X460400Y663030D01*
X459760Y661970D01*
X456540Y659850D01*
X455090Y658370D01*
X454130Y656250D01*
X453810Y654350D01*
X460560D01*
G01X470130D02*
X471260Y654560D01*
X472550Y655200D01*
X473350Y656250D01*
X473670Y657740D01*
X473350Y659220D01*
X472390Y660490D01*
X470940Y661120D01*
X469330D01*
X468370Y661550D01*
X467560Y662600D01*
X467240Y664090D01*
X467720Y665570D01*
X468850Y666630D01*
X470130Y667050D01*
X471420Y666630D01*
X472550Y665570D01*
X473030Y664090D01*
X472710Y662600D01*
X471900Y661550D01*
X470940Y661120D01*
X469330D01*
X467880Y660490D01*
X466920Y659220D01*
X466600Y657740D01*
X466920Y656250D01*
X467720Y655200D01*
X469010Y654560D01*
X470130Y654350D01*
G01X496450Y-1026540D02*
X509150D01*
Y-1030560D01*
X508510Y-1031850D01*
X507670Y-1032650D01*
X505970Y-1032970D01*
X504280Y-1032650D01*
X503220Y-1031690D01*
X502590Y-1030560D01*
Y-1026540D01*
G01Y-1030560D02*
X496450Y-1032970D01*
G01X498990Y-1039170D02*
X497510Y-1040130D01*
X496660Y-1041420D01*
X496450Y-1042870D01*
X496660Y-1044150D01*
X497720Y-1045440D01*
X498990Y-1046240D01*
X500260Y-1046400D01*
X501740Y-1046080D01*
X502800Y-1044960D01*
X503220Y-1043830D01*
Y-1042380D01*
G01Y-1043830D02*
X503860Y-1044800D01*
X504920Y-1045600D01*
X506190Y-1045920D01*
X507460Y-1045600D01*
X508510Y-1044800D01*
X509150Y-1043350D01*
X508940Y-1041900D01*
X508090Y-1040450D01*
G01X496450Y-1055650D02*
X509150D01*
X506610Y-1053720D01*
G01X496450D02*
Y-1057580D01*
G01X472450Y-994540D02*
X485150D01*
Y-998560D01*
X484510Y-999850D01*
X483670Y-1000650D01*
X481970Y-1000970D01*
X480280Y-1000650D01*
X479220Y-999690D01*
X478590Y-998560D01*
Y-994540D01*
G01Y-998560D02*
X472450Y-1000970D01*
G01X474990Y-1007170D02*
X473510Y-1008130D01*
X472660Y-1009420D01*
X472450Y-1010870D01*
X472660Y-1012150D01*
X473720Y-1013440D01*
X474990Y-1014240D01*
X476260Y-1014400D01*
X477740Y-1014080D01*
X478800Y-1012960D01*
X479220Y-1011830D01*
Y-1010380D01*
G01Y-1011830D02*
X479860Y-1012800D01*
X480920Y-1013600D01*
X482190Y-1013920D01*
X483460Y-1013600D01*
X484510Y-1012800D01*
X485150Y-1011350D01*
X484940Y-1009900D01*
X484090Y-1008450D01*
G01X483030Y-1020600D02*
X484300Y-1021560D01*
X484940Y-1022690D01*
X485150Y-1023980D01*
X484730Y-1025590D01*
X483670Y-1026710D01*
X482400Y-1027030D01*
X481130Y-1026870D01*
X480070Y-1026230D01*
X477950Y-1023010D01*
X476470Y-1021560D01*
X474350Y-1020600D01*
X472450Y-1020280D01*
Y-1027030D01*
G01X492270Y-960710D02*
Y-948010D01*
X496290D01*
X497580Y-948650D01*
X498380Y-949490D01*
X498700Y-951190D01*
X498380Y-952880D01*
X497420Y-953940D01*
X496290Y-954570D01*
X492270D01*
G01X496290D02*
X498700Y-960710D01*
G01X504900Y-958170D02*
X505860Y-959650D01*
X507150Y-960500D01*
X508600Y-960710D01*
X509880Y-960500D01*
X511170Y-959440D01*
X511970Y-958170D01*
X512130Y-956900D01*
X511810Y-955420D01*
X510690Y-954360D01*
X509560Y-953940D01*
X508110D01*
G01X509560D02*
X510530Y-953300D01*
X511330Y-952240D01*
X511650Y-950970D01*
X511330Y-949700D01*
X510530Y-948650D01*
X509080Y-948010D01*
X507630Y-948220D01*
X506180Y-949070D01*
G01X518330Y-955420D02*
X519450Y-953940D01*
X520420Y-953090D01*
X521710Y-952670D01*
X522830Y-953090D01*
X523640Y-953940D01*
X524280Y-955210D01*
X524440Y-956690D01*
X524280Y-957960D01*
X523640Y-959230D01*
X522670Y-960290D01*
X521550Y-960710D01*
X520260Y-960290D01*
X519130Y-959020D01*
X518490Y-957110D01*
X518330Y-955000D01*
X518650Y-952240D01*
X519130Y-950760D01*
X519940Y-949280D01*
X521060Y-948220D01*
X522190Y-948010D01*
X523320Y-948430D01*
X524120Y-949490D01*
G01X495300Y-775020D02*
X508000D01*
Y-779040D01*
X507360Y-780330D01*
X506520Y-781130D01*
X504820Y-781450D01*
X503130Y-781130D01*
X502070Y-780170D01*
X501440Y-779040D01*
Y-775020D01*
G01Y-779040D02*
X495300Y-781450D01*
G01Y-790860D02*
X498050Y-791180D01*
X500380Y-791670D01*
X502500Y-792310D01*
X504820Y-793120D01*
X508000Y-794400D01*
Y-787970D01*
G01X472450Y-743020D02*
X485150D01*
Y-747040D01*
X484510Y-748330D01*
X483670Y-749130D01*
X481970Y-749450D01*
X480280Y-749130D01*
X479220Y-748170D01*
X478590Y-747040D01*
Y-743020D01*
G01Y-747040D02*
X472450Y-749450D01*
G01Y-759180D02*
X472660Y-760310D01*
X473300Y-761600D01*
X474350Y-762400D01*
X475840Y-762720D01*
X477320Y-762400D01*
X478590Y-761440D01*
X479220Y-759990D01*
Y-758380D01*
X479650Y-757420D01*
X480700Y-756610D01*
X482190Y-756290D01*
X483670Y-756770D01*
X484730Y-757900D01*
X485150Y-759180D01*
X484730Y-760470D01*
X483670Y-761600D01*
X482190Y-762080D01*
X480700Y-761760D01*
X479650Y-760950D01*
X479220Y-759990D01*
Y-758380D01*
X478590Y-756930D01*
X477320Y-755970D01*
X475840Y-755650D01*
X474350Y-755970D01*
X473300Y-756770D01*
X472660Y-758060D01*
X472450Y-759180D01*
G01X492820Y-708210D02*
Y-695510D01*
X496840D01*
X498130Y-696150D01*
X498930Y-696990D01*
X499250Y-698690D01*
X498930Y-700380D01*
X497970Y-701440D01*
X496840Y-702070D01*
X492820D01*
G01X496840D02*
X499250Y-708210D01*
G01X508980D02*
Y-695510D01*
X507050Y-698050D01*
G01Y-708210D02*
X510910D01*
G01X518880Y-697630D02*
X519840Y-696360D01*
X520970Y-695720D01*
X522260Y-695510D01*
X523870Y-695930D01*
X524990Y-696990D01*
X525310Y-698260D01*
X525150Y-699530D01*
X524510Y-700590D01*
X521290Y-702710D01*
X519840Y-704190D01*
X518880Y-706310D01*
X518560Y-708210D01*
X525310D01*
G01X495300Y-514540D02*
X508000D01*
Y-518560D01*
X507360Y-519850D01*
X506520Y-520650D01*
X504820Y-520970D01*
X503130Y-520650D01*
X502070Y-519690D01*
X501440Y-518560D01*
Y-514540D01*
G01Y-518560D02*
X495300Y-520970D01*
G01Y-530700D02*
X508000D01*
X505460Y-528770D01*
G01X495300D02*
Y-532630D01*
G01X496780Y-540920D02*
X495720Y-542050D01*
X495300Y-543330D01*
X495720Y-544620D01*
X496990Y-545750D01*
X498900Y-546550D01*
X500800Y-546870D01*
X503130D01*
X505040Y-546550D01*
X506730Y-545750D01*
X507580Y-544780D01*
X508000Y-543650D01*
X507580Y-542370D01*
X506730Y-541400D01*
X505460Y-540760D01*
X503770Y-540440D01*
X502290Y-540760D01*
X500800Y-541560D01*
X499960Y-542530D01*
X499740Y-543650D01*
X500170Y-544940D01*
X501230Y-545910D01*
X503130Y-546870D01*
G01X474450Y-488540D02*
X487150D01*
Y-492560D01*
X486510Y-493850D01*
X485670Y-494650D01*
X483970Y-494970D01*
X482280Y-494650D01*
X481220Y-493690D01*
X480590Y-492560D01*
Y-488540D01*
G01Y-492560D02*
X474450Y-494970D01*
G01X485030Y-501650D02*
X486300Y-502610D01*
X486940Y-503740D01*
X487150Y-505030D01*
X486730Y-506640D01*
X485670Y-507760D01*
X484400Y-508080D01*
X483130Y-507920D01*
X482070Y-507280D01*
X479950Y-504060D01*
X478470Y-502610D01*
X476350Y-501650D01*
X474450Y-501330D01*
Y-508080D01*
G01X487150Y-517650D02*
X486730Y-516370D01*
X485670Y-515400D01*
X484400Y-514760D01*
X482700Y-514280D01*
X480800Y-514120D01*
X478890Y-514280D01*
X477200Y-514760D01*
X475930Y-515400D01*
X474870Y-516370D01*
X474450Y-517650D01*
X474870Y-518940D01*
X475930Y-519910D01*
X477200Y-520550D01*
X478890Y-521030D01*
X480800Y-521190D01*
X482700Y-521030D01*
X484400Y-520550D01*
X485670Y-519910D01*
X486730Y-518940D01*
X487150Y-517650D01*
G01X492820Y-454210D02*
Y-441510D01*
X496840D01*
X498130Y-442150D01*
X498930Y-442990D01*
X499250Y-444690D01*
X498930Y-446380D01*
X497970Y-447440D01*
X496840Y-448070D01*
X492820D01*
G01X496840D02*
X499250Y-454210D01*
G01X505930Y-443630D02*
X506890Y-442360D01*
X508020Y-441720D01*
X509310Y-441510D01*
X510920Y-441930D01*
X512040Y-442990D01*
X512360Y-444260D01*
X512200Y-445530D01*
X511560Y-446590D01*
X508340Y-448710D01*
X506890Y-450190D01*
X505930Y-452310D01*
X505610Y-454210D01*
X512360D01*
G01X523870D02*
Y-441510D01*
X517910Y-450610D01*
X525960D01*
G01X444250Y-205130D02*
Y-197130D01*
X446750D01*
X447550Y-197530D01*
X448050Y-198060D01*
X448250Y-199130D01*
X448050Y-200200D01*
X447450Y-200860D01*
X446750Y-201260D01*
X444250D01*
G01X446750D02*
X448250Y-205130D01*
G01X452350Y-201800D02*
X453050Y-200860D01*
X453650Y-200330D01*
X454450Y-200060D01*
X455150Y-200330D01*
X455650Y-200860D01*
X456050Y-201660D01*
X456150Y-202600D01*
X456050Y-203400D01*
X455650Y-204200D01*
X455050Y-204860D01*
X454350Y-205130D01*
X453550Y-204860D01*
X452850Y-204060D01*
X452450Y-202860D01*
X452350Y-201530D01*
X452550Y-199800D01*
X452850Y-198860D01*
X453350Y-197930D01*
X454050Y-197260D01*
X454750Y-197130D01*
X455450Y-197400D01*
X455950Y-198060D01*
G01X463450Y-205130D02*
Y-197130D01*
X459750Y-202860D01*
X464750D01*
G01X444250Y-20980D02*
Y-12980D01*
X446750D01*
X447550Y-13380D01*
X448050Y-13910D01*
X448250Y-14980D01*
X448050Y-16050D01*
X447450Y-16710D01*
X446750Y-17110D01*
X444250D01*
G01X446750D02*
X448250Y-20980D01*
G01X452050Y-19780D02*
X452650Y-20450D01*
X453350Y-20850D01*
X454250Y-20980D01*
X455150Y-20710D01*
X455850Y-20180D01*
X456350Y-19250D01*
X456450Y-18180D01*
X456250Y-17110D01*
X455750Y-16450D01*
X455050Y-15910D01*
X454350Y-15780D01*
X453650Y-15910D01*
X452750Y-16450D01*
X453050Y-12980D01*
X455750D01*
G01X460350Y-17650D02*
X461050Y-16710D01*
X461650Y-16180D01*
X462450Y-15910D01*
X463150Y-16180D01*
X463650Y-16710D01*
X464050Y-17510D01*
X464150Y-18450D01*
X464050Y-19250D01*
X463650Y-20050D01*
X463050Y-20710D01*
X462350Y-20980D01*
X461550Y-20710D01*
X460850Y-19910D01*
X460450Y-18710D01*
X460350Y-17380D01*
X460550Y-15650D01*
X460850Y-14710D01*
X461350Y-13780D01*
X462050Y-13110D01*
X462750Y-12980D01*
X463450Y-13250D01*
X463950Y-13910D01*
G01X487550Y24690D02*
X491570Y11990D01*
X495600Y24690D01*
G01X500990Y11990D02*
Y24690D01*
X504200D01*
X505490Y24050D01*
X506460Y23210D01*
X507260Y21940D01*
X507900Y20460D01*
X508060Y18340D01*
X507900Y16220D01*
X507260Y14740D01*
X506460Y13470D01*
X505490Y12620D01*
X504200Y11990D01*
X500990D01*
G01X514420Y22570D02*
X515380Y23840D01*
X516510Y24480D01*
X517800Y24690D01*
X519410Y24270D01*
X520530Y23210D01*
X520850Y21940D01*
X520690Y20670D01*
X520050Y19610D01*
X516830Y17490D01*
X515380Y16010D01*
X514420Y13890D01*
X514100Y11990D01*
X520850D01*
G01X530420Y24690D02*
X529140Y24270D01*
X528170Y23210D01*
X527530Y21940D01*
X527050Y20240D01*
X526890Y18340D01*
X527050Y16430D01*
X527530Y14740D01*
X528170Y13470D01*
X529140Y12410D01*
X530420Y11990D01*
X531710Y12410D01*
X532680Y13470D01*
X533320Y14740D01*
X533800Y16430D01*
X533960Y18340D01*
X533800Y20240D01*
X533320Y21940D01*
X532680Y23210D01*
X531710Y24270D01*
X530420Y24690D01*
G01X443850Y150470D02*
Y158470D01*
X446350D01*
X447150Y158070D01*
X447650Y157540D01*
X447850Y156470D01*
X447650Y155400D01*
X447050Y154740D01*
X446350Y154340D01*
X443850D01*
G01X446350D02*
X447850Y150470D01*
G01X455050D02*
Y158470D01*
X451350Y152740D01*
X456350D01*
G01X461850Y150470D02*
X462550Y150600D01*
X463350Y151000D01*
X463850Y151670D01*
X464050Y152600D01*
X463850Y153540D01*
X463250Y154340D01*
X462350Y154740D01*
X461350D01*
X460750Y155000D01*
X460250Y155670D01*
X460050Y156600D01*
X460350Y157540D01*
X461050Y158200D01*
X461850Y158470D01*
X462650Y158200D01*
X463350Y157540D01*
X463650Y156600D01*
X463450Y155670D01*
X462950Y155000D01*
X462350Y154740D01*
X461350D01*
X460450Y154340D01*
X459850Y153540D01*
X459650Y152600D01*
X459850Y151670D01*
X460350Y151000D01*
X461150Y150600D01*
X461850Y150470D01*
G01X557270Y-1155700D02*
Y-1168400D01*
G01X553580Y-1155700D02*
X560970D01*
G01X567810Y-1162690D02*
X572960D01*
X572480Y-1161200D01*
X571670Y-1160360D01*
X570550Y-1159930D01*
X569420Y-1160150D01*
X568460Y-1160780D01*
X567810Y-1162260D01*
X567490Y-1163530D01*
Y-1164800D01*
X567810Y-1166070D01*
X568620Y-1167340D01*
X569580Y-1168190D01*
X570710Y-1168400D01*
X571830Y-1167980D01*
X572960Y-1166710D01*
G01X580920Y-1168400D02*
Y-1159930D01*
G01Y-1161630D02*
X581730Y-1160780D01*
X582530Y-1160150D01*
X583660Y-1159930D01*
X584460Y-1160150D01*
X585430Y-1160780D01*
G01X591300Y-1168400D02*
Y-1159930D01*
G01Y-1162260D02*
X591780Y-1161200D01*
X592590Y-1160360D01*
X593710Y-1159930D01*
X594840Y-1160360D01*
X595640Y-1161200D01*
X596120Y-1162260D01*
Y-1168400D01*
G01Y-1162260D02*
X596610Y-1161200D01*
X597410Y-1160360D01*
X598540Y-1159930D01*
X599660Y-1160360D01*
X600470Y-1161200D01*
X600950Y-1162470D01*
Y-1168400D01*
G01X609070Y-1159930D02*
Y-1168400D01*
G01Y-1156550D02*
X608750Y-1156340D01*
Y-1155910D01*
X609070Y-1155700D01*
X609400Y-1155910D01*
Y-1156340D01*
X609070Y-1156550D01*
G01X619290Y-1168400D02*
Y-1159930D01*
G01Y-1162050D02*
X619930Y-1160990D01*
X620900Y-1160150D01*
X622190Y-1159930D01*
X623310Y-1160150D01*
X624280Y-1160990D01*
X624760Y-1162470D01*
Y-1168400D01*
G01X637870D02*
Y-1159930D01*
G01Y-1161410D02*
X637230Y-1160570D01*
X636260Y-1160150D01*
X635140Y-1159930D01*
X634010Y-1160360D01*
X633040Y-1161200D01*
X632400Y-1162470D01*
X632080Y-1164170D01*
X632400Y-1165860D01*
X633040Y-1167130D01*
X634010Y-1167980D01*
X635140Y-1168400D01*
X636260Y-1168190D01*
X637230Y-1167550D01*
X637870Y-1166710D01*
G01X647920Y-1155700D02*
Y-1168400D01*
G01X645670Y-1159930D02*
X650180D01*
G01X660870Y-1168400D02*
X659910Y-1168190D01*
X658940Y-1167340D01*
X658300Y-1165860D01*
X657980Y-1164170D01*
X658300Y-1162470D01*
X658940Y-1160990D01*
X659910Y-1160150D01*
X660870Y-1159930D01*
X661840Y-1160150D01*
X662810Y-1160990D01*
X663450Y-1162470D01*
X663610Y-1164170D01*
X663450Y-1165860D01*
X662810Y-1167340D01*
X661840Y-1168190D01*
X660870Y-1168400D01*
G01X671570D02*
Y-1159930D01*
G01Y-1161630D02*
X672380Y-1160780D01*
X673180Y-1160150D01*
X674310Y-1159930D01*
X675110Y-1160150D01*
X676080Y-1160780D01*
G01X529920Y-1108560D02*
Y-1095860D01*
X533940D01*
X535230Y-1096500D01*
X536030Y-1097340D01*
X536350Y-1099040D01*
X536030Y-1100730D01*
X535070Y-1101790D01*
X533940Y-1102420D01*
X529920D01*
G01X533940D02*
X536350Y-1108560D01*
G01X542550Y-1106020D02*
X543510Y-1107500D01*
X544800Y-1108350D01*
X546250Y-1108560D01*
X547530Y-1108350D01*
X548820Y-1107290D01*
X549620Y-1106020D01*
X549780Y-1104750D01*
X549460Y-1103270D01*
X548340Y-1102210D01*
X547210Y-1101790D01*
X545760D01*
G01X547210D02*
X548180Y-1101150D01*
X548980Y-1100090D01*
X549300Y-1098820D01*
X548980Y-1097550D01*
X548180Y-1096500D01*
X546730Y-1095860D01*
X545280Y-1096070D01*
X543830Y-1096920D01*
G01X555500Y-1106020D02*
X556460Y-1107500D01*
X557750Y-1108350D01*
X559200Y-1108560D01*
X560480Y-1108350D01*
X561770Y-1107290D01*
X562570Y-1106020D01*
X562730Y-1104750D01*
X562410Y-1103270D01*
X561290Y-1102210D01*
X560160Y-1101790D01*
X558710D01*
G01X560160D02*
X561130Y-1101150D01*
X561930Y-1100090D01*
X562250Y-1098820D01*
X561930Y-1097550D01*
X561130Y-1096500D01*
X559680Y-1095860D01*
X558230Y-1096070D01*
X556780Y-1096920D01*
G01X529920Y-1083160D02*
Y-1070460D01*
X533940D01*
X535230Y-1071100D01*
X536030Y-1071940D01*
X536350Y-1073640D01*
X536030Y-1075330D01*
X535070Y-1076390D01*
X533940Y-1077020D01*
X529920D01*
G01X533940D02*
X536350Y-1083160D01*
G01X542550Y-1080620D02*
X543510Y-1082100D01*
X544800Y-1082950D01*
X546250Y-1083160D01*
X547530Y-1082950D01*
X548820Y-1081890D01*
X549620Y-1080620D01*
X549780Y-1079350D01*
X549460Y-1077870D01*
X548340Y-1076810D01*
X547210Y-1076390D01*
X545760D01*
G01X547210D02*
X548180Y-1075750D01*
X548980Y-1074690D01*
X549300Y-1073420D01*
X548980Y-1072150D01*
X548180Y-1071100D01*
X546730Y-1070460D01*
X545280Y-1070670D01*
X543830Y-1071520D01*
G01X560970Y-1083160D02*
Y-1070460D01*
X555010Y-1079560D01*
X563060D01*
G01X565310Y-950810D02*
X566590Y-951870D01*
X568040Y-952500D01*
X569330D01*
X570620Y-951870D01*
X571580Y-950810D01*
X572060Y-949320D01*
X571740Y-947840D01*
X570940Y-946570D01*
X569490Y-945730D01*
X567560Y-945300D01*
X566430Y-944460D01*
X565950Y-942980D01*
X566270Y-941490D01*
X567080Y-940440D01*
X568200Y-939800D01*
X569330D01*
X570450Y-940220D01*
X571420Y-941280D01*
G01X578100Y-950600D02*
X579060Y-951650D01*
X580190Y-952290D01*
X581630Y-952500D01*
X583080Y-952080D01*
X584210Y-951230D01*
X585010Y-949750D01*
X585170Y-948060D01*
X584850Y-946360D01*
X584050Y-945300D01*
X582920Y-944460D01*
X581800Y-944250D01*
X580670Y-944460D01*
X579220Y-945300D01*
X579700Y-939800D01*
X584050D01*
G01X529920Y-854560D02*
Y-841860D01*
X533940D01*
X535230Y-842500D01*
X536030Y-843340D01*
X536350Y-845040D01*
X536030Y-846730D01*
X535070Y-847790D01*
X533940Y-848420D01*
X529920D01*
G01X533940D02*
X536350Y-854560D01*
G01X546080D02*
Y-841860D01*
X544150Y-844400D01*
G01Y-854560D02*
X548010D01*
G01X559030Y-841860D02*
X557750Y-842280D01*
X556780Y-843340D01*
X556140Y-844610D01*
X555660Y-846310D01*
X555500Y-848210D01*
X555660Y-850120D01*
X556140Y-851810D01*
X556780Y-853080D01*
X557750Y-854140D01*
X559030Y-854560D01*
X560320Y-854140D01*
X561290Y-853080D01*
X561930Y-851810D01*
X562410Y-850120D01*
X562570Y-848210D01*
X562410Y-846310D01*
X561930Y-844610D01*
X561290Y-843340D01*
X560320Y-842280D01*
X559030Y-841860D01*
G01X536410Y-829160D02*
Y-816460D01*
X540430D01*
X541720Y-817100D01*
X542520Y-817940D01*
X542840Y-819640D01*
X542520Y-821330D01*
X541560Y-822390D01*
X540430Y-823020D01*
X536410D01*
G01X540430D02*
X542840Y-829160D01*
G01X549840Y-827680D02*
X550970Y-828740D01*
X552250Y-829160D01*
X553540Y-828740D01*
X554670Y-827470D01*
X555470Y-825560D01*
X555790Y-823660D01*
Y-821330D01*
X555470Y-819420D01*
X554670Y-817730D01*
X553700Y-816880D01*
X552570Y-816460D01*
X551290Y-816880D01*
X550320Y-817730D01*
X549680Y-819000D01*
X549360Y-820690D01*
X549680Y-822170D01*
X550480Y-823660D01*
X551450Y-824500D01*
X552570Y-824720D01*
X553860Y-824290D01*
X554830Y-823230D01*
X555790Y-821330D01*
G01X567350Y-698910D02*
X568630Y-699970D01*
X570080Y-700600D01*
X571370D01*
X572660Y-699970D01*
X573620Y-698910D01*
X574100Y-697420D01*
X573780Y-695940D01*
X572980Y-694670D01*
X571530Y-693830D01*
X569600Y-693400D01*
X568470Y-692560D01*
X567990Y-691080D01*
X568310Y-689590D01*
X569120Y-688540D01*
X570240Y-687900D01*
X571370D01*
X572490Y-688320D01*
X573460Y-689380D01*
G01X583670Y-700600D02*
Y-687900D01*
X581740Y-690440D01*
G01Y-700600D02*
X585600D01*
G01X529920Y-600560D02*
Y-587860D01*
X533940D01*
X535230Y-588500D01*
X536030Y-589340D01*
X536350Y-591040D01*
X536030Y-592730D01*
X535070Y-593790D01*
X533940Y-594420D01*
X529920D01*
G01X533940D02*
X536350Y-600560D01*
G01X543030Y-589980D02*
X543990Y-588710D01*
X545120Y-588070D01*
X546410Y-587860D01*
X548020Y-588280D01*
X549140Y-589340D01*
X549460Y-590610D01*
X549300Y-591880D01*
X548660Y-592940D01*
X545440Y-595060D01*
X543990Y-596540D01*
X543030Y-598660D01*
X542710Y-600560D01*
X549460D01*
G01X555980Y-589980D02*
X556940Y-588710D01*
X558070Y-588070D01*
X559360Y-587860D01*
X560970Y-588280D01*
X562090Y-589340D01*
X562410Y-590610D01*
X562250Y-591880D01*
X561610Y-592940D01*
X558390Y-595060D01*
X556940Y-596540D01*
X555980Y-598660D01*
X555660Y-600560D01*
X562410D01*
G01X529920Y-575160D02*
Y-562460D01*
X533940D01*
X535230Y-563100D01*
X536030Y-563940D01*
X536350Y-565640D01*
X536030Y-567330D01*
X535070Y-568390D01*
X533940Y-569020D01*
X529920D01*
G01X533940D02*
X536350Y-575160D01*
G01X543030Y-564580D02*
X543990Y-563310D01*
X545120Y-562670D01*
X546410Y-562460D01*
X548020Y-562880D01*
X549140Y-563940D01*
X549460Y-565210D01*
X549300Y-566480D01*
X548660Y-567540D01*
X545440Y-569660D01*
X543990Y-571140D01*
X543030Y-573260D01*
X542710Y-575160D01*
X549460D01*
G01X559030D02*
Y-562460D01*
X557100Y-565000D01*
G01Y-575160D02*
X560960D01*
G01X567350Y-444910D02*
X568630Y-445970D01*
X570080Y-446600D01*
X571370D01*
X572660Y-445970D01*
X573620Y-444910D01*
X574100Y-443420D01*
X573780Y-441940D01*
X572980Y-440670D01*
X571530Y-439830D01*
X569600Y-439400D01*
X568470Y-438560D01*
X567990Y-437080D01*
X568310Y-435590D01*
X569120Y-434540D01*
X570240Y-433900D01*
X571370D01*
X572490Y-434320D01*
X573460Y-435380D01*
G01X580140Y-444060D02*
X581100Y-445540D01*
X582390Y-446390D01*
X583840Y-446600D01*
X585120Y-446390D01*
X586410Y-445330D01*
X587210Y-444060D01*
X587370Y-442790D01*
X587050Y-441310D01*
X585930Y-440250D01*
X584800Y-439830D01*
X583350D01*
G01X584800D02*
X585770Y-439190D01*
X586570Y-438130D01*
X586890Y-436860D01*
X586570Y-435590D01*
X585770Y-434540D01*
X584320Y-433900D01*
X582870Y-434110D01*
X581420Y-434960D01*
G01X535350Y-137010D02*
X539370Y-149710D01*
X543400Y-137010D01*
G01X548790Y-149710D02*
Y-137010D01*
X552000D01*
X553290Y-137650D01*
X554260Y-138490D01*
X555060Y-139760D01*
X555700Y-141240D01*
X555860Y-143360D01*
X555700Y-145480D01*
X555060Y-146960D01*
X554260Y-148230D01*
X553290Y-149080D01*
X552000Y-149710D01*
X548790D01*
G01X562220Y-139130D02*
X563180Y-137860D01*
X564310Y-137220D01*
X565600Y-137010D01*
X567210Y-137430D01*
X568330Y-138490D01*
X568650Y-139760D01*
X568490Y-141030D01*
X567850Y-142090D01*
X564630Y-144210D01*
X563180Y-145690D01*
X562220Y-147810D01*
X561900Y-149710D01*
X568650D01*
G01X574690Y-147810D02*
X575650Y-148860D01*
X576780Y-149500D01*
X578220Y-149710D01*
X579670Y-149290D01*
X580800Y-148440D01*
X581600Y-146960D01*
X581760Y-145270D01*
X581440Y-143570D01*
X580640Y-142510D01*
X579510Y-141670D01*
X578390Y-141460D01*
X577260Y-141670D01*
X575810Y-142510D01*
X576290Y-137010D01*
X580640D01*
G01X535350Y47140D02*
X539370Y34440D01*
X543400Y47140D01*
G01X548790Y34440D02*
Y47140D01*
X552000D01*
X553290Y46500D01*
X554260Y45660D01*
X555060Y44390D01*
X555700Y42910D01*
X555860Y40790D01*
X555700Y38670D01*
X555060Y37190D01*
X554260Y35920D01*
X553290Y35070D01*
X552000Y34440D01*
X548790D01*
G01X562220Y45020D02*
X563180Y46290D01*
X564310Y46930D01*
X565600Y47140D01*
X567210Y46720D01*
X568330Y45660D01*
X568650Y44390D01*
X568490Y43120D01*
X567850Y42060D01*
X564630Y39940D01*
X563180Y38460D01*
X562220Y36340D01*
X561900Y34440D01*
X568650D01*
G01X575170Y45020D02*
X576130Y46290D01*
X577260Y46930D01*
X578550Y47140D01*
X580160Y46720D01*
X581280Y45660D01*
X581600Y44390D01*
X581440Y43120D01*
X580800Y42060D01*
X577580Y39940D01*
X576130Y38460D01*
X575170Y36340D01*
X574850Y34440D01*
X581600D01*
G01X535350Y218590D02*
X539370Y205890D01*
X543400Y218590D01*
G01X548790Y205890D02*
Y218590D01*
X552000D01*
X553290Y217950D01*
X554260Y217110D01*
X555060Y215840D01*
X555700Y214360D01*
X555860Y212240D01*
X555700Y210120D01*
X555060Y208640D01*
X554260Y207370D01*
X553290Y206520D01*
X552000Y205890D01*
X548790D01*
G01X565270D02*
Y218590D01*
X563340Y216050D01*
G01Y205890D02*
X567200D01*
G01X578220D02*
X579350Y206100D01*
X580640Y206740D01*
X581440Y207790D01*
X581760Y209280D01*
X581440Y210760D01*
X580480Y212030D01*
X579030Y212660D01*
X577420D01*
X576460Y213090D01*
X575650Y214140D01*
X575330Y215630D01*
X575810Y217110D01*
X576940Y218170D01*
X578220Y218590D01*
X579510Y218170D01*
X580640Y217110D01*
X581120Y215630D01*
X580800Y214140D01*
X579990Y213090D01*
X579030Y212660D01*
X577420D01*
X575970Y212030D01*
X575010Y210760D01*
X574690Y209280D01*
X575010Y207790D01*
X575810Y206740D01*
X577100Y206100D01*
X578220Y205890D01*
G01X519730Y306900D02*
Y319600D01*
G01X525840D02*
X519730Y311770D01*
G01X526800Y306900D02*
X522460Y315370D01*
G01X538150Y306900D02*
Y319600D01*
X532190Y310500D01*
X540240D01*
G01X519730Y408500D02*
Y421200D01*
G01X525840D02*
X519730Y413370D01*
G01X526800Y408500D02*
X522460Y416970D01*
G01X532680Y411040D02*
X533640Y409560D01*
X534930Y408710D01*
X536380Y408500D01*
X537660Y408710D01*
X538950Y409770D01*
X539750Y411040D01*
X539910Y412310D01*
X539590Y413790D01*
X538470Y414850D01*
X537340Y415270D01*
X535890D01*
G01X537340D02*
X538310Y415910D01*
X539110Y416970D01*
X539430Y418240D01*
X539110Y419510D01*
X538310Y420560D01*
X536860Y421200D01*
X535410Y420990D01*
X533960Y420140D01*
G01X519730Y510100D02*
Y522800D01*
G01X525840D02*
X519730Y514970D01*
G01X526800Y510100D02*
X522460Y518570D01*
G01X533160Y520680D02*
X534120Y521950D01*
X535250Y522590D01*
X536540Y522800D01*
X538150Y522380D01*
X539270Y521320D01*
X539590Y520050D01*
X539430Y518780D01*
X538790Y517720D01*
X535570Y515600D01*
X534120Y514120D01*
X533160Y512000D01*
X532840Y510100D01*
X539590D01*
G01X519730Y611700D02*
Y624400D01*
G01X525840D02*
X519730Y616570D01*
G01X526800Y611700D02*
X522460Y620170D01*
G01X536210Y611700D02*
Y624400D01*
X534280Y621860D01*
G01Y611700D02*
X538140D01*
G01X614420Y-1308100D02*
Y-1295400D01*
X612490Y-1297940D01*
G01Y-1308100D02*
X616350D01*
G01X624320Y-1297520D02*
X625280Y-1296250D01*
X626410Y-1295610D01*
X627700Y-1295400D01*
X629310Y-1295820D01*
X630430Y-1296880D01*
X630750Y-1298150D01*
X630590Y-1299420D01*
X629950Y-1300480D01*
X626730Y-1302600D01*
X625280Y-1304080D01*
X624320Y-1306200D01*
X624000Y-1308100D01*
X630750D01*
G01X640320Y-1295400D02*
X639040Y-1295820D01*
X638070Y-1296880D01*
X637430Y-1298150D01*
X636950Y-1299850D01*
X636790Y-1301750D01*
X636950Y-1303660D01*
X637430Y-1305350D01*
X638070Y-1306620D01*
X639040Y-1307680D01*
X640320Y-1308100D01*
X641610Y-1307680D01*
X642580Y-1306620D01*
X643220Y-1305350D01*
X643700Y-1303660D01*
X643860Y-1301750D01*
X643700Y-1299850D01*
X643220Y-1298150D01*
X642580Y-1296880D01*
X641610Y-1295820D01*
X640320Y-1295400D01*
G01X666220Y-1308100D02*
X664940Y-1307890D01*
X663810Y-1307040D01*
X662850Y-1305770D01*
X662200Y-1304290D01*
X661880Y-1302600D01*
Y-1300900D01*
X662200Y-1299210D01*
X662850Y-1297730D01*
X663810Y-1296460D01*
X664940Y-1295610D01*
X666220Y-1295400D01*
X667510Y-1295610D01*
X668640Y-1296460D01*
X669600Y-1297730D01*
X670250Y-1299210D01*
X670570Y-1300900D01*
Y-1302600D01*
X670250Y-1304290D01*
X669600Y-1305770D01*
X668640Y-1307040D01*
X667510Y-1307890D01*
X666220Y-1308100D01*
G01X676440D02*
Y-1295400D01*
G01Y-1301540D02*
X677240Y-1300480D01*
X678050Y-1299850D01*
X679340Y-1299630D01*
X680300Y-1299850D01*
X681430Y-1300690D01*
X681910Y-1301960D01*
Y-1308100D01*
G01X687300D02*
Y-1299630D01*
G01Y-1301960D02*
X687780Y-1300900D01*
X688590Y-1300060D01*
X689710Y-1299630D01*
X690840Y-1300060D01*
X691640Y-1300900D01*
X692120Y-1301960D01*
Y-1308100D01*
G01Y-1301960D02*
X692610Y-1300900D01*
X693410Y-1300060D01*
X694540Y-1299630D01*
X695660Y-1300060D01*
X696470Y-1300900D01*
X696950Y-1302170D01*
Y-1308100D01*
G01X611370Y-1246720D02*
X612330Y-1245450D01*
X613460Y-1244810D01*
X614750Y-1244600D01*
X616360Y-1245020D01*
X617480Y-1246080D01*
X617800Y-1247350D01*
X617640Y-1248620D01*
X617000Y-1249680D01*
X613780Y-1251800D01*
X612330Y-1253280D01*
X611370Y-1255400D01*
X611050Y-1257300D01*
X617800D01*
G01X629310D02*
Y-1244600D01*
X623350Y-1253700D01*
X631400D01*
G01X640320Y-1244600D02*
X639040Y-1245020D01*
X638070Y-1246080D01*
X637430Y-1247350D01*
X636950Y-1249050D01*
X636790Y-1250950D01*
X636950Y-1252860D01*
X637430Y-1254550D01*
X638070Y-1255820D01*
X639040Y-1256880D01*
X640320Y-1257300D01*
X641610Y-1256880D01*
X642580Y-1255820D01*
X643220Y-1254550D01*
X643700Y-1252860D01*
X643860Y-1250950D01*
X643700Y-1249050D01*
X643220Y-1247350D01*
X642580Y-1246080D01*
X641610Y-1245020D01*
X640320Y-1244600D01*
G01X666220Y-1257300D02*
X664940Y-1257090D01*
X663810Y-1256240D01*
X662850Y-1254970D01*
X662200Y-1253490D01*
X661880Y-1251800D01*
Y-1250100D01*
X662200Y-1248410D01*
X662850Y-1246930D01*
X663810Y-1245660D01*
X664940Y-1244810D01*
X666220Y-1244600D01*
X667510Y-1244810D01*
X668640Y-1245660D01*
X669600Y-1246930D01*
X670250Y-1248410D01*
X670570Y-1250100D01*
Y-1251800D01*
X670250Y-1253490D01*
X669600Y-1254970D01*
X668640Y-1256240D01*
X667510Y-1257090D01*
X666220Y-1257300D01*
G01X676440D02*
Y-1244600D01*
G01Y-1250740D02*
X677240Y-1249680D01*
X678050Y-1249050D01*
X679340Y-1248830D01*
X680300Y-1249050D01*
X681430Y-1249890D01*
X681910Y-1251160D01*
Y-1257300D01*
G01X687300D02*
Y-1248830D01*
G01Y-1251160D02*
X687780Y-1250100D01*
X688590Y-1249260D01*
X689710Y-1248830D01*
X690840Y-1249260D01*
X691640Y-1250100D01*
X692120Y-1251160D01*
Y-1257300D01*
G01Y-1251160D02*
X692610Y-1250100D01*
X693410Y-1249260D01*
X694540Y-1248830D01*
X695660Y-1249260D01*
X696470Y-1250100D01*
X696950Y-1251370D01*
Y-1257300D01*
G01X610730Y-1206500D02*
Y-1193800D01*
X618120Y-1206500D01*
Y-1193800D01*
G01X627370Y-1206500D02*
X626410Y-1206290D01*
X625440Y-1205440D01*
X624800Y-1203960D01*
X624480Y-1202270D01*
X624800Y-1200570D01*
X625440Y-1199090D01*
X626410Y-1198250D01*
X627370Y-1198030D01*
X628340Y-1198250D01*
X629310Y-1199090D01*
X629950Y-1200570D01*
X630110Y-1202270D01*
X629950Y-1203960D01*
X629310Y-1205440D01*
X628340Y-1206290D01*
X627370Y-1206500D01*
G01X637590D02*
Y-1198030D01*
G01Y-1200150D02*
X638230Y-1199090D01*
X639200Y-1198250D01*
X640490Y-1198030D01*
X641610Y-1198250D01*
X642580Y-1199090D01*
X643060Y-1200570D01*
Y-1206500D01*
G01X650860Y-1200790D02*
X656010D01*
X655530Y-1199300D01*
X654720Y-1198460D01*
X653600Y-1198030D01*
X652470Y-1198250D01*
X651510Y-1198880D01*
X650860Y-1200360D01*
X650540Y-1201630D01*
Y-1202900D01*
X650860Y-1204170D01*
X651670Y-1205440D01*
X652630Y-1206290D01*
X653760Y-1206500D01*
X654880Y-1206080D01*
X656010Y-1204810D01*
G01X598850Y-1076810D02*
X602870Y-1089510D01*
X606900Y-1076810D01*
G01X612290Y-1089510D02*
Y-1076810D01*
X615500D01*
X616790Y-1077450D01*
X617760Y-1078290D01*
X618560Y-1079560D01*
X619200Y-1081040D01*
X619360Y-1083160D01*
X619200Y-1085280D01*
X618560Y-1086760D01*
X617760Y-1088030D01*
X616790Y-1088880D01*
X615500Y-1089510D01*
X612290D01*
G01X628770D02*
Y-1076810D01*
X626840Y-1079350D01*
G01Y-1089510D02*
X630700D01*
G01X638670Y-1078930D02*
X639630Y-1077660D01*
X640760Y-1077020D01*
X642050Y-1076810D01*
X643660Y-1077230D01*
X644780Y-1078290D01*
X645100Y-1079560D01*
X644940Y-1080830D01*
X644300Y-1081890D01*
X641080Y-1084010D01*
X639630Y-1085490D01*
X638670Y-1087610D01*
X638350Y-1089510D01*
X645100D01*
G01X622450Y-976540D02*
X635150D01*
Y-980560D01*
X634510Y-981850D01*
X633670Y-982650D01*
X631970Y-982970D01*
X630280Y-982650D01*
X629220Y-981690D01*
X628590Y-980560D01*
Y-976540D01*
G01Y-980560D02*
X622450Y-982970D01*
G01X624990Y-989170D02*
X623510Y-990130D01*
X622660Y-991420D01*
X622450Y-992870D01*
X622660Y-994150D01*
X623720Y-995440D01*
X624990Y-996240D01*
X626260Y-996400D01*
X627740Y-996080D01*
X628800Y-994960D01*
X629220Y-993830D01*
Y-992380D01*
G01Y-993830D02*
X629860Y-994800D01*
X630920Y-995600D01*
X632190Y-995920D01*
X633460Y-995600D01*
X634510Y-994800D01*
X635150Y-993350D01*
X634940Y-991900D01*
X634090Y-990450D01*
G01X635150Y-1005650D02*
X634730Y-1004370D01*
X633670Y-1003400D01*
X632400Y-1002760D01*
X630700Y-1002280D01*
X628800Y-1002120D01*
X626890Y-1002280D01*
X625200Y-1002760D01*
X623930Y-1003400D01*
X622870Y-1004370D01*
X622450Y-1005650D01*
X622870Y-1006940D01*
X623930Y-1007910D01*
X625200Y-1008550D01*
X626890Y-1009030D01*
X628800Y-1009190D01*
X630700Y-1009030D01*
X632400Y-1008550D01*
X633670Y-1007910D01*
X634730Y-1006940D01*
X635150Y-1005650D01*
G01X613460Y-812010D02*
X617480Y-824710D01*
X621510Y-812010D01*
G01X626900Y-824710D02*
Y-812010D01*
X630110D01*
X631400Y-812650D01*
X632370Y-813490D01*
X633170Y-814760D01*
X633810Y-816240D01*
X633970Y-818360D01*
X633810Y-820480D01*
X633170Y-821960D01*
X632370Y-823230D01*
X631400Y-824080D01*
X630110Y-824710D01*
X626900D01*
G01X645320D02*
Y-812010D01*
X639360Y-821110D01*
X647410D01*
G01X618960Y-752960D02*
Y-740260D01*
X622980D01*
X624270Y-740900D01*
X625070Y-741740D01*
X625390Y-743440D01*
X625070Y-745130D01*
X624110Y-746190D01*
X622980Y-746820D01*
X618960D01*
G01X622980D02*
X625390Y-752960D01*
G01X632070Y-747670D02*
X633190Y-746190D01*
X634160Y-745340D01*
X635450Y-744920D01*
X636570Y-745340D01*
X637380Y-746190D01*
X638020Y-747460D01*
X638180Y-748940D01*
X638020Y-750210D01*
X637380Y-751480D01*
X636410Y-752540D01*
X635290Y-752960D01*
X634000Y-752540D01*
X632870Y-751270D01*
X632230Y-749360D01*
X632070Y-747250D01*
X632390Y-744490D01*
X632870Y-743010D01*
X633680Y-741530D01*
X634800Y-740470D01*
X635930Y-740260D01*
X637060Y-740680D01*
X637860Y-741740D01*
G01X613460Y-558010D02*
X617480Y-570710D01*
X621510Y-558010D01*
G01X626900Y-570710D02*
Y-558010D01*
X630110D01*
X631400Y-558650D01*
X632370Y-559490D01*
X633170Y-560760D01*
X633810Y-562240D01*
X633970Y-564360D01*
X633810Y-566480D01*
X633170Y-567960D01*
X632370Y-569230D01*
X631400Y-570080D01*
X630110Y-570710D01*
X626900D01*
G01X643380D02*
X644510Y-570500D01*
X645800Y-569860D01*
X646600Y-568810D01*
X646920Y-567320D01*
X646600Y-565840D01*
X645640Y-564570D01*
X644190Y-563940D01*
X642580D01*
X641620Y-563510D01*
X640810Y-562460D01*
X640490Y-560970D01*
X640970Y-559490D01*
X642100Y-558430D01*
X643380Y-558010D01*
X644670Y-558430D01*
X645800Y-559490D01*
X646280Y-560970D01*
X645960Y-562460D01*
X645150Y-563510D01*
X644190Y-563940D01*
X642580D01*
X641130Y-564570D01*
X640170Y-565840D01*
X639850Y-567320D01*
X640170Y-568810D01*
X640970Y-569860D01*
X642260Y-570500D01*
X643380Y-570710D01*
G01X622300Y-463740D02*
X635000D01*
Y-467760D01*
X634360Y-469050D01*
X633520Y-469850D01*
X631820Y-470170D01*
X630130Y-469850D01*
X629070Y-468890D01*
X628440Y-467760D01*
Y-463740D01*
G01Y-467760D02*
X622300Y-470170D01*
G01Y-479900D02*
X635000D01*
X632460Y-477970D01*
G01X622300D02*
Y-481830D01*
G01Y-492850D02*
X622510Y-493980D01*
X623150Y-495270D01*
X624200Y-496070D01*
X625690Y-496390D01*
X627170Y-496070D01*
X628440Y-495110D01*
X629070Y-493660D01*
Y-492050D01*
X629500Y-491090D01*
X630550Y-490280D01*
X632040Y-489960D01*
X633520Y-490440D01*
X634580Y-491570D01*
X635000Y-492850D01*
X634580Y-494140D01*
X633520Y-495270D01*
X632040Y-495750D01*
X630550Y-495430D01*
X629500Y-494620D01*
X629070Y-493660D01*
Y-492050D01*
X628440Y-490600D01*
X627170Y-489640D01*
X625690Y-489320D01*
X624200Y-489640D01*
X623150Y-490440D01*
X622510Y-491730D01*
X622300Y-492850D01*
G01X631520Y-273050D02*
Y-260350D01*
X635540D01*
X636830Y-260990D01*
X637630Y-261830D01*
X637950Y-263530D01*
X637630Y-265220D01*
X636670Y-266280D01*
X635540Y-266910D01*
X631520D01*
G01X635540D02*
X637950Y-273050D01*
G01X644150Y-271150D02*
X645110Y-272200D01*
X646240Y-272840D01*
X647680Y-273050D01*
X649130Y-272630D01*
X650260Y-271780D01*
X651060Y-270300D01*
X651220Y-268610D01*
X650900Y-266910D01*
X650100Y-265850D01*
X648970Y-265010D01*
X647850Y-264800D01*
X646720Y-265010D01*
X645270Y-265850D01*
X645750Y-260350D01*
X650100D01*
G01X660630Y-273050D02*
X661760Y-272840D01*
X663050Y-272200D01*
X663850Y-271150D01*
X664170Y-269660D01*
X663850Y-268180D01*
X662890Y-266910D01*
X661440Y-266280D01*
X659830D01*
X658870Y-265850D01*
X658060Y-264800D01*
X657740Y-263310D01*
X658220Y-261830D01*
X659350Y-260770D01*
X660630Y-260350D01*
X661920Y-260770D01*
X663050Y-261830D01*
X663530Y-263310D01*
X663210Y-264800D01*
X662400Y-265850D01*
X661440Y-266280D01*
X659830D01*
X658380Y-266910D01*
X657420Y-268180D01*
X657100Y-269660D01*
X657420Y-271150D01*
X658220Y-272200D01*
X659510Y-272840D01*
X660630Y-273050D01*
G01X631520Y-88900D02*
Y-76200D01*
X635540D01*
X636830Y-76840D01*
X637630Y-77680D01*
X637950Y-79380D01*
X637630Y-81070D01*
X636670Y-82130D01*
X635540Y-82760D01*
X631520D01*
G01X635540D02*
X637950Y-88900D01*
G01X644150Y-87000D02*
X645110Y-88050D01*
X646240Y-88690D01*
X647680Y-88900D01*
X649130Y-88480D01*
X650260Y-87630D01*
X651060Y-86150D01*
X651220Y-84460D01*
X650900Y-82760D01*
X650100Y-81700D01*
X648970Y-80860D01*
X647850Y-80650D01*
X646720Y-80860D01*
X645270Y-81700D01*
X645750Y-76200D01*
X650100D01*
G01X660630D02*
X659350Y-76620D01*
X658380Y-77680D01*
X657740Y-78950D01*
X657260Y-80650D01*
X657100Y-82550D01*
X657260Y-84460D01*
X657740Y-86150D01*
X658380Y-87420D01*
X659350Y-88480D01*
X660630Y-88900D01*
X661920Y-88480D01*
X662890Y-87420D01*
X663530Y-86150D01*
X664010Y-84460D01*
X664170Y-82550D01*
X664010Y-80650D01*
X663530Y-78950D01*
X662890Y-77680D01*
X661920Y-76620D01*
X660630Y-76200D01*
G01X650570Y-143360D02*
Y-130660D01*
X654590D01*
X655880Y-131300D01*
X656680Y-132140D01*
X657000Y-133840D01*
X656680Y-135530D01*
X655720Y-136590D01*
X654590Y-137220D01*
X650570D01*
G01X654590D02*
X657000Y-143360D01*
G01X663200Y-141460D02*
X664160Y-142510D01*
X665290Y-143150D01*
X666730Y-143360D01*
X668180Y-142940D01*
X669310Y-142090D01*
X670110Y-140610D01*
X670270Y-138920D01*
X669950Y-137220D01*
X669150Y-136160D01*
X668020Y-135320D01*
X666900Y-135110D01*
X665770Y-135320D01*
X664320Y-136160D01*
X664800Y-130660D01*
X669150D01*
G01X679360Y-143360D02*
X679680Y-140610D01*
X680170Y-138280D01*
X680810Y-136160D01*
X681620Y-133840D01*
X682900Y-130660D01*
X676470D01*
G01X650570Y40790D02*
Y53490D01*
X654590D01*
X655880Y52850D01*
X656680Y52010D01*
X657000Y50310D01*
X656680Y48620D01*
X655720Y47560D01*
X654590Y46930D01*
X650570D01*
G01X654590D02*
X657000Y40790D01*
G01X668670D02*
Y53490D01*
X662710Y44390D01*
X670760D01*
G01X676950Y42270D02*
X678080Y41210D01*
X679360Y40790D01*
X680650Y41210D01*
X681780Y42480D01*
X682580Y44390D01*
X682900Y46290D01*
Y48620D01*
X682580Y50530D01*
X681780Y52220D01*
X680810Y53070D01*
X679680Y53490D01*
X678400Y53070D01*
X677430Y52220D01*
X676790Y50950D01*
X676470Y49260D01*
X676790Y47780D01*
X677590Y46290D01*
X678560Y45450D01*
X679680Y45230D01*
X680970Y45660D01*
X681940Y46720D01*
X682900Y48620D01*
G01X650570Y88900D02*
Y101600D01*
X654590D01*
X655880Y100960D01*
X656680Y100120D01*
X657000Y98420D01*
X656680Y96730D01*
X655720Y95670D01*
X654590Y95040D01*
X650570D01*
G01X654590D02*
X657000Y88900D01*
G01X668670D02*
Y101600D01*
X662710Y92500D01*
X670760D01*
G01X676630Y99480D02*
X677590Y100750D01*
X678720Y101390D01*
X680010Y101600D01*
X681620Y101180D01*
X682740Y100120D01*
X683060Y98850D01*
X682900Y97580D01*
X682260Y96520D01*
X679040Y94400D01*
X677590Y92920D01*
X676630Y90800D01*
X676310Y88900D01*
X683060D01*
G01X650570Y212240D02*
Y224940D01*
X654590D01*
X655880Y224300D01*
X656680Y223460D01*
X657000Y221760D01*
X656680Y220070D01*
X655720Y219010D01*
X654590Y218380D01*
X650570D01*
G01X654590D02*
X657000Y212240D01*
G01X668670D02*
Y224940D01*
X662710Y215840D01*
X670760D01*
G01X679680Y212240D02*
Y224940D01*
X677750Y222400D01*
G01Y212240D02*
X681610D01*
G01X727820Y-1111610D02*
Y-1098910D01*
X733930D01*
G01X731680Y-1105050D02*
X727820D01*
G01X745110Y-1104840D02*
X745760Y-1104200D01*
X746240Y-1103140D01*
X746560Y-1101660D01*
X746240Y-1100390D01*
X745590Y-1099550D01*
X744470Y-1098910D01*
X740130D01*
Y-1111610D01*
X745430D01*
X746560Y-1110760D01*
X747200Y-1109490D01*
X747520Y-1108010D01*
X747200Y-1106530D01*
X746240Y-1105260D01*
X745110Y-1104840D01*
X740130D01*
G01X756770Y-1111610D02*
Y-1098910D01*
X754840Y-1101450D01*
G01Y-1111610D02*
X758700D01*
G01X769720D02*
Y-1098910D01*
X767790Y-1101450D01*
G01Y-1111610D02*
X771650D01*
G01X665350Y-1092910D02*
X669370Y-1105610D01*
X673400Y-1092910D01*
G01X678790Y-1105610D02*
Y-1092910D01*
X682000D01*
X683290Y-1093550D01*
X684260Y-1094390D01*
X685060Y-1095660D01*
X685700Y-1097140D01*
X685860Y-1099260D01*
X685700Y-1101380D01*
X685060Y-1102860D01*
X684260Y-1104130D01*
X683290Y-1104980D01*
X682000Y-1105610D01*
X678790D01*
G01X695270D02*
Y-1092910D01*
X693340Y-1095450D01*
G01Y-1105610D02*
X697200D01*
G01X708220D02*
Y-1092910D01*
X706290Y-1095450D01*
G01Y-1105610D02*
X710150D01*
G01X727820Y-1048110D02*
Y-1035410D01*
X733930D01*
G01X731680Y-1041550D02*
X727820D01*
G01X745110Y-1041340D02*
X745760Y-1040700D01*
X746240Y-1039640D01*
X746560Y-1038160D01*
X746240Y-1036890D01*
X745590Y-1036050D01*
X744470Y-1035410D01*
X740130D01*
Y-1048110D01*
X745430D01*
X746560Y-1047260D01*
X747200Y-1045990D01*
X747520Y-1044510D01*
X747200Y-1043030D01*
X746240Y-1041760D01*
X745110Y-1041340D01*
X740130D01*
G01X756770Y-1048110D02*
Y-1035410D01*
X754840Y-1037950D01*
G01Y-1048110D02*
X758700D01*
G01X766670Y-1037530D02*
X767630Y-1036260D01*
X768760Y-1035620D01*
X770050Y-1035410D01*
X771660Y-1035830D01*
X772780Y-1036890D01*
X773100Y-1038160D01*
X772940Y-1039430D01*
X772300Y-1040490D01*
X769080Y-1042610D01*
X767630Y-1044090D01*
X766670Y-1046210D01*
X766350Y-1048110D01*
X773100D01*
G01X725820Y-997310D02*
Y-984610D01*
X731930D01*
G01X729680Y-990750D02*
X725820D01*
G01X743110Y-990540D02*
X743760Y-989900D01*
X744240Y-988840D01*
X744560Y-987360D01*
X744240Y-986090D01*
X743590Y-985250D01*
X742470Y-984610D01*
X738130D01*
Y-997310D01*
X743430D01*
X744560Y-996460D01*
X745200Y-995190D01*
X745520Y-993710D01*
X745200Y-992230D01*
X744240Y-990960D01*
X743110Y-990540D01*
X738130D01*
G01X754770Y-997310D02*
Y-984610D01*
X752840Y-987150D01*
G01Y-997310D02*
X756700D01*
G01X767720Y-984610D02*
X766440Y-985030D01*
X765470Y-986090D01*
X764830Y-987360D01*
X764350Y-989060D01*
X764190Y-990960D01*
X764350Y-992870D01*
X764830Y-994560D01*
X765470Y-995830D01*
X766440Y-996890D01*
X767720Y-997310D01*
X769010Y-996890D01*
X769980Y-995830D01*
X770620Y-994560D01*
X771100Y-992870D01*
X771260Y-990960D01*
X771100Y-989060D01*
X770620Y-987360D01*
X769980Y-986090D01*
X769010Y-985030D01*
X767720Y-984610D01*
G01X665350Y-978610D02*
X669370Y-991310D01*
X673400Y-978610D01*
G01X678790Y-991310D02*
Y-978610D01*
X682000D01*
X683290Y-979250D01*
X684260Y-980090D01*
X685060Y-981360D01*
X685700Y-982840D01*
X685860Y-984960D01*
X685700Y-987080D01*
X685060Y-988560D01*
X684260Y-989830D01*
X683290Y-990680D01*
X682000Y-991310D01*
X678790D01*
G01X695270D02*
Y-978610D01*
X693340Y-981150D01*
G01Y-991310D02*
X697200D01*
G01X708220Y-978610D02*
X706940Y-979030D01*
X705970Y-980090D01*
X705330Y-981360D01*
X704850Y-983060D01*
X704690Y-984960D01*
X704850Y-986870D01*
X705330Y-988560D01*
X705970Y-989830D01*
X706940Y-990890D01*
X708220Y-991310D01*
X709510Y-990890D01*
X710480Y-989830D01*
X711120Y-988560D01*
X711600Y-986870D01*
X711760Y-984960D01*
X711600Y-983060D01*
X711120Y-981360D01*
X710480Y-980090D01*
X709510Y-979030D01*
X708220Y-978610D01*
G01X671810Y-915110D02*
X675830Y-927810D01*
X679860Y-915110D01*
G01X685250Y-927810D02*
Y-915110D01*
X688460D01*
X689750Y-915750D01*
X690720Y-916590D01*
X691520Y-917860D01*
X692160Y-919340D01*
X692320Y-921460D01*
X692160Y-923580D01*
X691520Y-925060D01*
X690720Y-926330D01*
X689750Y-927180D01*
X688460Y-927810D01*
X685250D01*
G01X699000Y-926330D02*
X700130Y-927390D01*
X701410Y-927810D01*
X702700Y-927390D01*
X703830Y-926120D01*
X704630Y-924210D01*
X704950Y-922310D01*
Y-919980D01*
X704630Y-918070D01*
X703830Y-916380D01*
X702860Y-915530D01*
X701730Y-915110D01*
X700450Y-915530D01*
X699480Y-916380D01*
X698840Y-917650D01*
X698520Y-919340D01*
X698840Y-920820D01*
X699640Y-922310D01*
X700610Y-923150D01*
X701730Y-923370D01*
X703020Y-922940D01*
X703990Y-921880D01*
X704950Y-919980D01*
G01X671810Y-838910D02*
X675830Y-851610D01*
X679860Y-838910D01*
G01X685250Y-851610D02*
Y-838910D01*
X688460D01*
X689750Y-839550D01*
X690720Y-840390D01*
X691520Y-841660D01*
X692160Y-843140D01*
X692320Y-845260D01*
X692160Y-847380D01*
X691520Y-848860D01*
X690720Y-850130D01*
X689750Y-850980D01*
X688460Y-851610D01*
X685250D01*
G01X698200Y-849070D02*
X699160Y-850550D01*
X700450Y-851400D01*
X701900Y-851610D01*
X703180Y-851400D01*
X704470Y-850340D01*
X705270Y-849070D01*
X705430Y-847800D01*
X705110Y-846320D01*
X703990Y-845260D01*
X702860Y-844840D01*
X701410D01*
G01X702860D02*
X703830Y-844200D01*
X704630Y-843140D01*
X704950Y-841870D01*
X704630Y-840600D01*
X703830Y-839550D01*
X702380Y-838910D01*
X700930Y-839120D01*
X699480Y-839970D01*
G01X671810Y-724610D02*
X675830Y-737310D01*
X679860Y-724610D01*
G01X685250Y-737310D02*
Y-724610D01*
X688460D01*
X689750Y-725250D01*
X690720Y-726090D01*
X691520Y-727360D01*
X692160Y-728840D01*
X692320Y-730960D01*
X692160Y-733080D01*
X691520Y-734560D01*
X690720Y-735830D01*
X689750Y-736680D01*
X688460Y-737310D01*
X685250D01*
G01X698680Y-726730D02*
X699640Y-725460D01*
X700770Y-724820D01*
X702060Y-724610D01*
X703670Y-725030D01*
X704790Y-726090D01*
X705110Y-727360D01*
X704950Y-728630D01*
X704310Y-729690D01*
X701090Y-731810D01*
X699640Y-733290D01*
X698680Y-735410D01*
X698360Y-737310D01*
X705110D01*
G01X671810Y-661110D02*
X675830Y-673810D01*
X679860Y-661110D01*
G01X685250Y-673810D02*
Y-661110D01*
X688460D01*
X689750Y-661750D01*
X690720Y-662590D01*
X691520Y-663860D01*
X692160Y-665340D01*
X692320Y-667460D01*
X692160Y-669580D01*
X691520Y-671060D01*
X690720Y-672330D01*
X689750Y-673180D01*
X688460Y-673810D01*
X685250D01*
G01X701730D02*
Y-661110D01*
X699800Y-663650D01*
G01Y-673810D02*
X703660D01*
G01X671810Y-584910D02*
X675830Y-597610D01*
X679860Y-584910D01*
G01X685250Y-597610D02*
Y-584910D01*
X688460D01*
X689750Y-585550D01*
X690720Y-586390D01*
X691520Y-587660D01*
X692160Y-589140D01*
X692320Y-591260D01*
X692160Y-593380D01*
X691520Y-594860D01*
X690720Y-596130D01*
X689750Y-596980D01*
X688460Y-597610D01*
X685250D01*
G01X701410D02*
X701730Y-594860D01*
X702220Y-592530D01*
X702860Y-590410D01*
X703670Y-588090D01*
X704950Y-584910D01*
X698520D01*
G01X671810Y-470610D02*
X675830Y-483310D01*
X679860Y-470610D01*
G01X685250Y-483310D02*
Y-470610D01*
X688460D01*
X689750Y-471250D01*
X690720Y-472090D01*
X691520Y-473360D01*
X692160Y-474840D01*
X692320Y-476960D01*
X692160Y-479080D01*
X691520Y-480560D01*
X690720Y-481830D01*
X689750Y-482680D01*
X688460Y-483310D01*
X685250D01*
G01X698680Y-478020D02*
X699800Y-476540D01*
X700770Y-475690D01*
X702060Y-475270D01*
X703180Y-475690D01*
X703990Y-476540D01*
X704630Y-477810D01*
X704790Y-479290D01*
X704630Y-480560D01*
X703990Y-481830D01*
X703020Y-482890D01*
X701900Y-483310D01*
X700610Y-482890D01*
X699480Y-481620D01*
X698840Y-479710D01*
X698680Y-477600D01*
X699000Y-474840D01*
X699480Y-473360D01*
X700290Y-471880D01*
X701410Y-470820D01*
X702540Y-470610D01*
X703670Y-471030D01*
X704470Y-472090D01*
G01X671810Y-407110D02*
X675830Y-419810D01*
X679860Y-407110D01*
G01X685250Y-419810D02*
Y-407110D01*
X688460D01*
X689750Y-407750D01*
X690720Y-408590D01*
X691520Y-409860D01*
X692160Y-411340D01*
X692320Y-413460D01*
X692160Y-415580D01*
X691520Y-417060D01*
X690720Y-418330D01*
X689750Y-419180D01*
X688460Y-419810D01*
X685250D01*
G01X698200Y-417910D02*
X699160Y-418960D01*
X700290Y-419600D01*
X701730Y-419810D01*
X703180Y-419390D01*
X704310Y-418540D01*
X705110Y-417060D01*
X705270Y-415370D01*
X704950Y-413670D01*
X704150Y-412610D01*
X703020Y-411770D01*
X701900Y-411560D01*
X700770Y-411770D01*
X699320Y-412610D01*
X699800Y-407110D01*
X704150D01*
G01X713150Y364640D02*
X717170Y351940D01*
X721200Y364640D01*
G01X726590Y351940D02*
Y364640D01*
X729800D01*
X731090Y364000D01*
X732060Y363160D01*
X732860Y361890D01*
X733500Y360410D01*
X733660Y358290D01*
X733500Y356170D01*
X732860Y354690D01*
X732060Y353420D01*
X731090Y352570D01*
X729800Y351940D01*
X726590D01*
G01X743070D02*
Y364640D01*
X741140Y362100D01*
G01Y351940D02*
X745000D01*
G01X752970Y357230D02*
X754090Y358710D01*
X755060Y359560D01*
X756350Y359980D01*
X757470Y359560D01*
X758280Y358710D01*
X758920Y357440D01*
X759080Y355960D01*
X758920Y354690D01*
X758280Y353420D01*
X757310Y352360D01*
X756190Y351940D01*
X754900Y352360D01*
X753770Y353630D01*
X753130Y355540D01*
X752970Y357650D01*
X753290Y360410D01*
X753770Y361890D01*
X754580Y363370D01*
X755700Y364430D01*
X756830Y364640D01*
X757960Y364220D01*
X758760Y363160D01*
G01X713150Y466240D02*
X717170Y453540D01*
X721200Y466240D01*
G01X726590Y453540D02*
Y466240D01*
X729800D01*
X731090Y465600D01*
X732060Y464760D01*
X732860Y463490D01*
X733500Y462010D01*
X733660Y459890D01*
X733500Y457770D01*
X732860Y456290D01*
X732060Y455020D01*
X731090Y454170D01*
X729800Y453540D01*
X726590D01*
G01X743070D02*
Y466240D01*
X741140Y463700D01*
G01Y453540D02*
X745000D01*
G01X752490Y455440D02*
X753450Y454390D01*
X754580Y453750D01*
X756020Y453540D01*
X757470Y453960D01*
X758600Y454810D01*
X759400Y456290D01*
X759560Y457980D01*
X759240Y459680D01*
X758440Y460740D01*
X757310Y461580D01*
X756190Y461790D01*
X755060Y461580D01*
X753610Y460740D01*
X754090Y466240D01*
X758440D01*
G01X713150Y567840D02*
X717170Y555140D01*
X721200Y567840D01*
G01X726590Y555140D02*
Y567840D01*
X729800D01*
X731090Y567200D01*
X732060Y566360D01*
X732860Y565090D01*
X733500Y563610D01*
X733660Y561490D01*
X733500Y559370D01*
X732860Y557890D01*
X732060Y556620D01*
X731090Y555770D01*
X729800Y555140D01*
X726590D01*
G01X743070D02*
Y567840D01*
X741140Y565300D01*
G01Y555140D02*
X745000D01*
G01X757960D02*
Y567840D01*
X752000Y558740D01*
X760050D01*
G01X713150Y669440D02*
X717170Y656740D01*
X721200Y669440D01*
G01X726590Y656740D02*
Y669440D01*
X729800D01*
X731090Y668800D01*
X732060Y667960D01*
X732860Y666690D01*
X733500Y665210D01*
X733660Y663090D01*
X733500Y660970D01*
X732860Y659490D01*
X732060Y658220D01*
X731090Y657370D01*
X729800Y656740D01*
X726590D01*
G01X743070D02*
Y669440D01*
X741140Y666900D01*
G01Y656740D02*
X745000D01*
G01X752490Y659280D02*
X753450Y657800D01*
X754740Y656950D01*
X756190Y656740D01*
X757470Y656950D01*
X758760Y658010D01*
X759560Y659280D01*
X759720Y660550D01*
X759400Y662030D01*
X758280Y663090D01*
X757150Y663510D01*
X755700D01*
G01X757150D02*
X758120Y664150D01*
X758920Y665210D01*
X759240Y666480D01*
X758920Y667750D01*
X758120Y668800D01*
X756670Y669440D01*
X755220Y669230D01*
X753770Y668380D01*
G01X731830Y-933310D02*
Y-920610D01*
X737940D01*
G01X735690Y-926750D02*
X731830D01*
G01X749120Y-926540D02*
X749770Y-925900D01*
X750250Y-924840D01*
X750570Y-923360D01*
X750250Y-922090D01*
X749600Y-921250D01*
X748480Y-920610D01*
X744140D01*
Y-933310D01*
X749440D01*
X750570Y-932460D01*
X751210Y-931190D01*
X751530Y-929710D01*
X751210Y-928230D01*
X750250Y-926960D01*
X749120Y-926540D01*
X744140D01*
G01X758050Y-931830D02*
X759180Y-932890D01*
X760460Y-933310D01*
X761750Y-932890D01*
X762880Y-931620D01*
X763680Y-929710D01*
X764000Y-927810D01*
Y-925480D01*
X763680Y-923570D01*
X762880Y-921880D01*
X761910Y-921030D01*
X760780Y-920610D01*
X759500Y-921030D01*
X758530Y-921880D01*
X757890Y-923150D01*
X757570Y-924840D01*
X757890Y-926320D01*
X758690Y-927810D01*
X759660Y-928650D01*
X760780Y-928870D01*
X762070Y-928440D01*
X763040Y-927380D01*
X764000Y-925480D01*
G01X733180Y-856600D02*
Y-843900D01*
X739290D01*
G01X737040Y-850040D02*
X733180D01*
G01X750470Y-849830D02*
X751120Y-849190D01*
X751600Y-848130D01*
X751920Y-846650D01*
X751600Y-845380D01*
X750950Y-844540D01*
X749830Y-843900D01*
X745490D01*
Y-856600D01*
X750790D01*
X751920Y-855750D01*
X752560Y-854480D01*
X752880Y-853000D01*
X752560Y-851520D01*
X751600Y-850250D01*
X750470Y-849830D01*
X745490D01*
G01X758600Y-854060D02*
X759560Y-855540D01*
X760850Y-856390D01*
X762300Y-856600D01*
X763580Y-856390D01*
X764870Y-855330D01*
X765670Y-854060D01*
X765830Y-852790D01*
X765510Y-851310D01*
X764390Y-850250D01*
X763260Y-849830D01*
X761810D01*
G01X763260D02*
X764230Y-849190D01*
X765030Y-848130D01*
X765350Y-846860D01*
X765030Y-845590D01*
X764230Y-844540D01*
X762780Y-843900D01*
X761330Y-844110D01*
X759880Y-844960D01*
G01X733180Y-742600D02*
Y-729900D01*
X739290D01*
G01X737040Y-736040D02*
X733180D01*
G01X750470Y-735830D02*
X751120Y-735190D01*
X751600Y-734130D01*
X751920Y-732650D01*
X751600Y-731380D01*
X750950Y-730540D01*
X749830Y-729900D01*
X745490D01*
Y-742600D01*
X750790D01*
X751920Y-741750D01*
X752560Y-740480D01*
X752880Y-739000D01*
X752560Y-737520D01*
X751600Y-736250D01*
X750470Y-735830D01*
X745490D01*
G01X759080Y-732020D02*
X760040Y-730750D01*
X761170Y-730110D01*
X762460Y-729900D01*
X764070Y-730320D01*
X765190Y-731380D01*
X765510Y-732650D01*
X765350Y-733920D01*
X764710Y-734980D01*
X761490Y-737100D01*
X760040Y-738580D01*
X759080Y-740700D01*
X758760Y-742600D01*
X765510D01*
G01X733180Y-794600D02*
Y-781900D01*
X739290D01*
G01X737040Y-788040D02*
X733180D01*
G01X750470Y-787830D02*
X751120Y-787190D01*
X751600Y-786130D01*
X751920Y-784650D01*
X751600Y-783380D01*
X750950Y-782540D01*
X749830Y-781900D01*
X745490D01*
Y-794600D01*
X750790D01*
X751920Y-793750D01*
X752560Y-792480D01*
X752880Y-791000D01*
X752560Y-789520D01*
X751600Y-788250D01*
X750470Y-787830D01*
X745490D01*
G01X764070Y-794600D02*
Y-781900D01*
X758110Y-791000D01*
X766160D01*
G01X733180Y-680600D02*
Y-667900D01*
X739290D01*
G01X737040Y-674040D02*
X733180D01*
G01X750470Y-673830D02*
X751120Y-673190D01*
X751600Y-672130D01*
X751920Y-670650D01*
X751600Y-669380D01*
X750950Y-668540D01*
X749830Y-667900D01*
X745490D01*
Y-680600D01*
X750790D01*
X751920Y-679750D01*
X752560Y-678480D01*
X752880Y-677000D01*
X752560Y-675520D01*
X751600Y-674250D01*
X750470Y-673830D01*
X745490D01*
G01X762130Y-680600D02*
Y-667900D01*
X760200Y-670440D01*
G01Y-680600D02*
X764060D01*
G01X733180Y-602600D02*
Y-589900D01*
X739290D01*
G01X737040Y-596040D02*
X733180D01*
G01X750470Y-595830D02*
X751120Y-595190D01*
X751600Y-594130D01*
X751920Y-592650D01*
X751600Y-591380D01*
X750950Y-590540D01*
X749830Y-589900D01*
X745490D01*
Y-602600D01*
X750790D01*
X751920Y-601750D01*
X752560Y-600480D01*
X752880Y-599000D01*
X752560Y-597520D01*
X751600Y-596250D01*
X750470Y-595830D01*
X745490D01*
G01X761810Y-602600D02*
X762130Y-599850D01*
X762620Y-597520D01*
X763260Y-595400D01*
X764070Y-593080D01*
X765350Y-589900D01*
X758920D01*
G01X733180Y-540600D02*
Y-527900D01*
X739290D01*
G01X737040Y-534040D02*
X733180D01*
G01X750470Y-533830D02*
X751120Y-533190D01*
X751600Y-532130D01*
X751920Y-530650D01*
X751600Y-529380D01*
X750950Y-528540D01*
X749830Y-527900D01*
X745490D01*
Y-540600D01*
X750790D01*
X751920Y-539750D01*
X752560Y-538480D01*
X752880Y-537000D01*
X752560Y-535520D01*
X751600Y-534250D01*
X750470Y-533830D01*
X745490D01*
G01X762130Y-540600D02*
X763260Y-540390D01*
X764550Y-539750D01*
X765350Y-538700D01*
X765670Y-537210D01*
X765350Y-535730D01*
X764390Y-534460D01*
X762940Y-533830D01*
X761330D01*
X760370Y-533400D01*
X759560Y-532350D01*
X759240Y-530860D01*
X759720Y-529380D01*
X760850Y-528320D01*
X762130Y-527900D01*
X763420Y-528320D01*
X764550Y-529380D01*
X765030Y-530860D01*
X764710Y-532350D01*
X763900Y-533400D01*
X762940Y-533830D01*
X761330D01*
X759880Y-534460D01*
X758920Y-535730D01*
X758600Y-537210D01*
X758920Y-538700D01*
X759720Y-539750D01*
X761010Y-540390D01*
X762130Y-540600D01*
G01X733180Y-488600D02*
Y-475900D01*
X739290D01*
G01X737040Y-482040D02*
X733180D01*
G01X750470Y-481830D02*
X751120Y-481190D01*
X751600Y-480130D01*
X751920Y-478650D01*
X751600Y-477380D01*
X750950Y-476540D01*
X749830Y-475900D01*
X745490D01*
Y-488600D01*
X750790D01*
X751920Y-487750D01*
X752560Y-486480D01*
X752880Y-485000D01*
X752560Y-483520D01*
X751600Y-482250D01*
X750470Y-481830D01*
X745490D01*
G01X759080Y-483310D02*
X760200Y-481830D01*
X761170Y-480980D01*
X762460Y-480560D01*
X763580Y-480980D01*
X764390Y-481830D01*
X765030Y-483100D01*
X765190Y-484580D01*
X765030Y-485850D01*
X764390Y-487120D01*
X763420Y-488180D01*
X762300Y-488600D01*
X761010Y-488180D01*
X759880Y-486910D01*
X759240Y-485000D01*
X759080Y-482890D01*
X759400Y-480130D01*
X759880Y-478650D01*
X760690Y-477170D01*
X761810Y-476110D01*
X762940Y-475900D01*
X764070Y-476320D01*
X764870Y-477380D01*
G01X733180Y-426600D02*
Y-413900D01*
X739290D01*
G01X737040Y-420040D02*
X733180D01*
G01X750470Y-419830D02*
X751120Y-419190D01*
X751600Y-418130D01*
X751920Y-416650D01*
X751600Y-415380D01*
X750950Y-414540D01*
X749830Y-413900D01*
X745490D01*
Y-426600D01*
X750790D01*
X751920Y-425750D01*
X752560Y-424480D01*
X752880Y-423000D01*
X752560Y-421520D01*
X751600Y-420250D01*
X750470Y-419830D01*
X745490D01*
G01X758600Y-424700D02*
X759560Y-425750D01*
X760690Y-426390D01*
X762130Y-426600D01*
X763580Y-426180D01*
X764710Y-425330D01*
X765510Y-423850D01*
X765670Y-422160D01*
X765350Y-420460D01*
X764550Y-419400D01*
X763420Y-418560D01*
X762300Y-418350D01*
X761170Y-418560D01*
X759720Y-419400D01*
X760200Y-413900D01*
X764550D01*
G01X831040Y-375050D02*
X837790Y-362350D01*
G01X831040D02*
X837790Y-375050D01*
G01X843830Y-372510D02*
X844790Y-373990D01*
X846080Y-374840D01*
X847530Y-375050D01*
X848810Y-374840D01*
X850100Y-373780D01*
X850900Y-372510D01*
X851060Y-371240D01*
X850740Y-369760D01*
X849620Y-368700D01*
X848490Y-368280D01*
X847040D01*
G01X848490D02*
X849460Y-367640D01*
X850260Y-366580D01*
X850580Y-365310D01*
X850260Y-364040D01*
X849460Y-362990D01*
X848010Y-362350D01*
X846560Y-362560D01*
X845110Y-363410D01*
G01X837390Y698100D02*
X844140Y710800D01*
G01X837390D02*
X844140Y698100D01*
G01X850660Y708680D02*
X851620Y709950D01*
X852750Y710590D01*
X854040Y710800D01*
X855650Y710380D01*
X856770Y709320D01*
X857090Y708050D01*
X856930Y706780D01*
X856290Y705720D01*
X853070Y703600D01*
X851620Y702120D01*
X850660Y700000D01*
X850340Y698100D01*
X857090D01*
M02*
